<svg xmlns="http://www.w3.org/2000/svg" viewBox="0 0 736 414"><defs><style>.cls-1{isolation:isolate;}.cls-2{fill:#6be0ff;}.cls-3{fill:#566b7f;}.cls-4{fill:#3e556d;}.cls-5{fill:#00b8ed;}.cls-6{mix-blend-mode:soft-light;}.cls-7{fill:#fff;}.cls-8{fill:#f2f2f2;}.cls-9{fill:#4f4f4e;}.cls-10{fill:#d9d9d9;}.cls-11{fill:#a9a9a9;}.cls-12{fill:#ececec;}.cls-13{fill:#747473;}.cls-14{fill:#80cef4;}.cls-15{fill:#cfcfcf;}.cls-15,.cls-16,.cls-19,.cls-21,.cls-23,.cls-28{mix-blend-mode:multiply;}.cls-16{fill:#cdcdcd;}.cls-17{fill:#575756;}.cls-18{fill:#b9b9b9;}.cls-19{fill:#c6c6c5;}.cls-20{fill:#08b1e2;}.cls-21,.cls-24{fill:#e6e6e6;}.cls-22{fill:#ccc;}.cls-25{fill:#56c3f1;}.cls-26{fill:#344166;}.cls-27{fill:#576891;}.cls-28,.cls-29{fill:#dbdbdb;}.cls-30{fill:#cb2d21;}.cls-31{fill:#b7e1f9;}.cls-32{fill:#02ccff;}.cls-33{fill:#e9e9f0;}.cls-34{fill:#3f9fd7;}.cls-35{fill:#fa715c;}.cls-36{fill:#8ad9ea;}.cls-37{fill:#56c7e0;}</style></defs><title>Background</title><g class="cls-1"><g id="Layer_1" data-name="Layer 1"><rect class="cls-2" x="-557.67" y="-108" width="1839.47" height="474.82"/><rect class="cls-3" x="-557.67" y="282.18" width="1840.35" height="131.82"/><rect class="cls-4" x="-557.67" y="282.18" width="1840.35" height="11.15"/><rect class="cls-5" x="146.7" y="54.32" width="118.26" height="218.22"/><g class="cls-6"><polygon class="cls-7" points="151.53 54.32 149.41 260.87 147.28 54.32 151.53 54.32"/><polygon class="cls-7" points="155.43 65.99 157.56 272.54 153.3 272.54 155.43 65.99"/><polygon class="cls-7" points="163.4 54.32 161.28 260.87 159.15 54.32 163.4 54.32"/><polygon class="cls-7" points="167.3 65.99 169.43 272.54 165.18 272.54 167.3 65.99"/><polygon class="cls-7" points="175.27 54.32 173.15 260.87 171.02 54.32 175.27 54.32"/><polygon class="cls-7" points="179.17 65.99 181.3 272.54 177.04 272.54 179.17 65.99"/><polygon class="cls-7" points="187.14 54.32 185.01 260.87 182.89 54.32 187.14 54.32"/><polygon class="cls-7" points="191.04 65.99 193.17 272.54 188.91 272.54 191.04 65.99"/><polygon class="cls-7" points="199.01 54.32 196.89 260.87 194.76 54.32 199.01 54.32"/><polygon class="cls-7" points="202.91 65.99 205.03 272.54 200.78 272.54 202.91 65.99"/><polygon class="cls-7" points="210.88 54.32 208.75 260.87 206.63 54.32 210.88 54.32"/><polygon class="cls-7" points="214.78 65.99 216.91 272.54 212.65 272.54 214.78 65.99"/><polygon class="cls-7" points="222.75 54.32 220.63 260.87 218.5 54.32 222.75 54.32"/><polygon class="cls-7" points="226.65 65.99 228.78 272.54 224.52 272.54 226.65 65.99"/><polygon class="cls-7" points="234.62 54.32 232.5 260.87 230.37 54.32 234.62 54.32"/><polygon class="cls-7" points="238.52 65.99 240.65 272.54 236.39 272.54 238.52 65.99"/><polygon class="cls-7" points="246.49 54.32 244.37 260.87 242.24 54.32 246.49 54.32"/><polygon class="cls-7" points="250.39 65.99 252.51 272.54 248.26 272.54 250.39 65.99"/><polygon class="cls-7" points="258.36 54.32 256.24 260.87 254.11 54.32 258.36 54.32"/><polygon class="cls-7" points="262.26 65.99 264.39 272.54 260.13 272.54 262.26 65.99"/></g><rect class="cls-5" x="270.75" y="54.32" width="118.26" height="218.22"/><g class="cls-6"><polygon class="cls-7" points="275.58 54.32 273.45 260.87 271.33 54.32 275.58 54.32"/><polygon class="cls-7" points="279.48 65.99 281.6 272.54 277.35 272.54 279.48 65.99"/><polygon class="cls-7" points="287.45 54.32 285.32 260.87 283.2 54.32 287.45 54.32"/><polygon class="cls-7" points="291.35 65.99 293.47 272.54 289.22 272.54 291.35 65.99"/><polygon class="cls-7" points="299.32 54.32 297.19 260.87 295.06 54.32 299.32 54.32"/><polygon class="cls-7" points="303.21 65.99 305.34 272.54 301.09 272.54 303.21 65.99"/><polygon class="cls-7" points="311.19 54.32 309.06 260.87 306.94 54.32 311.19 54.32"/><polygon class="cls-7" points="315.08 65.99 317.21 272.54 312.96 272.54 315.08 65.99"/><polygon class="cls-7" points="323.06 54.32 320.93 260.87 318.81 54.32 323.06 54.32"/><polygon class="cls-7" points="326.95 65.99 329.08 272.54 324.83 272.54 326.95 65.99"/><polygon class="cls-7" points="334.93 54.32 332.8 260.87 330.67 54.32 334.93 54.32"/><polygon class="cls-7" points="338.82 65.99 340.95 272.54 336.7 272.54 338.82 65.99"/><polygon class="cls-7" points="346.8 54.32 344.67 260.87 342.54 54.32 346.8 54.32"/><polygon class="cls-7" points="350.69 65.99 352.82 272.54 348.57 272.54 350.69 65.99"/><polygon class="cls-7" points="358.67 54.32 356.54 260.87 354.41 54.32 358.67 54.32"/><polygon class="cls-7" points="362.57 65.99 364.69 272.54 360.44 272.54 362.57 65.99"/><polygon class="cls-7" points="370.54 54.32 368.41 260.87 366.28 54.32 370.54 54.32"/><polygon class="cls-7" points="374.43 65.99 376.56 272.54 372.31 272.54 374.43 65.99"/><polygon class="cls-7" points="382.4 54.32 380.28 260.87 378.15 54.32 382.4 54.32"/><polygon class="cls-7" points="386.3 65.99 388.43 272.54 384.18 272.54 386.3 65.99"/></g><rect class="cls-8" x="140.13" y="38.99" width="6.57" height="243.01"/><rect class="cls-8" x="264.57" y="38.99" width="6.57" height="243.01"/><rect class="cls-8" x="389" y="38.99" width="6.57" height="243.01"/><rect class="cls-9" x="139.07" y="280.15" width="8.5" height="4.95"/><rect class="cls-9" x="263.7" y="280.15" width="8.5" height="4.95"/><rect class="cls-9" x="388.14" y="280.15" width="8.5" height="4.95"/><rect class="cls-8" x="138" y="35.7" width="259.71" height="6.57"/><path class="cls-10" d="M263.13,286.51V277a6.15,6.15,0,0,0-6.15-6.15H139.69a6.15,6.15,0,0,0-6.15,6.15v9.49Z"/><path class="cls-10" d="M122.35,180s2.41,3.64,3.9,6.17c1.11,1.91,2.49,4,4.7,4H266.43c2.21,0,3.33-2,4.39-3.9,1.6-3,3.5-6.27,3.5-6.27Z"/><path class="cls-10" d="M55.75,198.52s3.31,2.85,5.43,4.89c1.59,1.53,3.49,3.17,5.61,2.57l50.72-14c2.13-.6,2.68-2.8,3.17-5,.74-3.27,1.67-7,1.67-7Z"/><path class="cls-10" d="M273.63,180s3.49,2.63,5.72,4.54c1.69,1.43,3.68,3,5.77,2.22l67.38-29c2.09-.74,2.5-3,2.86-5.15.54-3.31,1.23-7.07,1.23-7.07Z"/><rect class="cls-11" x="175.95" y="190.2" width="44.77" height="30.92"/><rect class="cls-12" x="175.26" y="215.89" width="46.16" height="54.98"/><path class="cls-13" d="M222.52,192.28a.89.89,0,0,1-.89.9H175a.89.89,0,0,1-.89-.9h0a.9.9,0,0,1,.89-.9h46.59a.9.9,0,0,1,.89.9Z"/><path class="cls-13" d="M222.52,195.34a.89.89,0,0,1-.89.89H175a.89.89,0,0,1-.89-.89h0a.89.89,0,0,1,.89-.9h46.59a.89.89,0,0,1,.89.9Z"/><path class="cls-13" d="M222.52,198.39a.89.89,0,0,1-.89.89H175a.89.89,0,0,1-.89-.89h0a.89.89,0,0,1,.89-.9h46.59a.89.89,0,0,1,.89.9Z"/><path class="cls-13" d="M222.52,201.44a.89.89,0,0,1-.89.9H175a.89.89,0,0,1-.89-.9h0a.9.9,0,0,1,.89-.9h46.59a.9.9,0,0,1,.89.9Z"/><path class="cls-13" d="M222.52,204.5a.89.89,0,0,1-.89.89H175a.89.89,0,0,1-.89-.89h0a.89.89,0,0,1,.89-.9h46.59a.89.89,0,0,1,.89.9Z"/><path class="cls-13" d="M222.52,207.55a.89.89,0,0,1-.89.89H175a.89.89,0,0,1-.89-.89h0a.89.89,0,0,1,.89-.9h46.59a.89.89,0,0,1,.89.9Z"/><path class="cls-13" d="M222.52,210.6a.89.89,0,0,1-.89.9H175a.89.89,0,0,1-.89-.9h0a.89.89,0,0,1,.89-.89h46.59a.89.89,0,0,1,.89.89Z"/><path class="cls-13" d="M222.52,213.66a.89.89,0,0,1-.89.89H175a.89.89,0,0,1-.89-.89h0a.89.89,0,0,1,.89-.9h46.59a.89.89,0,0,1,.89.9Z"/><rect class="cls-14" x="406.61" y="223.67" width="76.37" height="46.4"/><rect class="cls-12" x="408.96" y="248.47" width="71.66" height="19.3"/><path class="cls-15" d="M409,260.11v7.66h71.66v-15C480.62,267.77,435.9,267.77,409,260.11Z"/><path class="cls-14" d="M433.59,248.47v1.71a2.59,2.59,0,0,0,2.59,2.59H453.4a2.59,2.59,0,0,0,2.59-2.59v-1.71Z"/><path class="cls-16" d="M443.69,252a16.16,16.16,0,0,1-10-3.49h-.11v1.71a2.59,2.59,0,0,0,2.59,2.59H453.4a2.59,2.59,0,0,0,2.59-2.59v-1.71h-2.32A16.15,16.15,0,0,1,443.69,252Z"/><rect class="cls-12" x="408.96" y="226.05" width="71.66" height="19.3"/><path class="cls-15" d="M409,237.68v7.66h71.66v-15C480.62,245.34,435.9,245.34,409,237.68Z"/><path class="cls-14" d="M433.59,226.05v1.7a2.59,2.59,0,0,0,2.59,2.59H453.4a2.59,2.59,0,0,0,2.59-2.59v-1.7Z"/><path class="cls-16" d="M443.69,229.54a16.22,16.22,0,0,1-10-3.49h-.11v1.7a2.59,2.59,0,0,0,2.59,2.59H453.4a2.59,2.59,0,0,0,2.59-2.59v-1.7h-2.32A16.22,16.22,0,0,1,443.69,229.54Z"/><rect class="cls-14" x="402.92" y="183.43" width="81.39" height="3.05"/><rect class="cls-14" x="404.1" y="206.49" width="81.39" height="3.05"/><rect class="cls-14" x="401.59" y="157.18" width="86.41" height="9.08"/><rect class="cls-8" x="401.59" y="152.77" width="5.02" height="125.05"/><rect class="cls-8" x="482.98" y="152.77" width="5.02" height="125.05"/><path class="cls-17" d="M410.45,278.45a6.36,6.36,0,1,1-6.35-6.35A6.35,6.35,0,0,1,410.45,278.45Z"/><path class="cls-18" d="M407.45,278.45a3.35,3.35,0,1,1-3.35-3.34A3.35,3.35,0,0,1,407.45,278.45Z"/><path class="cls-19" d="M404.26,272.1c4.54,2,3.79,10.26-2.26,10.26a4.94,4.94,0,0,1-3.82-1.6,6.35,6.35,0,1,0,6.08-8.66Z"/><path class="cls-17" d="M491.84,278.45a6.36,6.36,0,1,1-6.35-6.35A6.35,6.35,0,0,1,491.84,278.45Z"/><path class="cls-18" d="M488.84,278.45a3.35,3.35,0,1,1-3.35-3.34A3.36,3.36,0,0,1,488.84,278.45Z"/><path class="cls-19" d="M485.65,272.1c4.54,2,3.79,10.26-2.26,10.26a4.94,4.94,0,0,1-3.82-1.6,6.35,6.35,0,1,0,6.08-8.66Z"/><rect class="cls-20" x="496.32" y="155.3" width="264.68" height="10.13"/><rect class="cls-8" x="506.5" y="165.43" width="93.66" height="113.22"/><rect class="cls-21" x="506.5" y="165.43" width="93.66" height="8.34"/><polygon class="cls-8" points="610.31 288.63 618.55 288.63 630.32 223.87 622.08 223.87 610.31 288.63"/><polygon class="cls-8" points="701.25 288.63 693.01 288.63 681.24 223.87 689.48 223.87 701.25 288.63"/><polygon class="cls-22" points="619.38 238.75 622.08 223.87 630.32 223.87 627.62 238.75 619.38 238.75"/><polygon class="cls-22" points="683.94 238.75 681.24 223.87 689.48 223.87 692.18 238.75 683.94 238.75"/><rect class="cls-8" x="681.24" y="203.75" width="8.24" height="20.12"/><rect class="cls-8" x="622.08" y="203.75" width="8.24" height="20.12"/><g class="cls-23"><rect class="cls-24" x="681.24" y="203.75" width="8.24" height="7.33"/><rect class="cls-24" x="622.08" y="203.75" width="8.24" height="7.33"/></g><rect class="cls-25" x="616.65" y="140.25" width="79.26" height="66.02" rx="10.13"/><path class="cls-25" d="M611.18,223.87a7.56,7.56,0,0,0,7.55,7.55h74.12a7.56,7.56,0,0,0,7.55-7.55h0a7.55,7.55,0,0,0-7.55-7.55H618.73a7.55,7.55,0,0,0-7.55,7.55Z"/><path class="cls-26" d="M126.36,74.93v48.3a9.52,9.52,0,0,1-9.51,9.52H72.67a9.52,9.52,0,0,1-9.52-9.52V74.93a9.51,9.51,0,0,1,9.52-9.51h44.18A9.51,9.51,0,0,1,126.36,74.93Z"/><path class="cls-27" d="M120.83,104.79c.49-.8,1.19-2.79-1.51-5.21a4.34,4.34,0,0,0,.78-.89c.51-.82,1.32-2.88-1.27-5.34.49-1,1-3-1.48-5.6a4.85,4.85,0,0,0-1.54-4.13.78.78,0,0,0,.11-.2c.51-1.46-.36-3-2.38-4.43a2,2,0,0,0,.06-.23c.45-1.89-1.57-3.55-2.73-4.29a2.09,2.09,0,0,0-.27-1.36,4.6,4.6,0,0,0-3-2h0a1.07,1.07,0,0,0-1,1.1,1.09,1.09,0,0,0,1,1,3.17,3.17,0,0,1,1.25.9c-.35.31-2.23,1.29-11.35,1v-9.7H92.12v9.7c-9.11.32-11-.66-11.36-1a3.2,3.2,0,0,1,1.26-.9,1.06,1.06,0,0,0,0-2.12h0a4.56,4.56,0,0,0-3,2,2,2,0,0,0-.26,1.36c-1.17.74-3.19,2.4-2.75,4.29A2,2,0,0,0,76,79c-2,1.39-2.89,3-2.39,4.43,0,.07.09.14.11.2a4.9,4.9,0,0,0-1.53,4.13c-2.48,2.58-2,4.64-1.48,5.6-2.59,2.46-1.78,4.52-1.27,5.34a4.34,4.34,0,0,0,.78.89c-2.7,2.42-2,4.41-1.5,5.21a4.42,4.42,0,0,0,1.42,1.36c-2.13,2.17-1.24,4-.87,4.55a4.39,4.39,0,0,0,1.8,1.48c-1,1.61-1.06,3.21-.09,4.44a3.78,3.78,0,0,0,1.4,1.08,5.12,5.12,0,0,0,.12,3.57c.39.9,1.71,2.9,5.36,2.14A10.5,10.5,0,0,0,85.61,116c1.09-3.68,3.23-9.47,6.51-12.71v29.48h5.26V103.28c3.28,3.23,5.42,9,6.51,12.7a10.5,10.5,0,0,0,7.79,7.43,8.13,8.13,0,0,0,1.54.17,3.87,3.87,0,0,0,3.81-2.31,5.12,5.12,0,0,0,.12-3.57,3.7,3.7,0,0,0,1.4-1.08c1-1.23.92-2.83-.07-4.44a4.42,4.42,0,0,0,1.79-1.48c.36-.56,1.26-2.38-.87-4.55A4.46,4.46,0,0,0,120.83,104.79ZM77.39,121.31c-1.45.31-2.41.08-2.86-.69a2.91,2.91,0,0,1-.13-2.36,8.72,8.72,0,0,0,1.17.08,18.94,18.94,0,0,0,7.63-2A8.24,8.24,0,0,1,77.39,121.31Zm6.76-7.79c-6.24,3.39-10.48,3.11-11.52,1.78-.45-.56-.26-1.46.51-2.43a13.75,13.75,0,0,0,2.4.21,23.66,23.66,0,0,0,9.64-2.37C84.8,111.65,84.46,112.59,84.15,113.52Zm2.43-5.93c-7.89,4.57-14.41,3.69-15.56,1.93-.56-.84.55-1.9,1.24-2.43a16.68,16.68,0,0,0,4.61.6,30.52,30.52,0,0,0,10.86-2.2C87.32,106.17,86.94,106.87,86.58,107.59Zm5.54-7.1a13.64,13.64,0,0,0-1.65,1.42l-.11,0c-9.27,4.94-18.42,4.07-19.86,1.72-.58-1,.64-2.15,1.56-2.87A16.82,16.82,0,0,0,78.85,102a33.68,33.68,0,0,0,13.27-3Zm0-3.8C82,101.5,72.77,100,71.21,97.54c-.55-.86.07-1.82.9-2.6,1.59,1.15,4.2,1.88,7.74,1.88a42.09,42.09,0,0,0,12.27-2.15Zm0-4.27C80.91,96,74,94.69,72.63,92.48c-.57-.93,0-2,.66-2.8,1.42,1.28,4,1.94,7.68,1.94a58.55,58.55,0,0,0,11.15-1.33Zm0-4.32c-12.34,2.55-17,1-17.77-.43-.46-.82.28-1.9.84-2.54,1.61.88,4.29,1.33,8.08,1.33a83.92,83.92,0,0,0,8.85-.56Zm0-4.36c-15.37,1.75-16.52-1-16.53-1-.11-.32.32-1.17,1.86-2.16,1.37.72,3.88,1.23,8.55,1.23,1.73,0,3.75-.07,6.12-.22Zm0-4.32C78.67,80.32,78,78.29,78,78.27c-.13-.49,1.23-1.69,2-2.11,1.24.65,3.68,1.16,8.76,1.16,1,0,2.16,0,3.4-.06Zm5.26-2.16c7.44.26,10.67-.32,12.15-1.1.76.42,2.12,1.62,2,2.11,0,0-.71,2-14.15,1.15Zm0,4.31c2.37.16,4.39.22,6.12.22,4.66,0,7.18-.51,8.55-1.23,1.54,1,2,1.84,1.86,2.16,0,0-1.16,2.77-16.53,1Zm0,4.33a83.76,83.76,0,0,0,8.85.56c3.79,0,6.47-.45,8.08-1.33.56.64,1.3,1.72.84,2.54-.78,1.4-5.43,3-17.77.43Zm0,4.39a58.55,58.55,0,0,0,11.16,1.33c3.66,0,6.25-.66,7.67-1.94.65.8,1.23,1.87.66,2.8-1.37,2.21-8.28,3.56-19.49-.06Zm0,4.38a42,42,0,0,0,12.27,2.15c3.55,0,6.15-.73,7.75-1.88.82.78,1.44,1.74.89,2.6-1.56,2.48-10.82,4-20.91-.85Zm17.59,26c-.46.77-1.42,1-2.85.69a8.23,8.23,0,0,1-5.82-4.93,19,19,0,0,0,7.63,2,8.57,8.57,0,0,0,1.16-.08A2.86,2.86,0,0,1,115,120.62Zm1.9-5.32c-1,1.33-5.28,1.61-11.52-1.78-.31-.93-.65-1.87-1-2.81a23.58,23.58,0,0,0,9.62,2.37,13.86,13.86,0,0,0,2.41-.21C117.12,113.84,117.32,114.74,116.87,115.3Zm1.62-5.78c-1.16,1.76-7.68,2.64-15.57-1.93-.36-.72-.74-1.42-1.16-2.1a30.31,30.31,0,0,0,10.86,2.2,16.83,16.83,0,0,0,4.63-.6C117.93,107.62,119,108.68,118.49,109.52Zm.51-5.85c-1.43,2.35-10.59,3.21-19.86-1.72l-.1,0a13.72,13.72,0,0,0-1.66-1.42V99.05a33.64,33.64,0,0,0,13.27,3,16.75,16.75,0,0,0,6.79-1.23C118.36,101.52,119.59,102.72,119,103.67Z"/><rect class="cls-14" x="4.49" y="62.76" width="7.23" height="209.81"/><rect class="cls-28" x="8.11" y="64.73" width="3.62" height="207.84"/><path class="cls-25" d="M-21.63,279.47v-7.25a4.69,4.69,0,0,1,4.69-4.69H33.14a4.69,4.69,0,0,1,4.69,4.69v7.25Z"/><path class="cls-28" d="M33.69,267.58c-.93.66-8.32,9.64-27.75,9.64-13,0-24.66-5.16-27.24-6.72a4.7,4.7,0,0,0-.33,1.72v7.25H37.83v-7.25A4.68,4.68,0,0,0,33.69,267.58Z"/><path class="cls-18" d="M35.14,62.76v16a3.76,3.76,0,0,0,7.51,0V73.94h3.81v4.84a7.57,7.57,0,1,1-15.13,0v-16Z"/><g class="cls-23"><path class="cls-29" d="M43.85,82.38A12.27,12.27,0,0,1,40.79,82a3.73,3.73,0,0,1-5.65-3.22v-.51a12.62,12.62,0,0,1,0-14.58v-.93H31.33v16a7.56,7.56,0,0,0,14.28,3.47A12.56,12.56,0,0,1,43.85,82.38Z"/></g><rect class="cls-14" x="-18.93" y="62.76" width="54.07" height="4.65"/><rect class="cls-28" x="-18.93" y="65.08" width="54.07" height="2.33"/><rect class="cls-14" x="25.6" y="94.7" width="27.05" height="42.09" rx="2.66"/><path class="cls-28" d="M50,94.7H35.65a18.35,18.35,0,0,1-4.88,36.05A18.06,18.06,0,0,1,25.6,130v4.16a2.67,2.67,0,0,0,2.66,2.66H50a2.67,2.67,0,0,0,2.66-2.66V97.37A2.66,2.66,0,0,0,50,94.7Z"/><path class="cls-30" d="M27.6,110.41v21a2.27,2.27,0,0,0,2.27,2.26h18.5a2.26,2.26,0,0,0,2.27-2.26v-21Z"/><path class="cls-28" d="M47.81,110.41a17.86,17.86,0,0,1,.35,3.45,18.55,18.55,0,0,1-18.38,18.37,17.36,17.36,0,0,1-2.05-.13,2.24,2.24,0,0,0,2.14,1.57h18.5a2.26,2.26,0,0,0,2.27-2.26v-21Z"/><rect class="cls-7" x="30.88" y="105.97" width="16.48" height="12.7"/><path class="cls-28" d="M44.74,106c.64,5.29-2.47,11.12-9.35,11.12a9.72,9.72,0,0,1-4.51-1v2.62H47.36V106Z"/><rect class="cls-31" x="37.87" y="82.29" width="2.5" height="10.11"/><rect class="cls-28" x="39.12" y="82.29" width="1.25" height="10.11"/><rect class="cls-14" x="35.82" y="91.79" width="6.6" height="2.92"/><rect class="cls-28" x="35.82" y="93.25" width="6.6" height="1.46"/><path class="cls-17" d="M35.55,279.47a5.92,5.92,0,1,1-5.91-5.93A5.92,5.92,0,0,1,35.55,279.47Z"/><path class="cls-18" d="M32.75,279.47a3.12,3.12,0,1,1-3.11-3.12A3.11,3.11,0,0,1,32.75,279.47Z"/><path class="cls-19" d="M29.78,273.55c4.24,1.91,3.53,9.56-2.1,9.56a4.62,4.62,0,0,1-3.56-1.5,5.92,5.92,0,1,0,5.66-8.06Z"/><rect class="cls-20" x="633.18" y="84.95" width="105.21" height="5.75"/><rect class="cls-20" x="633.18" y="47.55" width="105.21" height="5.75"/><circle class="cls-32" cx="453.46" cy="48.2" r="25.74"/><circle class="cls-7" cx="453.46" cy="44.73" r="23.42" transform="translate(101.19 333.75) rotate(-45)"/><path class="cls-33" d="M453.46,27.11a23.4,23.4,0,0,1,23.22,20.52,23.15,23.15,0,0,0,.2-2.9,23.42,23.42,0,0,0-46.84,0,23.15,23.15,0,0,0,.2,2.9A23.4,23.4,0,0,1,453.46,27.11Z"/><path class="cls-34" d="M453.46,70.46a25.73,25.73,0,1,1,25.73-25.73A25.76,25.76,0,0,1,453.46,70.46Zm0-46.83a21.1,21.1,0,1,0,21.1,21.1A21.13,21.13,0,0,0,453.46,23.63Z"/><polygon class="cls-32" points="465.42 56.41 452.3 45.27 452.3 32.74 454.62 32.74 454.62 44.2 466.92 54.65 465.42 56.41"/><rect class="cls-35" x="440.53" y="46.74" width="13.45" height="1.16" transform="translate(16.31 176.02) rotate(-22.67)"/><path class="cls-2" d="M456,44.73a2.54,2.54,0,1,1-2.54-2.53A2.54,2.54,0,0,1,456,44.73Z"/><rect class="cls-36" x="449.17" y="84.97" width="36.83" height="45.55"/><path class="cls-37" d="M484.35,86.63v42.25H450.82V86.63h33.53M486,85H449.17v45.56H486V85Z"/><rect class="cls-37" x="457.37" y="96.13" width="10.21" height="1.65"/><rect class="cls-37" x="457.37" y="105.77" width="20.25" height="1.65"/><rect class="cls-37" x="457.37" y="111.14" width="20.25" height="1.65"/><rect class="cls-37" x="457.37" y="116.65" width="20.25" height="1.65"/><rect class="cls-36" x="405.16" y="84.96" width="36.83" height="45.55"/><path class="cls-37" d="M440.34,86.61v42.25H406.81V86.61h33.53M442,85H405.16v45.55H442V85Z"/><rect class="cls-37" x="413.36" y="94.18" width="20.25" height="1.65"/><rect class="cls-37" x="413.36" y="99.74" width="20.25" height="1.65"/><rect class="cls-37" x="413.36" y="105.3" width="20.25" height="1.65"/><rect class="cls-37" x="413.36" y="110.85" width="20.25" height="1.65"/><path class="cls-34" d="M432.5,116.86a1.76,1.76,0,1,1-1.75,1.76,1.76,1.76,0,0,1,1.75-1.76m0-1.65a3.41,3.41,0,1,0,3.41,3.41,3.41,3.41,0,0,0-3.41-3.41Z"/><polygon class="cls-34" points="433.74 124.92 432.5 124.03 431.26 124.92 431.26 121.61 433.74 121.61 433.74 124.92"/></g></g></svg>