<svg xmlns="http://www.w3.org/2000/svg" xmlns:xlink="http://www.w3.org/1999/xlink" viewBox="0 0 736 414"><defs><style>.cls-1{fill:none;}.cls-2{fill:#fff;}.cls-3{isolation:isolate;}.cls-4,.cls-6,.cls-7{fill:#0e2b48;}.cls-5{opacity:0.2;fill:url(#Unnamed_Pattern);}.cls-6,.cls-8{opacity:0.7;}.cls-6,.cls-7,.cls-8{mix-blend-mode:multiply;}.cls-7{opacity:0.35;}.cls-9{fill:#eaeaea;}.cls-10{fill:#42bbba;}.cls-11{fill:#d2207d;}</style><pattern id="Unnamed_Pattern" data-name="Unnamed Pattern" width="150" height="150" patternTransform="translate(110 140)" patternUnits="userSpaceOnUse" viewBox="0 0 150 150"><rect class="cls-1" width="150" height="150"/><path class="cls-2" d="M143.85,175.24a13.33,13.33,0,0,1-3.06,3c-7.49,6.63-29.57,5.21-30.51,5.15a1.37,1.37,0,0,1-.8-.29,1.46,1.46,0,0,1-.52-.67,101.3,101.3,0,0,1-4-12.84,1.52,1.52,0,1,1,3-.72,100.89,100.89,0,0,0,3.55,11.56c6.7.34,22.2.09,27.45-4.56a10.91,10.91,0,0,0,2.49-2.44,10.7,10.7,0,0,0,1-10.84,10.92,10.92,0,0,0-12.33-5.83,1.58,1.58,0,0,1-1.89-1.38,10.94,10.94,0,0,0-9.34-9.94,10.71,10.71,0,0,0-10,4.33,10.51,10.51,0,0,0-1.5,3,11.47,11.47,0,0,0-.79,3.14l7.16,5.2,6.57-3.87a1.52,1.52,0,0,1,2.17,1.89l-3.76,9,5.13-2.14a1.51,1.51,0,0,1,1.49.17l4.44,3.23a1.51,1.51,0,0,1-1.78,2.45l-3.77-2.73-7.73,3.24a1.54,1.54,0,0,1-1.47-.17l-.18-.15a1.49,1.49,0,0,1-.34-1.66l3.41-8.17-3.48,2.06a1.53,1.53,0,0,1-1.67-.08L98.43,153.75a1.52,1.52,0,0,1,1.79-2.45l3.6,2.62a14,14,0,0,1,.69-2.21,13.11,13.11,0,0,1,1.89-3.7,13.72,13.72,0,0,1,12.83-5.54A14,14,0,0,1,131,153.54a14,14,0,0,1,14.15,7.79,13.7,13.7,0,0,1-1.31,13.91Zm0,0"/><path class="cls-2" d="M53.9,155.37a7.45,7.45,0,0,1,14.41-3.54Zm14.81-1.92L54.3,157a7.45,7.45,0,0,0,14.41-3.54ZM77,138.14l-5.84-5.26a5.71,5.71,0,0,0-8.07.43l-.35.39a5.7,5.7,0,0,0,.42,8.07L69,147ZM84.13,153l.36-.39a5.74,5.74,0,0,0,1.3-5.19,5.68,5.68,0,0,0-1.73-2.88l-5.83-5.26-8,8.89,5.84,5.25a5.72,5.72,0,0,0,8.07-.42Zm0,0"/><path class="cls-2" d="M80.1,28.84A7.77,7.77,0,1,0,65,32.52l6.85,28.13A7.78,7.78,0,1,0,87,57Zm-3,3.25a1.29,1.29,0,1,1-1,1.55,1.29,1.29,0,0,1,1-1.55Zm-6.87-5.44a1.29,1.29,0,1,1,1.56,1,1.29,1.29,0,0,1-1.56-1Zm-1,4.47a1.29,1.29,0,0,1,1-1.56,1.29,1.29,0,1,1-1,1.56Zm.54,5.41a1.29,1.29,0,1,1-.61-2.5,1.29,1.29,0,0,1,.61,2.5Zm3.44-6.38a1.29,1.29,0,1,1,1.56.94,1.29,1.29,0,0,1-1.56-.94Zm-1,4.46A1.29,1.29,0,0,1,74.69,34a1.29,1.29,0,1,1-2.51.61Zm-1.29,13.2-.84-3.45a5.67,5.67,0,1,1,11-2.69l.84,3.46a5.67,5.67,0,0,1-11,2.68Zm4,9.59a1.29,1.29,0,0,1-1.56-.95,1.29,1.29,0,1,1,1.56.95Zm2.42-1.92a1.29,1.29,0,1,1,1.56,1,1.29,1.29,0,0,1-1.56-1Zm.54,5.41a1.29,1.29,0,1,1,.94-1.55,1.27,1.27,0,0,1-.94,1.55Zm3.44-6.38a1.29,1.29,0,1,1,1.56,1,1.29,1.29,0,0,1-1.56-1Zm-1,4.47a1.29,1.29,0,1,1,2.51-.61,1.29,1.29,0,0,1-2.51.61Zm.54,5.41a1.29,1.29,0,1,1,1-1.56,1.29,1.29,0,0,1-1,1.56Zm0,0M91.88,48.87A7.78,7.78,0,0,0,88.2,33.76L83.51,34.9,87.19,50Zm0,0-31.8-8.25a7.78,7.78,0,1,0,3.68,15.11l4.69-1.15L64.76,39.47Zm0,0"/><path class="cls-2" d="M36.48,52.14l.5-20.2L44.13,21l.78.51a1.2,1.2,0,0,0,1.67-.35l.07-.11a1.21,1.21,0,0,0-.35-1.67l-9.53-6.23a1.22,1.22,0,0,0-1.67.35l-.07.11a1.21,1.21,0,0,0,.35,1.67l.79.51L29,26.73l-18.3,8.56a3.71,3.71,0,0,0-2.15,3.13,4.11,4.11,0,0,0,1.91,3.73l19.81,13a4.13,4.13,0,0,0,4.19.25,3.68,3.68,0,0,0,2-3.22ZM30.29,28.2l6.92-10.59,4.85,3.17L35.14,31.37,35,38.54l-11.18-7.3Zm0,0"/><path class="cls-2" d="M78.81,93l-5.57-3.64,1.44-5.71a5.76,5.76,0,0,0-2.43-6.24l-6.89-4.5a5.77,5.77,0,0,0-6.69.28L54,76.76l-5.57-3.63a5.51,5.51,0,0,0-7.63,1.6L31.44,89.08A5.52,5.52,0,0,0,33,96.72L63.4,116.55A5.51,5.51,0,0,0,71,115l9.38-14.36A5.51,5.51,0,0,0,78.81,93ZM61.57,76.88a1.05,1.05,0,0,1,1.21,0l6.88,4.5a1,1,0,0,1,.44,1.13l-1,3.82-10.68-7Zm-.46,23.8a1.35,1.35,0,0,1-1.86.39l-2.34-1.53-1.52,2.34a1.35,1.35,0,0,1-1.87.39L50.09,100a1.34,1.34,0,0,1-.4-1.86l1.53-2.34L48.88,94.3a1.36,1.36,0,0,1-.39-1.87L50.74,89a1.34,1.34,0,0,1,1.86-.4l2.34,1.53,1.53-2.34a1.35,1.35,0,0,1,1.86-.39l3.44,2.25a1.35,1.35,0,0,1,.39,1.86l-1.53,2.34L63,95.38a1.34,1.34,0,0,1,.39,1.86Zm0,0"/><path class="cls-2" d="M143.85,25.24a13.33,13.33,0,0,1-3.06,3c-7.49,6.63-29.57,5.21-30.51,5.15a1.37,1.37,0,0,1-.8-.29,1.46,1.46,0,0,1-.52-.67,101.3,101.3,0,0,1-4-12.84,1.52,1.52,0,1,1,3-.72,100.89,100.89,0,0,0,3.55,11.56c6.7.34,22.2.09,27.45-4.56a10.91,10.91,0,0,0,2.49-2.44,10.7,10.7,0,0,0,1-10.84,10.92,10.92,0,0,0-12.33-5.83,1.58,1.58,0,0,1-1.89-1.38,10.94,10.94,0,0,0-9.34-9.94,10.71,10.71,0,0,0-10,4.33,10.51,10.51,0,0,0-1.5,3,11.47,11.47,0,0,0-.79,3.14l7.16,5.2,6.57-3.87a1.52,1.52,0,0,1,2.17,1.89l-3.76,9L123.83,16a1.51,1.51,0,0,1,1.49.17l4.44,3.23A1.51,1.51,0,0,1,128,21.82l-3.77-2.73-7.73,3.24a1.54,1.54,0,0,1-1.47-.17l-.18-.15a1.49,1.49,0,0,1-.34-1.66l3.41-8.17-3.48,2.06a1.53,1.53,0,0,1-1.67-.08L98.43,3.75a1.52,1.52,0,0,1,1.79-2.45l3.6,2.62a14,14,0,0,1,.69-2.21A13.11,13.11,0,0,1,106.4-2a13.72,13.72,0,0,1,12.83-5.54A14,14,0,0,1,131,3.54a14,14,0,0,1,14.15,7.79,13.7,13.7,0,0,1-1.31,13.91Zm0,0"/><path class="cls-2" d="M53.9,5.37A7.45,7.45,0,0,1,68.31,1.83ZM68.71,3.45,54.3,7a7.55,7.55,0,0,0,8.77,4.85,7.53,7.53,0,0,0,5.64-8.39ZM77-11.86l-5.84-5.26A5.68,5.68,0,0,0,67-18.58a5.65,5.65,0,0,0-4,1.89l-.35.39a5.72,5.72,0,0,0-1.31,5.19,5.72,5.72,0,0,0,1.73,2.88L69-3ZM84.13,3l.36-.39a5.74,5.74,0,0,0,1.3-5.19,5.68,5.68,0,0,0-1.73-2.88l-5.83-5.26-8,8.89,5.84,5.25A5.72,5.72,0,0,0,84.13,3Zm0,0"/><path class="cls-2" d="M142.76,63.92a7.49,7.49,0,0,0-8.5-6.32l-21.18,3.13a7.49,7.49,0,0,0,2.18,14.83l21.18-3.13a7.49,7.49,0,0,0,6.32-8.51Zm-6.64,6.25-10.59,1.56L124,61.42l10.59-1.57a5.22,5.22,0,0,1,1.53,10.32Zm0,0"/><path class="cls-2" d="M154.11,67.14a5,5,0,0,0,3-6.35l-4.83-13.32a5,5,0,1,0-9.33,3.37l4.83,13.33a5,5,0,0,0,6.36,3Zm-4.94-3.48L146.76,57l6.49-2.35,2.41,6.67a3.41,3.41,0,0,1-.12,2.64,3.45,3.45,0,0,1-6.37-.29Zm0,0"/><path class="cls-2" d="M169.27,81.84a6,6,0,0,0-2.36-4,6,6,0,0,0-4.48-1.13l-17.05,2.52a6,6,0,1,0,1.76,11.94l17.05-2.52a6,6,0,0,0,5.08-6.85Zm-5.35,5-8.52,1.26-1.23-8.3,8.53-1.26a4.19,4.19,0,0,1,4.76,3.53,4.21,4.21,0,0,1-3.54,4.77Zm0,0"/><path class="cls-2" d="M126.19,97.88c-.64-1.65-1.59-1.9-4-.44a3.32,3.32,0,0,1-3.69-.06l.15-.28a3.12,3.12,0,1,0-2.36-1.35l-.16.28a3.32,3.32,0,0,1-1.94-3.14c0-2.81-.69-3.51-2.43-3.21s-9.7,3.26-15.17-.53a4.39,4.39,0,0,0,3.12,4.44,4.41,4.41,0,0,0,4.06,3,3.68,3.68,0,0,0,3.58,2.18,3.6,3.6,0,0,0,3.32,2.12,3.65,3.65,0,0,0,1.8,1.74l-3.63,6.55-.31-.27s-1.7-1.52-3.42-3.25-3.34-3.69-3.41-4.3a.37.37,0,0,1,.16,0,3.88,3.88,0,0,1,1,.21,23.19,23.19,0,0,1,2.84,1.26,15.58,15.58,0,0,1,2.32,1.35,1.64,1.64,0,0,0,2-.19s.06,0,0-.09c.38-.82-.2-1.2-.65-1.58a5.77,5.77,0,0,0-1.44-.88c-1.87-.89-7.12-4.46-9.45-2a1.49,1.49,0,0,1-.15.2c-1.19,2.65,3.41,6.72,6.77,9.62a5.89,5.89,0,0,0-4.24,2.24c-1,1.49-.63,3.71,1.34,7-3.11.3-5.4,1-6.29,2.8-.62,1.56-.44,4.22,1.38,6.87h0s-.23-3.68.49-5.21c.37-.93,1.58-1.92,4.57-2.22l-3,5.39h0a.93.93,0,1,0,1.62.93l3-5.18c1.14,2.59.89,4.06.31,4.82-.94,1.4-4.23,3.08-4.23,3.08l0,0c3.2.21,5.58-1,6.6-2.34,1.14-1.7.52-4-.79-6.82,3.85,0,6-.81,6.72-2.46a6,6,0,0,0-.24-4.79c4.2,1.4,10.06,3.28,11.72.89a1.46,1.46,0,0,1,.1-.23c1-3.28-4.8-6-6.52-7.12a7.12,7.12,0,0,0-1.49-.79c-.56-.18-1.19-.49-1.71.26,0,0,0,.09,0,.09a1.63,1.63,0,0,0,.87,1.83,15.17,15.17,0,0,1,2.35,1.32,20.07,20.07,0,0,1,2.52,1.77,4,4,0,0,1,.69.74.41.41,0,0,1,.08.14c-.56.25-3.19-.14-5.45-.73s-4.53-1.28-4.55-1.29a.39.39,0,0,1-.14,0l3.76-6.42a3.64,3.64,0,0,0,2.43.68,3.62,3.62,0,0,0,3.52,1.77,3.67,3.67,0,0,0,3.7,2,4.43,4.43,0,0,0,4.66,2,4.38,4.38,0,0,0,5.41.4c-6.06-2.76-7.57-11.09-8.22-12.76Zm-23.06,15.55c.36-.54.93-2,4.18-1.47l-3,5.42c-.33-.62-.67-1.26-1-1.92a2,2,0,0,1-.15-2Zm5,4.79-1.88.08,3-5.12c1.91,2.37,1,3.57.7,4.14a1.94,1.94,0,0,1-1.81.9Zm0,0"/><path class="cls-2" d="M177.84,129.4c-3.62-3.64-6.59-3.13-9.26-2a11.83,11.83,0,0,1,10-3.86,1,1,0,0,0,1.12-.87,3.68,3.68,0,0,0-.77-3,2.37,2.37,0,0,0-1.46-.84c-4.22-.69-7.37,2.08-9.49,5.1a6.77,6.77,0,0,0-.25-3.81,4,4,0,0,0,2.5-5.76,8.1,8.1,0,0,1-1.61-5,1.07,1.07,0,0,0-.55-1,1.1,1.1,0,0,0-1.17.05c-1.88,1.3-4.18,3.16-4.81,4.9-1.25,3.45.65,6.42,3.74,7,1,1.16.57,3.57.57,3.59-.61-2-2.05-3.81-5.56-4.95-5.23-1.7-8.43-.91-12.43,6.09-4.71,8.24-2.13,17.46,1.86,19.91,1.38.85,3.5,1.37,4.93,2.25s2.86,2.54,4.24,3.39c4,2.45,13.38.59,18.61-7.33,4.43-6.73,3.69-9.94-.18-13.84Zm0,0"/><path class="cls-2" d="M4.11,67.14a4.91,4.91,0,0,0,2.8-2.56,5,5,0,0,0,.17-3.79L2.25,47.47a5,5,0,0,0-6.36-3,5,5,0,0,0-3,6.35l4.83,13.33a5,5,0,0,0,6.36,3ZM-.83,63.66-3.24,57l6.49-2.35,2.41,6.67A3.41,3.41,0,0,1,5.54,64a3.45,3.45,0,0,1-6.37-.29Zm0,0"/><path class="cls-2" d="M19.27,81.84a6,6,0,0,0-2.36-4,6,6,0,0,0-4.48-1.13l-17,2.52a6,6,0,0,0-5.09,6.86,6,6,0,0,0,6.85,5.08l17.05-2.52a6,6,0,0,0,5.08-6.85Zm-5.35,5L5.4,88.13l-1.23-8.3,8.53-1.26a4.19,4.19,0,0,1,4.76,3.53,4.21,4.21,0,0,1-3.54,4.77Zm0,0"/><path class="cls-2" d="M27.84,129.4c-3.62-3.64-6.59-3.13-9.26-2a11.83,11.83,0,0,1,10-3.86,1,1,0,0,0,1.12-.87,3.68,3.68,0,0,0-.77-3,2.37,2.37,0,0,0-1.46-.84c-4.22-.69-7.37,2.08-9.49,5.1a6.77,6.77,0,0,0-.25-3.81,4,4,0,0,0,2.5-5.76,8.1,8.1,0,0,1-1.61-5,1.07,1.07,0,0,0-.55-1,1.1,1.1,0,0,0-1.17.05c-1.88,1.3-4.18,3.16-4.81,4.9-1.25,3.45.65,6.42,3.74,7,1,1.16.57,3.57.57,3.59-.61-2-2.05-3.81-5.56-4.95C5.58,117.23,2.38,118-1.62,125c-4.71,8.24-2.13,17.46,1.86,19.91,1.38.85,3.5,1.37,4.93,2.25s2.86,2.54,4.24,3.39c4,2.45,13.38.59,18.61-7.33,4.43-6.73,3.69-9.94-.18-13.84Zm0,0"/><path class="cls-2" d="M177.84-20.6c-3.62-3.64-6.59-3.13-9.26-2a11.83,11.83,0,0,1,10-3.86,1,1,0,0,0,1.12-.87,3.68,3.68,0,0,0-.77-2.95,2.37,2.37,0,0,0-1.46-.84c-4.22-.69-7.37,2.08-9.49,5.1a6.77,6.77,0,0,0-.25-3.81,4,4,0,0,0,2.5-5.76,8.1,8.1,0,0,1-1.61-5,1.07,1.07,0,0,0-.55-1,1.1,1.1,0,0,0-1.17,0c-1.88,1.3-4.18,3.16-4.81,4.9-1.25,3.45.65,6.42,3.74,7,1,1.16.57,3.57.57,3.59-.61-2-2.05-3.81-5.56-4.95-5.23-1.7-8.43-.91-12.43,6.09-4.71,8.24-2.13,17.46,1.86,19.91,1.38.85,3.5,1.37,4.93,2.25S158-.28,159.41.57c4,2.45,13.38.59,18.61-7.33,4.43-6.73,3.69-9.94-.18-13.84Zm0,0"/><path class="cls-2" d="M27.84-20.6c-3.62-3.64-6.59-3.13-9.26-2a11.83,11.83,0,0,1,10-3.86,1,1,0,0,0,1.12-.87,3.68,3.68,0,0,0-.77-2.95,2.37,2.37,0,0,0-1.46-.84C23.22-31.82,20.07-29,18-26a6.77,6.77,0,0,0-.25-3.81,4,4,0,0,0,2.5-5.76,8.1,8.1,0,0,1-1.61-5,1.07,1.07,0,0,0-.55-1,1.1,1.1,0,0,0-1.17,0c-1.88,1.3-4.18,3.16-4.81,4.9-1.25,3.45.65,6.42,3.74,7,1,1.16.57,3.57.57,3.59-.61-2-2.05-3.81-5.56-4.95C5.58-32.77,2.38-32-1.62-25-6.33-16.74-3.75-7.52.24-5.07c1.38.85,3.5,1.37,4.93,2.25S8-.28,9.41.57C13.4,3,22.79,1.16,28-6.76c4.43-6.73,3.69-9.94-.18-13.84Zm0,0"/></pattern></defs><title>DrWhatJnr_Intro</title><g class="cls-3"><g id="Layer_1" data-name="Layer 1"><rect class="cls-4" width="736" height="426"/><rect class="cls-5" width="736" height="426"/><rect class="cls-6" x="622" y="226" width="43" height="287" transform="translate(25.86 780.77) rotate(-63.52)"/><rect class="cls-2" x="502" y="344" width="287" height="43" transform="translate(230.66 -249.45) rotate(26.48)"/><circle class="cls-4" cx="365.22" cy="209.08" r="164.95"/><path class="cls-7" d="M530.87,209.27a171.85,171.85,0,0,1-319.7,87.59,171.86,171.86,0,0,0,201.2-251A171.9,171.9,0,0,1,530.87,209.27Z"/><g class="cls-8"><path class="cls-4" d="M549.67,213.45c0,100.43-81.41,181.85-181.84,181.85A181.85,181.85,0,0,1,186,213.45C186,113,267.4,31.61,367.83,31.61A181.84,181.84,0,0,1,549.67,213.45ZM367.83,58.89A154.57,154.57,0,1,0,522.39,213.45,154.56,154.56,0,0,0,367.83,58.89Z"/><path class="cls-4" d="M537.16,160.09a171.63,171.63,0,0,1-12.23,29.6,157.73,157.73,0,0,1,1.78,23.76c0,87.6-71.28,158.89-158.88,158.89S208.94,301.05,208.94,213.45a158.27,158.27,0,0,1,2.89-30.2,173.77,173.77,0,0,1-11-30.09,177,177,0,0,0-10.54,60.29c0,97.9,79.64,177.53,177.54,177.53s177.53-79.63,177.53-177.53A177,177,0,0,0,537.16,160.09Z"/></g><path class="cls-2" d="M546.67,210.45c0,100.43-81.41,181.85-181.84,181.85A181.85,181.85,0,0,1,183,210.45C183,110,264.4,28.61,364.83,28.61A181.84,181.84,0,0,1,546.67,210.45ZM364.83,55.89A154.57,154.57,0,1,0,519.39,210.45,154.56,154.56,0,0,0,364.83,55.89Z"/><path class="cls-9" d="M534.16,157.09a171.63,171.63,0,0,1-12.23,29.6,157.73,157.73,0,0,1,1.78,23.76c0,87.6-71.28,158.89-158.88,158.89S205.94,298.05,205.94,210.45a158.27,158.27,0,0,1,2.89-30.2,173.77,173.77,0,0,1-11-30.09,177,177,0,0,0-10.54,60.29c0,97.9,79.64,177.53,177.54,177.53s177.53-79.63,177.53-177.53A177,177,0,0,0,534.16,157.09Z"/><rect class="cls-4" x="162" y="215" width="413" height="32" rx="7.28"/><path class="cls-2" d="M188.9,220.19c-3.94,0-7.79-.18-11.45-.53s-7.07-.75-10.56-1.21a5.51,5.51,0,0,1-4.77-5.45V132.15a5.51,5.51,0,0,1,4.77-5.46c1.17-.15,2.64-.33,4.43-.52s3.76-.37,5.85-.53,4.28-.29,6.41-.4,4.44-.18,6.57-.18c15.67,0,27.89,4.12,36.31,12.24s12.79,20.24,12.79,35.84c0,15.92-4.44,27.91-13.18,35.65C217.52,216.36,205,220.19,188.9,220.19Zm4.26-28.7a24.86,24.86,0,0,0,5.32-.84,9.93,9.93,0,0,0,4.39-2.46A13.2,13.2,0,0,0,206,183a31.17,31.17,0,0,0,1.33-10.06,30.69,30.69,0,0,0-1.38-10,14.7,14.7,0,0,0-3.18-5.49,10.51,10.51,0,0,0-4.29-2.61,20.15,20.15,0,0,0-5.29-.91Z"/><path class="cls-4" d="M190.15,130.56q21.4,0,32.5,10.7t11.1,31.88q0,21.51-11.33,31.53t-33.52,10c-3.77,0-7.41-.16-10.92-.5s-7-.74-10.36-1.19V132.15c1.13-.15,2.56-.32,4.3-.51s3.62-.36,5.66-.51,4.13-.29,6.29-.4,4.24-.17,6.28-.17M189.47,197h2.15a31.45,31.45,0,0,0,8.32-1.07,15.56,15.56,0,0,0,6.74-3.8,18.45,18.45,0,0,0,4.47-7.36,36.05,36.05,0,0,0,1.65-11.89A35.81,35.81,0,0,0,211.1,161a20.06,20.06,0,0,0-4.47-7.53,15.9,15.9,0,0,0-6.52-4,25.66,25.66,0,0,0-7.81-1.19c-1.51,0-2.6,0-3.28.06s-1.13,0-1.36,0v48.47a13.84,13.84,0,0,0,1.81.11m.68-77.47c-2.23,0-4.54.06-6.86.19s-4.38.25-6.52.41-4.19.34-6,.54-3.35.38-4.57.54a11,11,0,0,0-9.55,10.91V213a11,11,0,0,0,9.54,10.9c3.54.47,7.16.89,10.76,1.23,3.84.38,7.87.56,12,.56,17.5,0,31.23-4.3,40.81-12.78,10-8.83,15-22.21,15-39.77,0-17.15-4.87-30.54-14.47-39.8s-23-13.78-40.13-13.78Zm8.51,65V161.09l.19.18a9.23,9.23,0,0,1,1.89,3.45,24.88,24.88,0,0,1,1.06,8.19,25.11,25.11,0,0,1-1,8.23,8.3,8.3,0,0,1-1.72,3.09,4.23,4.23,0,0,1-.4.34Z"/><path class="cls-2" d="M247.84,197.61c-1.42,0-3-.06-4.6-.18a51.77,51.77,0,0,1-5.84-.82,5.5,5.5,0,0,1-4.46-5.4V133a5.49,5.49,0,0,1,4.8-5.45c3.6-.46,7.4-.85,11.3-1.16s7.74-.47,11.25-.47c10.45,0,18.26,2,23.86,6.25,5.92,4.46,9,11,9,18.84a26.36,26.36,0,0,1-1,7.71,25.08,25.08,0,0,1-2.48,5.72,20.72,20.72,0,0,1-2.3,3.14l11,21a5.51,5.51,0,0,1-3.8,8,50.82,50.82,0,0,1-5.66.76c-2,.17-4,.25-5.83.25-2.23,0-4.43-.08-6.53-.24a39.84,39.84,0,0,1-5.71-.81,5.55,5.55,0,0,1-3.72-3l-4.24-9v6.8a5.51,5.51,0,0,1-4.47,5.4,53.7,53.7,0,0,1-6,.82C250.71,197.55,249.17,197.61,247.84,197.61Z"/><path class="cls-4" d="M260.29,131.42q13.69,0,20.55,5.15T287.69,151a21,21,0,0,1-.79,6.11,19.76,19.76,0,0,1-1.92,4.47,13.38,13.38,0,0,1-2.38,3c-.83.76-1.51,1.36-2,1.82l12.91,24.68a44.35,44.35,0,0,1-5,.68c-1.85.15-3.64.23-5.38.23q-3.17,0-6.11-.23a32.74,32.74,0,0,1-4.87-.68L259.5,164.37l1.58-.91a14.13,14.13,0,0,0,5.44-4.81,10.81,10.81,0,0,0,1.47-5.49,6.73,6.73,0,0,0-1.75-4.81c-1.18-1.25-3-1.87-5.61-1.87a18.07,18.07,0,0,0-3.28.22v44.51a46.86,46.86,0,0,1-5.32.73c-1.59.11-3,.17-4.19.17s-2.68-.06-4.19-.17a46.79,46.79,0,0,1-5.21-.73V133q5.33-.67,11-1.13t10.81-.45m0-11c-3.66,0-7.58.16-11.68.48s-7.88.72-11.57,1.19a11,11,0,0,0-9.6,10.91v58.21a11,11,0,0,0,8.92,10.8,56.25,56.25,0,0,0,6.47.9c1.77.13,3.46.2,5,.2s3.1-.06,5-.2a56.29,56.29,0,0,0,6.61-.9,11,11,0,0,0,5.35-2.69,11,11,0,0,0,4.78,2.48,44.28,44.28,0,0,0,6.54.94c2.24.17,4.59.26,7,.26,2,0,4.13-.09,6.27-.26a57.16,57.16,0,0,0,6.3-.86,11,11,0,0,0,7.6-15.89l-9.35-17.87.51-.82a31.16,31.16,0,0,0,3.05-7,32.11,32.11,0,0,0,1.26-9.31c0-9.67-3.88-17.7-11.23-23.23-6.6-5-15.48-7.36-27.17-7.36Z"/><path class="cls-2" d="M382.76,219.52a52,52,0,0,1-6.89-.45c-2.32-.31-3.67-.52-4.51-.71a5.49,5.49,0,0,1-4.15-4.13L361.65,190l-5.93,24.31a5.49,5.49,0,0,1-4.14,4.06c-.81.19-2.07.39-4.22.7a50.39,50.39,0,0,1-13.13.06c-1.8-.24-3.28-.48-4.53-.73a5.51,5.51,0,0,1-4.27-4.12l-19.14-80.74a5.55,5.55,0,0,1,.76-4.29,5.48,5.48,0,0,1,3.63-2.39c2.28-.41,4.52-.7,6.66-.87s4-.24,5.63-.24,3.2.06,4.88.19a49.86,49.86,0,0,1,5.9.82,5.49,5.49,0,0,1,4.37,4.41l4.47,24.63c1.81-8.61,3.61-17,5.36-24.84a5.5,5.5,0,0,1,4.46-4.23c1.45-.24,3-.46,4.81-.66a51.67,51.67,0,0,1,5.72-.32,46.15,46.15,0,0,1,5.29.32c1.77.21,3.24.44,4.51.69a5.52,5.52,0,0,1,4.29,4.19l5.8,25.79,4.59-25.56a5.5,5.5,0,0,1,4.38-4.42,53.23,53.23,0,0,1,5.56-.82c1.5-.13,3.07-.19,4.65-.19s3.35.06,5.13.18a60.76,60.76,0,0,1,6.25.81,5.5,5.5,0,0,1,4.38,6.71L398.3,214.29a5.5,5.5,0,0,1-4.27,4.1c-1.26.25-2.81.49-4.74.74A51.07,51.07,0,0,1,382.76,219.52Z"/><path class="cls-4" d="M402,131.24c1.51,0,3.09.06,4.75.17a52.17,52.17,0,0,1,5.67.74L393,213c-1.13.22-2.59.45-4.36.68a48.91,48.91,0,0,1-12-.06c-2-.27-3.34-.47-4-.62l-10.76-46.88L350.37,213c-.68.15-1.94.35-3.79.62a42.68,42.68,0,0,1-5.94.4,43.41,43.41,0,0,1-5.67-.34c-1.66-.23-3.05-.46-4.19-.68l-19.13-80.74a60.59,60.59,0,0,1,6.11-.79c2-.15,3.7-.23,5.21-.23s2.92.06,4.47.17a45,45,0,0,1,5.27.74l9.4,51.74q2.82-12.45,5.66-26t5.55-25.76c1.36-.23,2.86-.44,4.53-.63a47.22,47.22,0,0,1,5.09-.28,41.39,41.39,0,0,1,4.65.28c1.58.19,2.94.4,4.07.63l11.78,52.31,9.4-52.31a46.85,46.85,0,0,1,5-.74c1.36-.11,2.75-.17,4.19-.17m0-11c-1.73,0-3.45.07-5.11.21a61.76,61.76,0,0,0-6.14.89,11,11,0,0,0-8.51,7.82,11,11,0,0,0-8.43-7.8c-1.41-.28-3-.53-4.93-.76a50.88,50.88,0,0,0-5.95-.36,57.82,57.82,0,0,0-6.33.35c-1.89.22-3.56.45-5.1.71a11,11,0,0,0-8.5,7,11,11,0,0,0-8.23-6.95,58,58,0,0,0-6.54-.9c-1.8-.13-3.57-.2-5.27-.2s-3.78.09-6.05.26-4.75.49-7.21.93a11,11,0,0,0-8.77,13.37l19.14,80.73a11,11,0,0,0,8.54,8.25c1.36.28,3,.53,4.87.79a52.06,52.06,0,0,0,7.15.45,52.78,52.78,0,0,0,7.49-.51c2.29-.33,3.68-.56,4.65-.78a11,11,0,0,0,8.28-8.13l.42-1.73.37,1.59a11,11,0,0,0,8.31,8.27c1,.23,2.48.46,5,.79a59.51,59.51,0,0,0,14.84.07c2.06-.27,3.74-.53,5.13-.81a11,11,0,0,0,8.53-8.21l19.48-80.85a11,11,0,0,0-8.76-13.4,64.07,64.07,0,0,0-6.85-.88c-1.9-.13-3.75-.2-5.5-.2Z"/><path class="cls-2" d="M454.83,219.63c-1.45,0-3.07-.09-4.83-.25s-3.56-.41-5.55-.72a5.51,5.51,0,0,1-4.64-5.44v-16h-5.75v16a5.51,5.51,0,0,1-4.67,5.44c-2.07.32-4,.56-5.63.72s-3.39.25-4.83.25-3.07-.09-4.82-.25-3.56-.41-5.55-.72a5.5,5.5,0,0,1-4.64-5.44V154.79a5.51,5.51,0,0,1,4.28-5.36,44.26,44.26,0,0,1,5.63-.91c1.8-.16,3.55-.25,5.21-.25s3.32.09,5.14.25a41.35,41.35,0,0,1,5.65.92,5.51,5.51,0,0,1,4.23,5.35v14.43h5.75V154.79a5.51,5.51,0,0,1,4.29-5.36,44,44,0,0,1,5.63-.91c1.79-.16,3.54-.25,5.21-.25s3.31.09,5.14.25a41.46,41.46,0,0,1,5.64.92,5.51,5.51,0,0,1,4.23,5.35v58.43a5.5,5.5,0,0,1-4.67,5.44c-2.06.32-4,.56-5.63.72S456.27,219.63,454.83,219.63Z"/><path class="cls-4" d="M454.94,153.77c1.43,0,3,.08,4.64.23a35.57,35.57,0,0,1,4.87.79v58.43c-2,.3-3.74.53-5.32.68s-3,.23-4.3.23-2.72-.08-4.31-.23-3.32-.38-5.21-.68V191.71H428.56v21.51c-2,.3-3.74.53-5.33.68s-3,.23-4.3.23-2.72-.08-4.3-.23-3.33-.38-5.21-.68V154.79a39.28,39.28,0,0,1,4.92-.79c1.63-.15,3.19-.23,4.7-.23s3,.08,4.65.23a35.57,35.57,0,0,1,4.87.79v19.93h16.75V154.79a39.14,39.14,0,0,1,4.93-.79c1.62-.15,3.19-.23,4.7-.23m0-11c-1.84,0-3.76.1-5.72.28a50.06,50.06,0,0,0-6.34,1,10.94,10.94,0,0,0-5.95,3.6,11,11,0,0,0-5.83-3.58,46.56,46.56,0,0,0-6.41-1c-2-.18-3.89-.28-5.65-.28s-3.76.1-5.71.28a49.92,49.92,0,0,0-6.35,1,11,11,0,0,0-8.56,10.72v58.43a11,11,0,0,0,9.27,10.87c2.1.33,4.08.59,5.89.76s3.73.28,5.35.28,3.41-.09,5.34-.28,3.78-.42,6-.75a11,11,0,0,0,6.71-3.75,11,11,0,0,0,6.66,3.74c2.1.33,4.08.59,5.88.76,2,.19,3.72.28,5.36.28s3.41-.09,5.34-.28c1.78-.17,3.78-.42,5.94-.75a11,11,0,0,0,9.34-10.88V154.79a11,11,0,0,0-8.46-10.7,46.31,46.31,0,0,0-6.41-1c-2-.18-3.89-.28-5.64-.28Z"/><path class="cls-2" d="M494.62,220.08a56.39,56.39,0,0,1-12-1.2,29.55,29.55,0,0,1-10.34-4.27,21.86,21.86,0,0,1-7.32-8.36,26.41,26.41,0,0,1-2.57-12.05A21.82,21.82,0,0,1,465.68,182a23.53,23.53,0,0,1,6.3-6.47,5.33,5.33,0,0,1-1.47-1.75c-.75-1.42-1.36-2.65-1.89-3.78a22.83,22.83,0,0,1-1.49-4.25,31.79,31.79,0,0,1-.69-4.15c-.13-1.34-.19-2.83-.19-4.55a5.5,5.5,0,0,1,3.76-5.22,78.36,78.36,0,0,1,11.64-2.92,64.82,64.82,0,0,1,10.59-1,42.88,42.88,0,0,1,12.21,1.64,26.82,26.82,0,0,1,10.17,5.5,25,25,0,0,1,6.63,9.64,35.23,35.23,0,0,1,2.2,12.95v33.17a5.51,5.51,0,0,1-4,5.29c-3,.86-6.64,1.74-10.85,2.6A70.47,70.47,0,0,1,494.62,220.08Zm-4.56-25.87a1.1,1.1,0,0,0,.28.17,6.1,6.1,0,0,0,1.75.48,20,20,0,0,0,2.53.18h.28v-2.12h-1a7.16,7.16,0,0,0-3.77.86l-.13.09A2.87,2.87,0,0,0,490.06,194.21Z"/><path class="cls-4" d="M492.24,153.44a37.41,37.41,0,0,1,10.65,1.41,21.25,21.25,0,0,1,8.09,4.36,19.24,19.24,0,0,1,5.16,7.53A29.89,29.89,0,0,1,518,177.67v33.18q-4.31,1.25-10.42,2.49a64.64,64.64,0,0,1-12.91,1.24,51.11,51.11,0,0,1-10.81-1.07,24,24,0,0,1-8.44-3.46,16.38,16.38,0,0,1-5.49-6.28,21,21,0,0,1-2-9.57,16.34,16.34,0,0,1,2.38-9.17,17.88,17.88,0,0,1,6.11-5.78,26.26,26.26,0,0,1,8.27-3,48.31,48.31,0,0,1,8.83-.85h6.91a6.08,6.08,0,0,0-1.14-3.39,6.76,6.76,0,0,0-2.6-2.1,12.8,12.8,0,0,0-3.51-1,27.15,27.15,0,0,0-4-.28,38.64,38.64,0,0,0-6.35.62,47.11,47.11,0,0,0-7.47,2c-.68-1.28-1.26-2.45-1.75-3.51a16.94,16.94,0,0,1-1.14-3.22,24.86,24.86,0,0,1-.56-3.4,40.06,40.06,0,0,1-.17-4,72.49,72.49,0,0,1,10.81-2.72,59.25,59.25,0,0,1,9.68-.9m2.38,47.1a36.47,36.47,0,0,0,5.78-.68V187.41h-6.46a12.39,12.39,0,0,0-6.68,1.69,5.34,5.34,0,0,0-2.72,4.76,5.65,5.65,0,0,0,1,3.57,6.53,6.53,0,0,0,2.55,2,11.78,11.78,0,0,0,3.28.9,23.9,23.9,0,0,0,3.23.23m-2.38-58.1a70.22,70.22,0,0,0-11.5,1.05,84.28,84.28,0,0,0-12.47,3.13,11,11,0,0,0-7.52,10.44c0,1.89.07,3.56.22,5.08a35.46,35.46,0,0,0,.82,4.93,28.25,28.25,0,0,0,1.85,5.27c.32.68.66,1.4,1.05,2.17a29.13,29.13,0,0,0-3.61,4.48,27.19,27.19,0,0,0-4.18,15.21,31.81,31.81,0,0,0,3.17,14.54,27.38,27.38,0,0,0,9.13,10.42,34.9,34.9,0,0,0,12.26,5.09,62.1,62.1,0,0,0,13.16,1.33,76.14,76.14,0,0,0,15.1-1.46c4.42-.9,8.11-1.79,11.29-2.71A11,11,0,0,0,529,210.85V177.67a40.77,40.77,0,0,0-2.58-15A30.25,30.25,0,0,0,518.26,151,32.27,32.27,0,0,0,506,144.31a48.2,48.2,0,0,0-13.79-1.87Z"/><path class="cls-2" d="M547.75,219.63c-1.44,0-3.06-.09-4.82-.25s-3.56-.41-5.55-.72a5.51,5.51,0,0,1-4.64-5.44v-37H521.48a5.5,5.5,0,0,1-5.33-4.16,31.41,31.41,0,0,1-.88-5.12c-.13-1.47-.19-2.91-.19-4.26s.06-2.77.19-4.22a31.27,31.27,0,0,1,.88-5,5.5,5.5,0,0,1,5.33-4.17h52.65a5.5,5.5,0,0,1,5.34,4.17,32.82,32.82,0,0,1,.88,5c.13,1.44.19,2.86.19,4.22s-.06,2.79-.19,4.26a33.13,33.13,0,0,1-.88,5.12,5.5,5.5,0,0,1-5.34,4.16H562.88v37a5.51,5.51,0,0,1-4.67,5.44c-2.07.32-4,.56-5.63.72S549.19,219.63,547.75,219.63Z"/><path class="cls-4" d="M574.14,154.79a27.81,27.81,0,0,1,.73,4.19c.11,1.29.17,2.53.17,3.74s-.06,2.47-.17,3.79a27.46,27.46,0,0,1-.73,4.25H557.38v42.46c-2,.3-3.74.53-5.33.68s-3,.23-4.3.23-2.72-.08-4.3-.23-3.32-.38-5.21-.68V170.76H521.48a26.31,26.31,0,0,1-.73-4.25c-.12-1.32-.17-2.58-.17-3.79s0-2.45.17-3.74a26.6,26.6,0,0,1,.73-4.19h52.66m0-11H521.48a11,11,0,0,0-10.67,8.33,38.47,38.47,0,0,0-1,5.9c-.14,1.59-.21,3.18-.21,4.7s.07,3.11.21,4.74a37.82,37.82,0,0,0,1,6,11,11,0,0,0,10.67,8.32h5.76v31.46a11,11,0,0,0,9.27,10.87c2.11.33,4.09.59,5.89.76,2,.19,3.71.28,5.35.28s3.42-.09,5.34-.28,3.79-.42,5.95-.75a11,11,0,0,0,9.34-10.88V181.76h5.76a11,11,0,0,0,10.67-8.33,37.74,37.74,0,0,0,1-6c.14-1.61.21-3.2.21-4.72s-.07-3.11-.21-4.71a38.86,38.86,0,0,0-1-5.88,11,11,0,0,0-10.67-8.34Z"/><rect class="cls-2" x="233.56" y="195.19" width="66.04" height="20.44" rx="5.5"/><path class="cls-4" d="M294.1,200.69v9.44h-55v-9.44h55m0-11h-55a11,11,0,0,0-11,11v9.44a11,11,0,0,0,11,11h55a11,11,0,0,0,11-11v-9.44a11,11,0,0,0-11-11Z"/><path class="cls-2" d="M188.86,216.72c-3.8,0-7.53-.17-11.07-.51s-7-.74-10.41-1.2a1.49,1.49,0,0,1-1.3-1.48V132.68a1.49,1.49,0,0,1,1.3-1.49c1.14-.15,2.58-.32,4.33-.52s3.66-.36,5.72-.51,4.2-.29,6.32-.4,4.29-.17,6.36-.17c14.6,0,25.88,3.74,33.54,11.12s11.55,18.48,11.55,33c0,14.72-4,25.71-11.83,32.66S204,216.72,188.86,216.72Zm2.72-20.66a29.67,29.67,0,0,0,7.92-1,14.08,14.08,0,0,0,6.1-3.43,17.17,17.17,0,0,0,4.1-6.78,35,35,0,0,0,1.56-11.39,34.35,34.35,0,0,0-1.62-11.38,18.51,18.51,0,0,0-4.12-7,14.39,14.39,0,0,0-5.9-3.59,24,24,0,0,0-7.36-1.12c-1.42,0-2.48,0-3.14,0v45.64Z"/><path class="cls-10" d="M190.11,131.09q21.4,0,32.5,10.7t11.09,31.88q0,21.51-11.32,31.53t-33.52,10q-5.66,0-10.92-.51c-3.51-.34-7-.73-10.36-1.18V132.68c1.13-.16,2.56-.32,4.3-.51s3.62-.36,5.66-.51,4.13-.29,6.28-.4,4.25-.17,6.29-.17m-.68,66.47h2.15a31.09,31.09,0,0,0,8.32-1.08,15.44,15.44,0,0,0,6.74-3.79,18.45,18.45,0,0,0,4.47-7.36,36.09,36.09,0,0,0,1.65-11.89,35.76,35.76,0,0,0-1.7-11.89,20.07,20.07,0,0,0-4.48-7.53,15.86,15.86,0,0,0-6.51-4,25.35,25.35,0,0,0-7.81-1.19c-1.51,0-2.6,0-3.28,0s-1.14.06-1.36.06v48.47a13.73,13.73,0,0,0,1.81.11m.68-69.47c-2.09,0-4.26.06-6.44.17s-4.27.25-6.35.4-4,.33-5.76.52-3.24.37-4.38.52a3,3,0,0,0-2.6,3v80.85a3,3,0,0,0,2.6,3c3.44.46,7,.86,10.47,1.2s7.36.52,11.21.52c15.48,0,27.43-3.62,35.51-10.77s12.33-18.61,12.33-33.78c0-14.9-4-26.35-12-34s-19.58-11.54-34.58-11.54Zm.51,23.79h1.64a22.53,22.53,0,0,1,6.9,1,12.77,12.77,0,0,1,5.3,3.22,17.05,17.05,0,0,1,3.77,6.42,33,33,0,0,1,1.53,10.88,33.4,33.4,0,0,1-1.48,10.89,15.77,15.77,0,0,1-3.72,6.2,12.47,12.47,0,0,1-5.45,3.06,28.44,28.44,0,0,1-7.53,1h-1V151.88Z"/><path class="cls-2" d="M247.79,194.14c-1.3,0-2.75-.06-4.3-.17a48.94,48.94,0,0,1-5.38-.76,1.51,1.51,0,0,1-1.21-1.48v-58.2a1.51,1.51,0,0,1,1.31-1.49c3.53-.45,7.27-.83,11.11-1.14s7.53-.45,10.93-.45c9.42,0,16.64,1.83,21.45,5.45s7.45,9,7.45,15.64a22.66,22.66,0,0,1-.86,6.55,21.16,21.16,0,0,1-2.07,4.81,14.81,14.81,0,0,1-2.65,3.33l-1.17,1.06,12.36,23.64a1.5,1.5,0,0,1-1,2.16,47.31,47.31,0,0,1-5.21.71c-1.89.15-3.74.23-5.5.23-2.13,0-4.23-.08-6.23-.23a34.62,34.62,0,0,1-5.1-.72,1.49,1.49,0,0,1-1-.82L258.81,167v24.69a1.52,1.52,0,0,1-1.22,1.48,48.49,48.49,0,0,1-5.5.76C250.47,194.08,249,194.14,247.79,194.14Zm11-30.6,1.49-.85a12.86,12.86,0,0,0,4.88-4.26,9.28,9.28,0,0,0,1.27-4.74,5.27,5.27,0,0,0-1.35-3.79c-.87-.92-2.39-1.39-4.51-1.39-.68,0-1.28,0-1.78.05Z"/><path class="cls-10" d="M260.25,132q13.69,0,20.55,5.15t6.85,14.44a21,21,0,0,1-.79,6.11,19.76,19.76,0,0,1-1.92,4.47,13.38,13.38,0,0,1-2.38,3c-.83.76-1.51,1.36-2,1.82l12.91,24.68a44.35,44.35,0,0,1-5,.68c-1.85.15-3.64.23-5.38.23q-3.17,0-6.11-.23a32.74,32.74,0,0,1-4.87-.68L259.46,164.9,261,164a14.2,14.2,0,0,0,5.44-4.81,10.81,10.81,0,0,0,1.47-5.49,6.8,6.8,0,0,0-1.75-4.82c-1.18-1.24-3-1.86-5.61-1.86a18,18,0,0,0-3.28.22v44.5a44.75,44.75,0,0,1-5.33.74c-1.58.11-3,.17-4.19.17s-2.68-.06-4.19-.17a44.92,44.92,0,0,1-5.2-.74v-58.2q5.31-.67,11-1.13t10.81-.45m0-3c-3.45,0-7.16.15-11.05.46s-7.63.69-11.18,1.15a3,3,0,0,0-2.62,3v58.2a3,3,0,0,0,2.43,3,49.23,49.23,0,0,0,5.55.78c1.58.12,3.07.18,4.41.18s2.76-.06,4.41-.18a48.88,48.88,0,0,0,5.67-.78,3,3,0,0,0,2.44-3v-18l9,19.15a3,3,0,0,0,2,1.64,35,35,0,0,0,5.32.75c2,.16,4.18.24,6.35.24,1.8,0,3.69-.08,5.62-.24a47.73,47.73,0,0,0,5.38-.73,3,3,0,0,0,2.12-1.64,3,3,0,0,0,0-2.69l-11.82-22.61.3-.28a16.21,16.21,0,0,0,2.93-3.66,23,23,0,0,0,2.23-5.16,24.19,24.19,0,0,0,.92-7c0-7.16-2.7-12.82-8-16.84C277.53,130.88,270,129,260.25,129Zm.06,21.06h.28c1.16,0,2.7.16,3.42.92a3.71,3.71,0,0,1,.94,2.76,7.78,7.78,0,0,1-1.07,4,10.49,10.49,0,0,1-3.57,3.26V150Z"/><path class="cls-2" d="M382.72,216a49.18,49.18,0,0,1-6.37-.4c-2.12-.29-3.44-.49-4.15-.65a1.51,1.51,0,0,1-1.14-1.13l-9.34-40.7-9.93,40.72a1.52,1.52,0,0,1-1.13,1.11c-.7.16-1.94.36-3.91.64a47.78,47.78,0,0,1-12,.06c-1.69-.23-3.13-.46-4.28-.69a1.52,1.52,0,0,1-1.17-1.13l-19.13-80.73a1.46,1.46,0,0,1,.2-1.17,1.5,1.5,0,0,1,1-.66c2.15-.38,4.26-.65,6.26-.81s3.79-.23,5.33-.23,3,.06,4.58.17a50.63,50.63,0,0,1,5.44.76,1.5,1.5,0,0,1,1.19,1.21l8.08,44.47c1.35-6.09,2.7-12.37,4-18.75,1.86-8.88,3.72-17.56,5.55-25.78A1.49,1.49,0,0,1,353,131.2c1.37-.23,2.92-.45,4.61-.64a48.1,48.1,0,0,1,5.26-.29,42.34,42.34,0,0,1,4.82.29c1.63.2,3,.41,4.19.64a1.5,1.5,0,0,1,1.17,1.15l10.15,45.08,8.09-45a1.5,1.5,0,0,1,1.19-1.21,49.82,49.82,0,0,1,5.14-.75c1.39-.12,2.85-.18,4.32-.18s3.17.06,4.86.17a55,55,0,0,1,5.82.76,1.53,1.53,0,0,1,1,.65,1.49,1.49,0,0,1,.2,1.18l-19.47,80.85A1.52,1.52,0,0,1,393.2,215c-1.16.23-2.62.46-4.46.69A46.82,46.82,0,0,1,382.72,216Z"/><path class="cls-10" d="M402,131.77c1.51,0,3.09.06,4.75.17a51.7,51.7,0,0,1,5.66.74l-19.47,80.85c-1.13.22-2.59.45-4.36.67a45.66,45.66,0,0,1-5.83.34,47.75,47.75,0,0,1-6.17-.39c-2-.27-3.34-.47-4-.62l-10.76-46.88-11.44,46.88c-.68.15-1.94.35-3.79.62a42.78,42.78,0,0,1-6,.39,41.68,41.68,0,0,1-5.66-.34c-1.66-.22-3.06-.45-4.19-.67l-19.13-80.74a60.59,60.59,0,0,1,6.11-.79c2-.15,3.7-.23,5.21-.23s2.92.06,4.47.17a45,45,0,0,1,5.27.74l9.4,51.74q2.82-12.45,5.66-26t5.55-25.76c1.36-.23,2.86-.44,4.53-.63a47.08,47.08,0,0,1,5.09-.28,41.08,41.08,0,0,1,4.64.28q2.38.28,4.08.63L383.4,185l9.39-52.31a47.36,47.36,0,0,1,5-.74c1.36-.11,2.75-.17,4.19-.17m0-3c-1.51,0-3,.06-4.44.18a50.45,50.45,0,0,0-5.3.78,3,3,0,0,0-2.39,2.42l-6.77,37.71L374.55,132a3,3,0,0,0-2.34-2.29c-1.21-.24-2.62-.45-4.31-.66a43.21,43.21,0,0,0-5-.3,48.73,48.73,0,0,0-5.43.3c-1.72.2-3.3.42-4.69.65a3,3,0,0,0-2.43,2.3c-1.82,8.2-3.69,16.88-5.56,25.8q-1.21,5.79-2.43,11.43l-6.74-37.11a3,3,0,0,0-2.39-2.41,48.58,48.58,0,0,0-5.61-.78c-1.61-.12-3.19-.18-4.69-.18s-3.4.08-5.44.23a63.41,63.41,0,0,0-6.41.84,3,3,0,0,0-2.39,3.64l19.13,80.74a3,3,0,0,0,2.33,2.25c1.2.24,2.63.47,4.38.71a49.78,49.78,0,0,0,12.43-.06c2-.29,3.28-.5,4-.67a3,3,0,0,0,2.26-2.21l8.43-34.57,7.92,34.53a3,3,0,0,0,2.27,2.25c.77.17,2.09.38,4.28.67a50.6,50.6,0,0,0,6.57.42,49.72,49.72,0,0,0,6.21-.36c1.87-.24,3.36-.47,4.57-.71a3,3,0,0,0,2.33-2.24l19.47-80.85a3,3,0,0,0-2.39-3.66,57.79,57.79,0,0,0-6-.77c-1.72-.12-3.39-.18-5-.18Z"/><path class="cls-2" d="M454.79,216.16c-1.32,0-2.82-.08-4.45-.24s-3.39-.38-5.3-.69a1.5,1.5,0,0,1-1.27-1.48v-20H430v20a1.5,1.5,0,0,1-1.27,1.48c-2,.31-3.81.54-5.41.69s-3.12.24-4.44.24-2.81-.08-4.45-.24-3.39-.38-5.3-.69a1.49,1.49,0,0,1-1.26-1.48V155.32a1.49,1.49,0,0,1,1.16-1.46,38.37,38.37,0,0,1,5.12-.82c1.67-.16,3.3-.24,4.84-.24s3.07.08,4.78.24a35.17,35.17,0,0,1,5.08.82,1.5,1.5,0,0,1,1.15,1.46v18.43h13.76V155.32a1.5,1.5,0,0,1,1.17-1.46,38.37,38.37,0,0,1,5.12-.82c1.67-.16,3.29-.24,4.84-.24s3.07.08,4.78.24a35.17,35.17,0,0,1,5.08.82,1.51,1.51,0,0,1,1.15,1.46v58.43a1.5,1.5,0,0,1-1.27,1.48c-2,.31-3.81.54-5.41.69S456.1,216.16,454.79,216.16Z"/><path class="cls-10" d="M454.9,154.3c1.43,0,3,.08,4.64.23a35.57,35.57,0,0,1,4.87.79v58.43c-2,.3-3.74.53-5.32.68s-3,.23-4.31.23-2.71-.08-4.3-.23-3.32-.38-5.21-.68V192.24H428.51v21.51q-2.94.45-5.32.68c-1.58.15-3,.23-4.3.23s-2.72-.08-4.3-.23-3.33-.38-5.21-.68V155.32a39.28,39.28,0,0,1,4.92-.79c1.62-.15,3.19-.23,4.7-.23s3,.08,4.64.23a35.32,35.32,0,0,1,4.87.79v19.93h16.76V155.32a39.14,39.14,0,0,1,4.93-.79c1.62-.15,3.19-.23,4.7-.23m0-3c-1.59,0-3.27.08-5,.24a41.31,41.31,0,0,0-5.31.86,3,3,0,0,0-2.34,2.92v16.93H431.51V155.32a3,3,0,0,0-2.3-2.92,39.7,39.7,0,0,0-5.29-.86c-1.75-.16-3.41-.24-4.92-.24s-3.26.08-5,.24a41.18,41.18,0,0,0-5.32.86,3,3,0,0,0-2.33,2.92v58.43a3,3,0,0,0,2.53,3c1.94.31,3.75.55,5.39.71s3.22.24,4.59.24,2.91-.08,4.59-.24,3.47-.39,5.49-.7a3,3,0,0,0,2.54-3V195.24h10.76v18.51a3,3,0,0,0,2.53,3c1.94.31,3.76.55,5.39.71s3.23.24,4.59.24,2.91-.08,4.59-.24,3.48-.39,5.49-.7a3,3,0,0,0,2.55-3V155.32a3,3,0,0,0-2.31-2.92,39.7,39.7,0,0,0-5.29-.86c-1.75-.16-3.4-.24-4.91-.24Z"/><path class="cls-2" d="M494.58,216.61a52.21,52.21,0,0,1-11.13-1.11,25.45,25.45,0,0,1-9-3.68,17.9,17.9,0,0,1-6-6.85,22.55,22.55,0,0,1-2.14-10.24,18,18,0,0,1,2.62-10,19.51,19.51,0,0,1,6.62-6.25,27.66,27.66,0,0,1,8.74-3.17,49.61,49.61,0,0,1,9.11-.88h5.11a3.92,3.92,0,0,0-.54-1,5.23,5.23,0,0,0-2-1.64,11.25,11.25,0,0,0-3.09-.9,27,27,0,0,0-3.75-.26,36.63,36.63,0,0,0-6.08.6,43.89,43.89,0,0,0-7.23,1.92,1.69,1.69,0,0,1-.5.08,1.5,1.5,0,0,1-1.33-.8c-.69-1.31-1.29-2.52-1.79-3.58a19,19,0,0,1-1.23-3.51,26.76,26.76,0,0,1-.6-3.6c-.12-1.21-.17-2.57-.17-4.16a1.51,1.51,0,0,1,1-1.43,75.25,75.25,0,0,1,11-2.77,61.37,61.37,0,0,1,9.93-.93,38.92,38.92,0,0,1,11.07,1.48,22.83,22.83,0,0,1,8.66,4.67,20.86,20.86,0,0,1,5.56,8.11,31.36,31.36,0,0,1,1.92,11.48v33.17a1.5,1.5,0,0,1-1.09,1.44c-2.89.84-6.43,1.69-10.53,2.52A66.15,66.15,0,0,1,494.58,216.61Zm-.68-27.18A11.06,11.06,0,0,0,488,190.9a3.85,3.85,0,0,0-2,3.49,4.26,4.26,0,0,0,.7,2.64,5.09,5.09,0,0,0,2,1.54,10.7,10.7,0,0,0,2.86.79,19.67,19.67,0,0,0,5.81,0c.58-.06,1.08-.13,1.5-.2v-9.72Z"/><path class="cls-10" d="M492.2,154a37.5,37.5,0,0,1,10.65,1.42,21.18,21.18,0,0,1,8.09,4.36,19.12,19.12,0,0,1,5.15,7.53,29.67,29.67,0,0,1,1.82,10.93v33.17c-2.87.84-6.35,1.66-10.42,2.49a63.9,63.9,0,0,1-12.91,1.25A50.44,50.44,0,0,1,483.77,214a23.78,23.78,0,0,1-8.44-3.45,16.38,16.38,0,0,1-5.49-6.28,21,21,0,0,1-2-9.57,16.42,16.42,0,0,1,2.37-9.17,18,18,0,0,1,6.12-5.78,26.17,26.17,0,0,1,8.27-3,47.44,47.44,0,0,1,8.83-.85h6.9a6.06,6.06,0,0,0-1.13-3.4,6.83,6.83,0,0,0-2.6-2.09,12.8,12.8,0,0,0-3.51-1,27.19,27.19,0,0,0-4-.28,38.63,38.63,0,0,0-6.34.62,46.83,46.83,0,0,0-7.47,2c-.68-1.28-1.27-2.45-1.76-3.51a16.75,16.75,0,0,1-1.13-3.23,24.46,24.46,0,0,1-.56-3.39,40.06,40.06,0,0,1-.17-4,71,71,0,0,1,10.81-2.72,59.34,59.34,0,0,1,9.68-.91m2.38,47.11a25.12,25.12,0,0,0,2.94-.23,24.48,24.48,0,0,0,2.83-.45V187.93H493.9a12.39,12.39,0,0,0-6.68,1.7,5.34,5.34,0,0,0-2.72,4.76,5.65,5.65,0,0,0,1,3.57,6.72,6.72,0,0,0,2.55,2,11.78,11.78,0,0,0,3.28.9,23.9,23.9,0,0,0,3.23.23M492.2,151a62.09,62.09,0,0,0-10.18.95,75.75,75.75,0,0,0-11.26,2.83,3,3,0,0,0-2.05,2.85c0,1.63.06,3,.18,4.31a27,27,0,0,0,.64,3.81,20.07,20.07,0,0,0,1.32,3.79c.51,1.08,1.1,2.28,1.83,3.64a3,3,0,0,0,2.65,1.6,2.92,2.92,0,0,0,1-.17,42.83,42.83,0,0,1,7-1.85,34.84,34.84,0,0,1,5.83-.58,24,24,0,0,1,3.53.25,9.86,9.86,0,0,1,2.14.54h-1.36a51,51,0,0,0-9.39.9,29.32,29.32,0,0,0-9.21,3.35,20.94,20.94,0,0,0-7.12,6.73,19.34,19.34,0,0,0-2.87,10.82,24,24,0,0,0,2.3,10.92,19.51,19.51,0,0,0,6.49,7.42,27.15,27.15,0,0,0,9.48,3.9,53.93,53.93,0,0,0,11.45,1.14,67.68,67.68,0,0,0,13.51-1.31c4.14-.84,7.72-1.7,10.65-2.54a3,3,0,0,0,2.17-2.89V178.2a32.62,32.62,0,0,0-2-12,22.28,22.28,0,0,0-6-8.68,24.43,24.43,0,0,0-9.23-5A40.45,40.45,0,0,0,492.2,151Zm2.38,47.11a22.79,22.79,0,0,1-2.84-.2,8.77,8.77,0,0,1-2.45-.67,3.7,3.7,0,0,1-1.41-1.09,3.05,3.05,0,0,1-.38-1.72,2.31,2.31,0,0,1,1.31-2.21,9.45,9.45,0,0,1,5.09-1.25h3.45v6.91l-.18,0a24,24,0,0,1-2.59.21Z"/><path class="cls-2" d="M547.71,216.16c-1.32,0-2.81-.08-4.44-.24s-3.39-.38-5.31-.69a1.49,1.49,0,0,1-1.26-1.48v-41H521.44a1.49,1.49,0,0,1-1.45-1.14,28.34,28.34,0,0,1-.78-4.48c-.12-1.35-.18-2.67-.18-3.92s.06-2.55.18-3.87A28.47,28.47,0,0,1,520,155a1.49,1.49,0,0,1,1.45-1.14h52.65a1.51,1.51,0,0,1,1.46,1.14,27.43,27.43,0,0,1,.77,4.42c.12,1.32.18,2.62.18,3.87s-.06,2.57-.18,3.92a27.16,27.16,0,0,1-.77,4.48,1.51,1.51,0,0,1-1.46,1.14H558.84v41a1.5,1.5,0,0,1-1.28,1.48c-2,.31-3.81.54-5.4.69S549,216.16,547.71,216.16Z"/><path class="cls-10" d="M574.09,155.32a26.7,26.7,0,0,1,.74,4.19c.11,1.29.17,2.53.17,3.74s-.06,2.47-.17,3.79a26.58,26.58,0,0,1-.74,4.25H557.34v42.46c-2,.3-3.74.53-5.33.68s-3,.23-4.3.23-2.72-.08-4.3-.23-3.32-.38-5.21-.68V171.29H521.44a27.75,27.75,0,0,1-.74-4.25c-.11-1.32-.17-2.58-.17-3.79s.06-2.45.17-3.74a27.91,27.91,0,0,1,.74-4.19h52.65m0-3H521.44a3,3,0,0,0-2.91,2.27,29.86,29.86,0,0,0-.81,4.66c-.12,1.36-.19,2.71-.19,4s.07,2.65.19,4.05a29.75,29.75,0,0,0,.81,4.72,3,3,0,0,0,2.91,2.27H535.2v39.46a3,3,0,0,0,2.53,3c1.94.31,3.75.55,5.39.71s3.22.24,4.59.24,2.91-.08,4.59-.24,3.47-.39,5.49-.7a3,3,0,0,0,2.55-3V174.29h13.75A3,3,0,0,0,577,172a30.22,30.22,0,0,0,.82-4.72c.12-1.4.18-2.76.18-4.05s-.06-2.64-.18-4a30.57,30.57,0,0,0-.82-4.66,3,3,0,0,0-2.91-2.27Z"/><rect class="cls-2" x="237.52" y="199.72" width="58.04" height="12.44" rx="1.5"/><path class="cls-10" d="M294.06,201.22v9.44H239v-9.44h55m0-3H239a3,3,0,0,0-3,3v9.44a3,3,0,0,0,3,3h55a3,3,0,0,0,3-3v-9.44a3,3,0,0,0-3-3Z"/><rect class="cls-10" x="168" y="227" width="112" height="6.5"/><rect class="cls-10" x="168" y="236.75" width="112" height="3.25"/><rect class="cls-10" x="446" y="229" width="123" height="7.5"/><rect class="cls-10" x="438" y="239.75" width="131" height="3.25"/><path class="cls-10" d="M286.32,309.43c-11.8,0-22.21-10.44-22.74-22.8a45,45,0,0,1,1.53-13.87c.54-2.09,2.46-4.21,6.28-4.21a13.06,13.06,0,0,1,10.69,6.23c2.23,3.46,2.85,6.32,1.87,8.51a4.86,4.86,0,0,1-3.06,2.71c-.05.94-.06,2,0,3.2.13,3,1.27,5,2,5a4.3,4.3,0,0,0,3.18-1.59c3.51-3.92,7.17-15.95,5.22-50.62-3.7.89-7.25,1.83-9.73,2.71a6.18,6.18,0,0,1-2.08.36c-5.12,0-8.77-6-8.94-10a5.26,5.26,0,0,1,3.29-5.17c9.29-3.75,29.49-7.76,36.73-7.76,1.86,0,4,.21,5.46,1.75l.11.12.59.54a26.36,26.36,0,0,1,3.27,3.37,4.48,4.48,0,0,1,.28,4.88l-.91,1.59a4.46,4.46,0,0,1-2.79,2.14c-1,.26-2.29.47-3.64.68s-3.11.5-4.34.82l-.81.22c2.13,36.39-.53,56.67-8.57,65.61a16.56,16.56,0,0,1-12,5.64Z"/><path class="cls-4" d="M310.55,226.55a3.81,3.81,0,0,1,2.24.39,48.38,48.38,0,0,1,3.56,3.55l-.91,1.59c-1.83.47-5.42.82-8,1.52-1.73.46-3.86.94-6,1.42a7.93,7.93,0,0,1,1.71,1.2c3.08,49.17-2.35,68.11-16.16,68.7h-.67c-9.63,0-17.83-8.9-18.24-18.5a40.44,40.44,0,0,1,1.4-12.63c.12-.45.86-.75,1.91-.75a8.57,8.57,0,0,1,6.91,4.18c.73,1.13,1.9,3.42,1.55,4.22a.39.39,0,0,1-.38.26c-.5,0-1.29-.7-1.85-.7a.52.52,0,0,0-.5.36c-.72,1.59-.85,5.4-.73,8,.21,5.05,2.55,9.27,6.49,9.27h.24c10.5-.45,15.31-17.8,12.36-61.81l0-.49A157.83,157.83,0,0,0,280,240.42a1.63,1.63,0,0,1-.57.1c-2,0-4.35-3.43-4.44-5.73a.76.76,0,0,1,.45-.8c8.71-3.52,28.33-7.44,35.07-7.44m0-9c-7.68,0-28.44,4.07-38.4,8.08a9.77,9.77,0,0,0-6.12,9.54c.29,6.78,6.1,14.35,13.44,14.35a10.49,10.49,0,0,0,3.6-.63c1.1-.39,2.47-.8,4-1.22a201.64,201.64,0,0,1-.31,26.16c-.26-.48-.56-1-.88-1.47a17.6,17.6,0,0,0-14.48-8.31c-6.39,0-9.71,4-10.61,7.48,0,.06,0,.12,0,.18a49.79,49.79,0,0,0-1.65,15.11c.63,14.7,13.11,27.11,27.24,27.11l1.05,0a21.19,21.19,0,0,0,15.17-7.13c8.72-9.69,11.75-29.29,9.94-65l1.15-.19c1.46-.23,2.83-.45,4-.76a9,9,0,0,0,5.6-4.27l.91-1.6a9,9,0,0,0-.57-9.76,28.63,28.63,0,0,0-3.86-4l-.43-.39-.09-.1c-3-3.1-7.13-3.1-8.68-3.1Z"/><path class="cls-10" d="M385.54,242.16c-4,0-8.47-3.6-8.76-10.26-.25-6,2.23-15.52,10-15.85h.72a7.46,7.46,0,0,1,5.92,2.38,6.47,6.47,0,0,1,1.43,3.24,8.73,8.73,0,0,1,3.09,6.6c.24,5.55-3.36,13.52-12.09,13.89Z"/><path class="cls-4" d="M387.47,220.54c2.11,0,3.35.66,2.84,3.57a4.64,4.64,0,0,1,3.11,4.35c.13,3.11-1.67,8.93-7.79,9.2h-.09c-1.57,0-4.08-1.67-4.26-6-.12-2.72.8-10.94,5.66-11.15h.53m0-9c-.3,0-.6,0-.91,0-2.81.12-9.67,1.4-12.84,10.73a28.92,28.92,0,0,0-1.43,9.8c.4,9.46,7.13,14.57,13.25,14.57H386c10.74-.46,16.77-9.81,16.4-18.58a13.39,13.39,0,0,0-3.5-8.71,10.8,10.8,0,0,0-2.08-3.84c-1.52-1.82-4.39-4-9.36-4Z"/><path class="cls-10" d="M348.17,303.38a8.5,8.5,0,0,1-7.73-4.62,10.14,10.14,0,0,1-3.31.72h-.63a11.47,11.47,0,0,1-8.37-3.37c-.18-.18-.35-.36-.51-.55-1.93,3.54-4.49,6-8,6.12h-.38c-6.72,0-15.58-8-16-17.06-.25-5.72.78-14.93,2.61-23.45,2.28-10.61,4.71-17.23,9.78-17.44h.28a11.78,11.78,0,0,1,8.47,4.33,3.35,3.35,0,0,1,.37.63c.08-.69.14-1.33.18-1.94a5.79,5.79,0,0,1,5.9-5.42h.45c3.61,0,8.65,1.95,10.29,5.54,1.49-3,3.77-5.37,7.28-5.52h.56a7.36,7.36,0,0,1,5.67,2.2,6.27,6.27,0,0,1,.75,1c.46-1.09.94-2.17,1.44-3.25,1-2.3,3-3.53,6-3.66h.46a13.08,13.08,0,0,1,9.06,3.6,7.68,7.68,0,0,1,2.18,5.71c-.06,1.61-.22,3.28-.44,5,.47-2.6.93-4.81,1.3-6.39a6.07,6.07,0,0,1,5.88-4.8h.35c5.05.09,8.51,1.29,10.31,3.57a6.08,6.08,0,0,1,1.33,4.18c2.05-5,5.27-10.48,9.91-12.1a4.42,4.42,0,0,1,1.48-.25,4.5,4.5,0,0,1,2,.45,12.32,12.32,0,0,1,1.61.92,9.9,9.9,0,0,1,2.23-.36h.87c10.55,0,16,7.9,16.23,23.5A80.86,80.86,0,0,1,425,283.11c-4.13,13.34-11.21,16.4-16.43,16.63h-.68a14.79,14.79,0,0,1-10.67-4.53,17,17,0,0,1-12.74,6.33h-.66a11.65,11.65,0,0,1-8.39-3.26,14,14,0,0,1-7.44,2.59h-.58c-6,0-9.33-3.67-11.14-8.13a30.13,30.13,0,0,0-.11,4.27,4.53,4.53,0,0,1-1,3,9.15,9.15,0,0,1-6.58,3.29Zm41.05-31.05A92.77,92.77,0,0,0,388,284.65a24.19,24.19,0,0,0,1.6-7.7C389.38,275.41,389.26,273.86,389.22,272.33Zm15.38,1.79c0,.36,0,.74,0,1.13,0,5.08,1.14,7.9,1.8,8.71,2.61-1,6.42-15.6,6.31-27.64v-.68c0-.47,0-1.34,0-2.25a61.11,61.11,0,0,0-4.84,16.93c0,.11,0,.21-.06.32A4.62,4.62,0,0,1,404.6,274.12ZM373,261.29c-1.3,6.85-2.65,13.93-2.35,20.95,0,.46.05.87.09,1.22l.18-.44a188.49,188.49,0,0,1,2.38-23.29Z"/><path class="cls-4" d="M405.14,240.62a5.12,5.12,0,0,1,2.63,2.32,5.7,5.7,0,0,1,3.36-1.31h.68c9.62,0,11.59,9.16,11.73,19.06.07,10.72-2.64,34-15.18,34.56h-.49c-5.23,0-8.85-3.66-11.12-8.66-1.65,5.14-5.37,10.16-12.48,10.46h-.47c-3.84,0-6.38-2.08-7.59-6.12-1.78,2.85-4.65,5.29-8.43,5.45h-.39c-6.31,0-8.38-6.8-8.71-14.53-.18-4.18.95-14.36,1.71-19.36l-1.17.05c-3.62,8.83-8.06,25.58-7.58,34.72a4.7,4.7,0,0,1-3.24,1.6h-.23c-3.14,0-4.69-2.89-5.39-7.39-1.67,1.95-3.69,3.4-5.85,3.49h-.42c-7,0-8.47-7.63-8.42-13.07l-.58.12c-1.07,4.53-3.64,15-8.12,15.16h-.18c-4.3,0-11.19-6.24-11.47-12.76-.49-11.38,4.5-36,8.1-36.2h.08a7.47,7.47,0,0,1,4.79,2.42c-3,12.21-5.12,26-4.6,38l1.38.42c6.51-11.67,11.21-31.65,11.94-42,.06-.88.73-1.2,1.6-1.24h.26c2.78,0,6.25,1.83,6.32,3.43.15,3.6-3.61,24.9-3.3,32.2.09,2.2,1.07,7.31,4.27,7.31h.14c1.55-.07,2.72-1.36,3.57-3-.82-20.47.89-39.71,6.76-40h.37c1.22,0,3,.29,2.86,2.5-.77,9.38-3.11,18.55-2.69,28.17H350c3.23-10.95,6.43-22.69,11.43-33.42.35-.9,1.22-.93,2.1-1h.27c2.66,0,6.9,1.56,6.75,4.58-.36,9.95-5,22.82-4.42,35.75.21,4.85,1.52,7.23,4.12,7.23h.19c2.46-.1,4-3.21,4.95-5.81,0-10.82,3.34-30.7,4.89-37.28a1.6,1.6,0,0,1,1.7-1.34c-.2,0,8-.05,7.25,3.29-2.46,10.83-6.13,29.88-5.7,37.47.15,3.53,1.53,5.22,3.05,5.22h.09c5.84-.25,7.24-10.24,7.43-14.42a44.52,44.52,0,0,1-.37-5.08c-.06-12.66,5.38-29,11.43-31.08m-2.06,29.23a6.38,6.38,0,0,1-2.57-.87,37.92,37.92,0,0,0-.41,6.35c0,7.3,2.16,13.18,6,13.18h.16c9.05-.39,10.95-26.49,10.9-32.23,0-2.79.26-9.59-3.49-9.59h-.13c-5.65.24-9.49,17.46-10.22,23,0,.08-.13.12-.29.12m2.06-38.23a9.11,9.11,0,0,0-3,.5c-3.37,1.18-6.23,3.75-8.6,7.14-2.74-1.94-6.57-3-11.43-3l-.17,9h0l-.39-9A11,11,0,0,0,376,238a17.61,17.61,0,0,0-12.2-4.87l-.66,0c-4.85.2-7.52,2.43-9,4.53a13.43,13.43,0,0,0-4.74-.81h-.75a11.88,11.88,0,0,0-7.45,3.07c-.47-.32-1-.62-1.5-.91a18.24,18.24,0,0,0-8.43-2.18l-.64,0a10.64,10.64,0,0,0-8.16,4.06,15.64,15.64,0,0,0-6.57-1.67h-.46c-7.19.31-10,7.52-10.88,9.88a81.05,81.05,0,0,0-3.12,11.11c-1.52,7.06-3,17.22-2.71,24.59a22.82,22.82,0,0,0,6.75,14.69c4.1,4.25,9.1,6.68,13.71,6.68h.57a12.42,12.42,0,0,0,8.76-4.17,16.4,16.4,0,0,0,8,2h.81c.42,0,.86-.06,1.33-.12a13,13,0,0,0,9.52,4h.62a13.7,13.7,0,0,0,9.87-5,16.19,16.19,0,0,0,8.73,2.49c.26,0,.51,0,.78,0a18.13,18.13,0,0,0,6.88-1.68,16.55,16.55,0,0,0,8.75,2.36l.86,0a21.51,21.51,0,0,0,12.87-4.82,18.9,18.9,0,0,0,10.34,3l.87,0c5.46-.23,15.38-3.11,20.54-19.79a85.6,85.6,0,0,0,3.26-23.81v-.07c-.11-7.33-1.13-12.75-3.21-17.05a18.58,18.58,0,0,0-17.52-10.89c-.35,0-.7,0-1.07,0s-.83.05-1.23.1l-.45-.22a8.93,8.93,0,0,0-3.92-.9Z"/><path class="cls-10" d="M433,296.51c-4,0-11.14-2.63-11.37-7.88a34.48,34.48,0,0,1,.13-3.85c.22-3.32.62-9.5.54-23.92-.17-13-.29-23.32,7.38-23.65H430a14.41,14.41,0,0,1,6.47,1.88,8.74,8.74,0,0,1,7.91-4.29,13.27,13.27,0,0,1,2.47.25c6,1.16,6.8,5.63,6.89,7.49.1,2.34-.71,4.73-1.57,7.25-.32,1-.66,2-1,3a4.39,4.39,0,0,1,2.8-1.11h.25a6,6,0,0,1,6.05,5.51,2.26,2.26,0,0,1,0,.26c-.08,5.54-4.36,13.4-12.19,13.73l-.72,0a12.36,12.36,0,0,1-5.84-1.34,80.64,80.64,0,0,0-2.3,21.61,4.5,4.5,0,0,1-2,3.88A7.7,7.7,0,0,1,433,296.51Z"/><path class="cls-4" d="M444.41,239.29a8.22,8.22,0,0,1,1.6.17c2.06.4,3.18,1.32,3.26,3.27.15,3.6-3.78,9.51-3.48,16.61a3.17,3.17,0,0,0,2.94,2.8h.1c3.89-.16,4.81-5.95,5.4-6h0c.67,0,1.53.54,1.56,1.2,0,3.42-2.83,9.09-7.89,9.3l-.52,0c-5.31,0-6.85-3.63-7.41-7.76-1.52,5.32-5.71,16.71-5.22,32.67A3.41,3.41,0,0,1,433,292c-2.77,0-6.8-1.89-6.87-3.58-.12-2.82.79-6.46.67-27.6-.12-9.64-.23-19,3.08-19.13H430c2.49,0,5.44,2,5.44,2-.06,5.26-1,12.51-1.07,18.26l.7.26c2.26-6.33,3.83-15.16,5-20.09.46-1.9,2.18-2.85,4.32-2.85m0-9h0a13.84,13.84,0,0,0-9.2,3.33,16.26,16.26,0,0,0-5.18-.92l-.58,0a11.17,11.17,0,0,0-9.77,7.11,23.56,23.56,0,0,0-1.62,6.95,131.11,131.11,0,0,0-.3,14.14c.08,14.23-.32,20.31-.53,23.57a39.36,39.36,0,0,0-.13,4.34c.34,7.95,9.42,12.19,15.86,12.19a12.09,12.09,0,0,0,6.84-2,9,9,0,0,0,4-7.76A75.64,75.64,0,0,1,445,275.52a21.07,21.07,0,0,0,2.45.15l.91,0c9.72-.42,16.38-9.73,16.5-18.17,0-.17,0-.34,0-.51a10.42,10.42,0,0,0-7.25-9.29,17.52,17.52,0,0,0,.68-5.34c-.2-4.72-3.08-10.28-10.54-11.72a16.81,16.81,0,0,0-3.31-.33Z"/><path class="cls-11" d="M286,306.85c-10.49,0-19.76-9.35-20.24-20.41a42.39,42.39,0,0,1,1.46-13.18c.38-1.45,1.82-2.29,3.85-2.29a10.58,10.58,0,0,1,8.6,5.09c1,1.52,2.49,4.33,1.69,6.13a2.4,2.4,0,0,1-2.2,1.44,2.94,2.94,0,0,1-.87-.14,32.57,32.57,0,0,0-.22,5.74c.15,3.54,1.62,7.35,4.49,7.35h.16a6.75,6.75,0,0,0,4.88-2.42c5.69-6.36,7.61-25,5.69-55.41-4.75,1.1-9.66,2.33-12.9,3.48a3.59,3.59,0,0,1-1.24.21c-3.37,0-6.31-4.62-6.44-7.64a2.75,2.75,0,0,1,1.74-2.76c9-3.64,28.74-7.57,35.79-7.57,1.91,0,3,.29,3.66,1l.12.13c.08.09.35.33.68.64a24.54,24.54,0,0,1,2.95,3,2,2,0,0,1,.12,2.17l-.91,1.59a1.92,1.92,0,0,1-1.24.95c-.9.23-2.11.43-3.4.63-1.52.24-3.25.52-4.6.88-.85.23-1.8.46-2.78.69,2.3,37-.11,57.31-7.81,65.88a14.2,14.2,0,0,1-10.27,4.82Z"/><path class="cls-2" d="M310.27,226.47a3.79,3.79,0,0,1,2.23.39c.31.38,2.73,2.42,3.56,3.55l-.9,1.6c-1.84.46-5.43.81-8,1.51-1.73.46-3.85.94-6,1.42a7.93,7.93,0,0,1,1.71,1.2c3.08,49.17-2.35,68.11-16.16,68.7H286c-9.63,0-17.83-8.89-18.24-18.49a40.65,40.65,0,0,1,1.41-12.63c.12-.45.85-.76,1.9-.76a8.59,8.59,0,0,1,6.92,4.18c.73,1.14,1.9,3.42,1.54,4.22a.38.38,0,0,1-.38.26c-.5,0-1.29-.69-1.85-.69a.52.52,0,0,0-.5.35c-.71,1.59-.84,5.4-.73,8,.22,5.05,2.55,9.27,6.49,9.27h.24c10.5-.45,15.32-17.8,12.36-61.81l0-.49a158.61,158.61,0,0,0-15.42,4.07,1.56,1.56,0,0,1-.57.1c-2,0-4.34-3.42-4.44-5.73a.76.76,0,0,1,.45-.8c8.72-3.52,28.34-7.44,35.08-7.44m0-4c-7.2,0-27.31,4-36.55,7.72a4.79,4.79,0,0,0-3,4.69c.17,3.81,3.62,9.56,8.44,9.56a5.6,5.6,0,0,0,1.95-.34c2.6-.93,6.41-1.92,10.33-2.86,1.18,20.49,1,44.52-5.32,51.58a4.67,4.67,0,0,1-3.48,1.76h-.07c-1.25,0-2.36-2.44-2.49-5.44a32.69,32.69,0,0,1,0-3.61,4.37,4.37,0,0,0,3.08-2.52c.91-2,.29-4.73-1.83-8a12.56,12.56,0,0,0-10.28-6c-3.53,0-5.3,1.93-5.77,3.74a.31.31,0,0,0,0,.08,44.56,44.56,0,0,0-1.52,13.74c.52,12.1,10.71,22.32,22.24,22.32.28,0,.56,0,.84,0a16.07,16.07,0,0,0,11.67-5.47c5.39-6,11.19-18.89,8.42-65.67.42-.1.82-.2,1.21-.31,1.25-.33,2.92-.6,4.39-.83s2.6-.42,3.59-.67a4,4,0,0,0,2.48-1.9l.91-1.6a4,4,0,0,0-.25-4.33,24.72,24.72,0,0,0-3.21-3.3l-.6-.56-.12-.12c-1.36-1.4-3.25-1.6-5.09-1.6Z"/><path class="cls-11" d="M385.25,239.58c-2.87,0-6-2.76-6.25-7.87-.15-3.34.94-13,7.57-13.24h.61a5,5,0,0,1,4,1.49,4.35,4.35,0,0,1,.94,3,6.4,6.4,0,0,1,3,5.38c.19,4.51-2.69,11-9.7,11.29Z"/><path class="cls-2" d="M387.18,220.46c2.12,0,3.35.66,2.84,3.57a4.64,4.64,0,0,1,3.11,4.35c.14,3.11-1.66,8.93-7.79,9.2h-.09c-1.57,0-4.07-1.66-4.26-6-.11-2.72.8-10.94,5.67-11.15h.52m0-4h-.7c-2.2.1-6.22,1.18-8.31,7.35a23.84,23.84,0,0,0-1.17,8c.27,6.35,4.45,9.78,8.25,9.78h.26c8.39-.36,11.85-8,11.62-13.36a8.35,8.35,0,0,0-3.06-6.37,6.06,6.06,0,0,0-1.35-3.18,7,7,0,0,0-5.54-2.2Z"/><path class="cls-11" d="M347.89,300.8c-3.1,0-5.29-1.88-6.55-5.6a8.53,8.53,0,0,1-4.61,1.7l-.51,0a8.93,8.93,0,0,1-6.6-2.64A11.65,11.65,0,0,1,327,290c-1.77,5-4.19,8.95-7.84,9.11h-.27c-5.48,0-13.15-7.25-13.46-14.67-.24-5.53.77-14.48,2.56-22.82,3.28-15.29,6.09-15.41,7.45-15.46h.17a9.38,9.38,0,0,1,6.42,3.27,2,2,0,0,1,.31,1.63c-2.09,8.54-4.43,20.63-4.62,32.37,5.3-11.81,8.8-28.05,9.4-36.57a3.31,3.31,0,0,1,3.51-3.1H331c3.22,0,8.17,2.13,8.31,5.34.07,1.59-.44,5.45-1.26,11.62-1,7.34-2.21,16.47-2,20.58.11,2.5,1.13,5.4,2.28,5.4.53,0,1.12-.54,1.68-1.45-.59-15.6-.19-41.09,8.7-41.47h.46a5,5,0,0,1,3.83,1.4,4.18,4.18,0,0,1,1,3.25c-.29,3.48-.78,6.94-1.26,10.29l-.18,1.21a151.68,151.68,0,0,1,6.74-17.71c.84-2,2.86-2.12,3.84-2.17h.36a10.58,10.58,0,0,1,7.25,2.82,5.14,5.14,0,0,1,1.5,3.86,96.25,96.25,0,0,1-2,14c-1.33,7-2.71,14.22-2.4,21.53.16,3.52.87,5.31,2.12,5.31h.1c.76,0,1.94-1.15,3-4.17.08-11.24,3.48-31.23,4.94-37.39a3.56,3.56,0,0,1,3.55-2.88h.17c2.44,0,6.7.44,8.42,2.62a3.67,3.67,0,0,1,.71,3.1c-3,13.14-6,30.29-5.66,36.93.11,2.63.95,3.33,1.06,3.33,3.85-.16,5.28-8,5.51-12.34a46.74,46.74,0,0,1-.37-5.12c-.06-13.2,5.51-30.47,12.78-33a2,2,0,0,1,1.53.09,10,10,0,0,1,2.25,1.48,7.67,7.67,0,0,1,2.78-.67h.76c13.44,0,13.65,15.28,13.73,21,.09,13.32-3.42,36-17.09,36.58h-.58c-4.37,0-8.07-2.11-10.87-6.15a14.61,14.61,0,0,1-12.64,8h-.56a9,9,0,0,1-8.07-4.29,11.84,11.84,0,0,1-7.86,3.62h-.47c-4.57,0-10.13-2.85-10.71-16.44a56,56,0,0,1,.18-5.74c-2,7.43-3.51,15.59-3.22,20.95a2,2,0,0,1-.43,1.35,6.73,6.73,0,0,1-4.73,2.36Zm54-29.13c-.07,1-.13,2.21-.11,3.55,0,7,2.08,11.21,4.05,11.21,2.8-.12,5.35-4.68,7.07-12.53a94.82,94.82,0,0,0,2-17.68v-.67c0-5.74-.81-6.94-1.48-6.94-2.5.1-6.91,10.16-8.38,21.3a.77.77,0,0,1,0,.15,2.2,2.2,0,0,1-2.25,1.71A4.94,4.94,0,0,1,401.92,271.67Z"/><path class="cls-2" d="M404.86,240.54a5.16,5.16,0,0,1,2.63,2.32,5.65,5.65,0,0,1,3.35-1.31h.68c9.62,0,11.59,9.17,11.73,19.07.07,10.71-2.63,34-15.18,34.55h-.49c-5.23,0-8.84-3.66-11.11-8.66-1.65,5.14-5.38,10.16-12.48,10.46h-.48c-3.84,0-6.38-2.08-7.59-6.12-1.78,2.85-4.64,5.29-8.42,5.45h-.39c-6.31,0-8.38-6.8-8.71-14.52-.18-4.19.94-14.37,1.7-19.37l-1.17.05c-3.61,8.83-8.06,25.58-7.57,34.72a4.71,4.71,0,0,1-3.25,1.6h-.22c-3.15,0-4.69-2.89-5.4-7.39-1.66,1.95-3.68,3.4-5.84,3.5h-.43c-7,0-8.47-7.63-8.41-13.07l-.58.12c-1.07,4.53-3.65,15-8.12,15.16h-.19c-4.29,0-11.19-6.24-11.46-12.76-.49-11.37,4.49-36,8.09-36.2h.09a7.44,7.44,0,0,1,4.79,2.43c-3,12.2-5.13,25.94-4.61,38l1.38.43c6.52-11.68,11.22-31.66,11.94-42,.06-.88.73-1.2,1.61-1.24H331c2.78,0,6.24,1.83,6.31,3.43.16,3.6-3.61,24.9-3.3,32.2.1,2.2,1.08,7.31,4.28,7.31h.13c1.56-.07,2.72-1.36,3.57-3-.82-20.47.9-39.71,6.77-40h.37c1.21,0,3,.3,2.85,2.5-.76,9.39-3.1,18.55-2.69,28.18l.39,0c3.23-10.95,6.43-22.69,11.43-33.42.35-.89,1.23-.93,2.1-1h.27c2.66,0,6.9,1.56,6.75,4.58-.35,10-5,22.82-4.41,35.75.2,4.85,1.51,7.23,4.11,7.23h.19c2.46-.11,4.05-3.22,5-5.82,0-10.82,3.33-30.7,4.88-37.28a1.62,1.62,0,0,1,1.7-1.34c-.19,0,8,0,7.25,3.29-2.46,10.83-6.12,29.89-5.7,37.47.15,3.53,1.54,5.22,3.06,5.22h.09c5.83-.25,7.23-10.24,7.43-14.42a44.23,44.23,0,0,1-.38-5.08c-.05-12.66,5.39-29,11.44-31.08m-2.07,29.23a6.38,6.38,0,0,1-2.57-.87,39.39,39.39,0,0,0-.41,6.35c0,7.3,2.17,13.18,6.05,13.18H406c9-.39,11-26.48,10.9-32.23,0-2.79.25-9.59-3.49-9.59h-.14c-5.64.24-9.48,17.46-10.22,23,0,.08-.12.12-.29.12m2.07-33.23a4,4,0,0,0-1.32.23c-8.83,3.07-14.17,22.38-14.12,34.87a47.49,47.49,0,0,0,.37,5.21c-.26,4.36-1.38,8-2.53,9.51,0-.19,0-.4,0-.63v-.06c-.34-6.15,2.57-22.94,5.61-36.35a5.6,5.6,0,0,0-1.08-4.8c-1.7-2.16-5.06-3.3-10-3.38l-.09,4h0l-.17-4a5.6,5.6,0,0,0-5.43,4.45c-1.64,7-4.83,26.23-5,37.45a11,11,0,0,1-.93,1.91,14.64,14.64,0,0,1-.34-2.77c-.3-7.07,1.06-14.19,2.37-21.07a98.13,98.13,0,0,0,2.05-14.34,7.1,7.1,0,0,0-2.05-5.31,12.74,12.74,0,0,0-8.7-3.44h-.44c-1.06.05-4.25.19-5.59,3.36q-1,2.12-1.87,4.26a5.94,5.94,0,0,0-1.15-1.85,6.92,6.92,0,0,0-5.3-2h-.54c-3.71.16-6,3-7.39,6.39-.39-1.9-1.83-3.58-4.14-4.82a13.27,13.27,0,0,0-6.06-1.59h-.43a5.31,5.31,0,0,0-5.43,5,119,119,0,0,1-4,21.1c.89-6.05,2.09-11.69,3.21-16.28a4,4,0,0,0-.61-3.26,11.25,11.25,0,0,0-8.06-4.12h-.26c-3.43.14-6.32,3.1-9.32,17-1.82,8.49-2.84,17.64-2.6,23.33A18.13,18.13,0,0,0,308.81,296c3.12,3.23,6.9,5.15,10.11,5.15h.36c3.54-.15,6.07-2.77,8-6.51a12.15,12.15,0,0,0,.95,1.09,11,11,0,0,0,8,3.22h.6a9.67,9.67,0,0,0,3.56-.86,8.11,8.11,0,0,0,7.51,4.76h.4a8.63,8.63,0,0,0,6.2-3.11,4,4,0,0,0,.86-2.7,38.69,38.69,0,0,1,.33-6.44,19.51,19.51,0,0,0,1.26,3.21c2.14,4.23,5.75,6.56,10.17,6.56h.56a13.37,13.37,0,0,0,7.48-2.73,11.08,11.08,0,0,0,8.36,3.4h.65a16.48,16.48,0,0,0,12.72-6.59,14.38,14.38,0,0,0,10.7,4.79h.66c5.06-.22,11.94-3.22,16-16.28a79.81,79.81,0,0,0,3-22.3c-.09-6.6-.95-11.35-2.71-15a13.63,13.63,0,0,0-13-8.07c-.28,0-.56,0-.85,0a9.23,9.23,0,0,0-2.34.39,14,14,0,0,0-1.73-1,4.1,4.1,0,0,0-1.74-.4Zm-1,37.11a4.13,4.13,0,0,0,3.18-3.19c0-.09,0-.19.05-.28.91-6.95,3.59-15.37,5.7-18.51a35.24,35.24,0,0,1,.17,3.89c0,.24,0,.47,0,.67A92.59,92.59,0,0,1,411,273.47c-1.87,8.52-4.23,10.77-5,10.95-.63-.5-2.11-3.32-2.13-9.18v-.06c0-.53,0-1,0-1.53Z"/><path class="cls-11" d="M432.67,293.94c-3,0-8.72-2.09-8.87-5.49a35.38,35.38,0,0,1,.13-3.58c.22-3.36.63-9.6.54-24.1-.15-12.14-.26-20.91,5-21.14h.28c3,0,6.22,2.11,6.57,2.35a2,2,0,0,1,.88,1.68c0,.35,0,.7,0,1.06.24-1.14.47-2.19.68-3.1.67-2.72,3.07-4.4,6.27-4.4a10.49,10.49,0,0,1,2,.2c3.88.75,4.79,3.22,4.87,5.15s-.62,3.94-1.43,6.34c-1,3-2.21,6.5-2.05,10.28a1.21,1.21,0,0,0,.95.88c1.42-.06,2.3-1.91,3-3.63.45-1.07.95-2.29,2.39-2.35H454a3.51,3.51,0,0,1,3.55,3.11v.11c-.06,4.44-3.59,11-9.8,11.27l-.61,0c-3.68,0-5.89-1.48-7.24-3.31a84.32,84.32,0,0,0-3.39,26.16,2,2,0,0,1-.89,1.72A5.18,5.18,0,0,1,432.67,293.94Z"/><path class="cls-2" d="M444.12,239.21a8.14,8.14,0,0,1,1.6.17c2.07.4,3.18,1.32,3.26,3.27.16,3.6-3.78,9.51-3.48,16.61a3.16,3.16,0,0,0,2.95,2.8h.1c3.89-.17,4.81-6,5.39-6H454c.68,0,1.53.54,1.56,1.2-.05,3.42-2.82,9.09-7.88,9.31h-.53c-5.31,0-6.85-3.63-7.4-7.76-1.53,5.32-5.72,16.71-5.23,32.67a3.39,3.39,0,0,1-1.84.44c-2.77,0-6.8-1.89-6.87-3.58-.12-2.82.8-6.46.67-27.6-.12-9.64-.23-19,3.08-19.13h.19c2.49,0,5.45,2,5.45,2-.07,5.26-1,12.51-1.07,18.26l.69.27c2.27-6.34,3.84-15.17,5-20.09.47-1.91,2.18-2.86,4.32-2.86m0-4h0a8.18,8.18,0,0,0-7.7,4.48,14.4,14.4,0,0,0-6.68-2.07h-.36c-5.66.24-6.39,7.28-6.63,9.59a127.88,127.88,0,0,0-.28,13.59c.09,14.41-.32,20.6-.54,23.93-.1,1.63-.17,2.7-.13,3.79.22,4.93,7.08,7.41,10.87,7.41a7.15,7.15,0,0,0,4.06-1.12,4,4,0,0,0,1.78-3.45A80.66,80.66,0,0,1,441,269a11.5,11.5,0,0,0,6.16,1.61l.7,0a11.5,11.5,0,0,0,8.91-5.13,15,15,0,0,0,2.8-8.11v-.23a5.48,5.48,0,0,0-5.56-5h-.22a4.53,4.53,0,0,0-3.95,3.13,42.23,42.23,0,0,1,1.62-5.67c.88-2.58,1.64-4.82,1.54-7.06-.08-1.75-.86-5.94-6.5-7a11.89,11.89,0,0,0-2.36-.24Z"/></g></g></svg>