<svg id="Layer_1" data-name="Layer 1" xmlns="http://www.w3.org/2000/svg" xmlns:xlink="http://www.w3.org/1999/xlink" viewBox="0 0 346 800"><defs><style>.cls-1{fill:none;}.cls-2,.cls-4{fill:#080205;}.cls-2{opacity:0.03;}.cls-3{opacity:0.11;}.cls-5{fill:#c5530b;}.cls-6{opacity:0.21;}.cls-7{clip-path:url(#clip-path);}.cls-8{fill:#f8cbb8;}.cls-9{opacity:0.1;}.cls-10{fill:#6ba49f;}.cls-11{fill:#78bab7;}.cls-12{opacity:0.09;}.cls-13{opacity:0.35;}.cls-14,.cls-23{fill:#fff;}.cls-14{opacity:0.34;}.cls-15{opacity:0.27;}.cls-16{opacity:0.08;}.cls-17{opacity:0.05;}.cls-18{opacity:0.16;}.cls-19,.cls-20{fill:#5a3926;}.cls-20{opacity:0.3;}.cls-21{fill:#ffb085;}.cls-22{opacity:0.14;}.cls-24{opacity:0.2;}.cls-25{fill:#ff6b74;opacity:0.28;}</style><clipPath id="clip-path"><path class="cls-1" d="M229.5,113.76c2.91,25.58-14.32,46.37-19.46,52.57-4.66,5.62-19.67,25.1-46.85,29.79-10.43,1.79-21,1.06-31.5-.65a86.55,86.55,0,0,1,6.71,15.71c5.16,15.36,3.35,28.12,1.16,42.36-2.71,17.62-6.89,44.73-29,64.68-5.78,5.21-17.48,15.47-35.21,17.44-13.21,1.46-22.76-2.45-33.06-6.68-5.29-2.17-8.06-4.52-9.47-7.72-1.69-3.81.58-9.41,4.75-9.37-1.23-.13-12.06-1.41-15.25-9-.41-1-1.54-3.64-.4-6.17,1.39-3.1,5.69-4.88,10.77-4.25a11.58,11.58,0,0,1-7-6.65A6.48,6.48,0,0,1,26,280c2.92-4.32,10.18-.89,14.75-3.42s3.95-9.41,2.49-14.54c-2.3-8.12-4.81-16.3-5-24.73-.56-21.62,20.5-42.22,23.32-44.65,5.32-4.56,23.29-20,42.77-17.5-.06-2.18-.11-4.36-.17-6.54-.33-12.41-.67-24.9,1.1-37.2S110.89,106.86,118.4,97C132.24,78.65,157,72.5,176.72,74.29c18,1.63,44.4,11.21,51.22,31.66A34.65,34.65,0,0,1,229.5,113.76Z"/></clipPath></defs><title>people</title><ellipse class="cls-2" cx="209.89" cy="762.68" rx="95.71" ry="25.32"/><g class="cls-3"><path class="cls-4" d="M92.12,134.69c1.47,1.61,2.87,3.08,4.17,4.62s2.53,3.07,3.67,4.69,2.2,3.27,3.21,5,1.94,3.54,3,5.45a16.06,16.06,0,0,0-.74-6.42,21.14,21.14,0,0,0-2.91-5.84A21.49,21.49,0,0,0,98,137.52,16.09,16.09,0,0,0,92.12,134.69Z"/><path class="cls-4" d="M103.45,146.82a3.48,3.48,0,0,0-3-1.29,5.42,5.42,0,0,0-4.94,4.18,3.5,3.5,0,0,0,.76,3.21,9.84,9.84,0,0,1,1.49-2.24,14.64,14.64,0,0,1,1.55-1.51,15.64,15.64,0,0,1,1.74-1.28A8.72,8.72,0,0,1,103.45,146.82Z"/></g><path class="cls-5" d="M229.43,113.23c2.92,25.58-14.32,46.38-19.45,52.57-4.67,5.63-19.68,25.11-46.86,29.79-10.42,1.8-21,1.06-31.5-.65a86.59,86.59,0,0,1,6.71,15.72c5.16,15.36,3.35,28.11,1.16,42.36-2.71,17.61-6.88,44.72-29,64.67-5.78,5.22-17.47,15.48-35.21,17.45-13.21,1.45-22.76-2.46-33.06-6.69-5.28-2.16-8-4.52-9.47-7.72-1.69-3.8.58-9.4,4.75-9.37-1.22-.12-12-1.4-15.25-9-.41-1-1.54-3.65-.4-6.18,1.4-3.09,5.69-4.88,10.78-4.25a11.62,11.62,0,0,1-7-6.65,6.48,6.48,0,0,1,.23-5.9c2.92-4.32,10.17-.89,14.75-3.41s3.94-9.41,2.49-14.55c-2.31-8.11-4.82-16.29-5-24.73-.55-21.61,20.5-42.22,23.33-44.65,5.31-4.56,23.29-20,42.76-17.49-.05-2.18-.11-4.37-.17-6.54-.33-12.42-.66-24.9,1.1-37.2s5.72-24.51,13.22-34.43C132.17,78.12,157,72,176.65,73.77c18,1.62,44.4,11.21,51.23,31.65A35.26,35.26,0,0,1,229.43,113.23Z"/><g class="cls-6"><g class="cls-7"><path class="cls-4" d="M29.56,296.75a3.07,3.07,0,0,0,1.68,1.66,8.37,8.37,0,0,0,3.93.77c2.74,0,6.24-1.6,9.31-4.55a42,42,0,0,0,8.1-11.47,88.78,88.78,0,0,0,5.66-14.37c1.57-5.06,2.88-10.33,4.22-15.65S65,242.43,66.94,237a43.36,43.36,0,0,1,3.62-7.87,45,45,0,0,1,5.06-6.86A113.05,113.05,0,0,1,87.77,211,111.28,111.28,0,0,0,77.7,223.85,38.53,38.53,0,0,0,72,238.37c-.93,5.14-1.29,10.61-1.79,16.06s-1,11-1.74,16.62a100.68,100.68,0,0,1-3.77,17,56.51,56.51,0,0,1-8.31,16.79,36,36,0,0,1-7.46,7.44,29.14,29.14,0,0,1-4.9,2.93,26.73,26.73,0,0,1-5.7,2,27.8,27.8,0,0,1-12.32.09,24.1,24.1,0,0,1-12.14-6.76Z"/><path class="cls-4" d="M12.7,329.47a35.54,35.54,0,0,1,11.11-6.75,60,60,0,0,1,10.64-2.92c6.64-1.26,12.46-1.87,17.26-3.5,9.83-3.19,18.65-11.23,25-21s10.52-21.6,14.09-33.53l10.58-36.13-5.48,37.29c-1.94,12.44-4.38,25.18-10,37.39a73.2,73.2,0,0,1-11.07,17.17,55.39,55.39,0,0,1-16.89,13.23c-6.75,3.35-13.38,4.88-18.83,6.79a40.57,40.57,0,0,0-7.14,3.06,14.61,14.61,0,0,0-4.41,3.67Z"/><path class="cls-4" d="M33.08,339.64a110.83,110.83,0,0,0,20.8,3.12c6.76.26,13.31-.44,19-2.79a31,31,0,0,0,7.91-4.67A47.6,47.6,0,0,0,87.67,328c2.18-2.79,4.25-5.85,6.37-9s4.19-6.27,6-9.39a54.47,54.47,0,0,0,4.65-9.57,45.14,45.14,0,0,0,1.69-5.08c.57-1.7.86-3.51,1.29-5.29a156.74,156.74,0,0,0,2.53-22.33c.48-7.62.87-15.36,2-23a69.74,69.74,0,0,1,6.77-22,68.45,68.45,0,0,0-4.17,22.28c-.29,7.56.19,15.14.58,22.8a162,162,0,0,1,0,23.42c-.24,2-.34,4-.76,6a52.43,52.43,0,0,1-1.25,6,65.44,65.44,0,0,1-4.07,11.59c-1.64,3.69-3.46,7.19-5.21,10.6s-3.58,6.93-5.73,10.45a60.78,60.78,0,0,1-7.76,10.31A45.78,45.78,0,0,1,79.8,354c-8.06,4.49-17,6.35-25.44,7a129.94,129.94,0,0,1-24.82-.8Z"/><path class="cls-4" d="M29.81,269.25a.66.66,0,0,0-.29.62c0,.24.34.35.77.37a5.92,5.92,0,0,0,3.4-1.59c2.29-1.59,4.05-5.86,5.41-10.65.71-2.42,1.41-5,2.34-7.64A39.82,39.82,0,0,1,45,242.85,38.78,38.78,0,0,1,55.74,231.3a35.92,35.92,0,0,0-5.9,13.51c-1,4.73-.68,9.14-.36,14.36a56.34,56.34,0,0,1,0,8.41,28.23,28.23,0,0,1-.8,4.75,25,25,0,0,1-1.91,5,24.47,24.47,0,0,1-3,4.65,21.41,21.41,0,0,1-4.41,4.14,19.5,19.5,0,0,1-6.28,3,20,20,0,0,1-7.81.49Z"/></g></g><path class="cls-8" d="M214.3,694.61c-.08,21.68-.4,38-1.25,49-.13,1.65-.44,5.3,1.74,8.35,3.88,5.42,12.43,4.49,22.69,4.52,29.59.08,36.48,8,49.21.69.69-.39,10.52-6.17,9.42-10.43-1.87-7.29-32.65,2.11-50.61-15a38.45,38.45,0,0,1-9.77-16c-4.27-13.27-.2-24.91,1.4-28.87"/><g class="cls-9"><path class="cls-4" d="M237.14,687a45.26,45.26,0,0,0-3.29,16.21,44.51,44.51,0,0,0-19.68,9.16q.11-8.16.13-17.69Z"/></g><path class="cls-4" d="M286.69,757.16c-12.73,7.35-19.62-.61-49.21-.69-13.34,0-19.23.18-22.69-4.52-2.68-3.65-2.18-8.62-1.31-12.26a73.28,73.28,0,0,0,19.9,7.65,53.27,53.27,0,0,0,20.94.52c6.76-1.28,8.45-3.24,8.9-4.77a4.14,4.14,0,0,0,0-2.12c15.56,3.83,31.52.58,32.85,5.76C297.21,751,287.38,756.77,286.69,757.16Z"/><path class="cls-8" d="M123.55,700.08c-.07,21.69-.4,38-1.25,49-.13,1.64-.43,5.3,1.74,8.35,3.88,5.42,12.44,4.49,22.69,4.52,29.6.08,36.49,8,49.21.69.69-.4,10.52-6.17,9.43-10.43-1.88-7.29-32.66,2.1-50.61-15a38.29,38.29,0,0,1-9.77-16c-4.28-13.27-.2-24.9,1.39-28.86"/><g class="cls-9"><path class="cls-4" d="M146.39,692.48a45.43,45.43,0,0,0-3.28,16.22,44.37,44.37,0,0,0-19.69,9.15q.12-8.15.14-17.68Z"/></g><path class="cls-4" d="M195.94,762.64c-12.72,7.35-19.61-.61-49.21-.69-13.34,0-19.22.17-22.68-4.52-2.69-3.65-2.18-8.62-1.31-12.26a73.45,73.45,0,0,0,19.89,7.65,53.3,53.3,0,0,0,20.94.52c6.77-1.28,8.45-3.24,8.91-4.78a4.2,4.2,0,0,0,0-2.11c15.56,3.83,31.52.57,32.86,5.76C206.46,756.47,196.63,762.24,195.94,762.64Z"/><path class="cls-10" d="M249.08,695.14c-.38,1.48-1.19,4.11-3.42,5.45-1.7,1-3.81.83-5.77.61L211.27,698c-1.49-.16-3.14-.41-4.1-1.6a5.53,5.53,0,0,1-.89-4c2.95-31.11.38-62.55,2.36-93.74,1.78-28-3.22-49.06-9.16-74.07A427.81,427.81,0,0,0,182.19,470Q170.36,582.56,158.5,695.13a9.34,9.34,0,0,1-1.38,4.75c-1.37,1.83-3.83,2.33-6.06,2.64a118.9,118.9,0,0,1-30.68.17c-1.62-.2-3.35-.5-4.49-1.68s-1.46-3.36-1.56-5.22q-7-127.93-1.43-256.18L186.82,426l-.66,6.33,53-10.48c12.37,38.85,26.2,93.62,30,156C269.2,577.82,271,607.28,249.08,695.14Z"/><g class="cls-3"><path class="cls-4" d="M244.39,436.93c-19.84,12.32-43.78,17.8-67.15,19.62-21.72,1.69-43.54.62-65.32.72q.36-10.14.8-20.28l73.93-13.6c-.23,2.11-.44,4.22-.67,6.33l53-10.48Q241.67,427.61,244.39,436.93Z"/></g><path class="cls-11" d="M170.39,244.59c5-3.89,12-2,13.89-1.36,6,1.93,9.38,6.56,11.84,9.31,14.88,16.63,23.62,37.68,31.56,58.39a2.88,2.88,0,0,1,.16,2.51,2.62,2.62,0,0,1-1.74.86l-39.94,8.25a4.21,4.21,0,0,1-2.93-.1,4.6,4.6,0,0,1-1.68-2.07c-6.07-11.69-9.84-24.35-13.14-37a156.07,156.07,0,0,1-3.29-20.52c-.36-3.71-.71-8.57,1.68-13.45A12.48,12.48,0,0,1,170.39,244.59Z"/><path class="cls-8" d="M159.62,216.12A92.25,92.25,0,0,0,157,249.44a5.07,5.07,0,0,1-.45,3.47c-.8,1.12-2.32,1.29-3.66,1.36l-8.59.47a4,4,0,0,1-2.62-.46,4.26,4.26,0,0,1-1.29-2.69l-10.61-50.31"/><g class="cls-12"><path class="cls-4" d="M129.86,201.36q2.46,11.71,4.93,23.43a27.19,27.19,0,0,0,10.39,5.94,39.78,39.78,0,0,0,8.14,1.11l3.62.25a92.93,92.93,0,0,1,2.8-15.89Z"/></g><path class="cls-8" d="M206.46,89.66c3.38,2.54,15.09,11.58,19.69,27.24,4.95,16.86-4.85,19.22-7,53.85-.81,13.15-.48,22.51-7.12,32.73-2.93,4.51-7.24,7.88-11.79,10.59-22.3,13.3-52.17,10.92-72-5.57s-28.44-46-21-71.45a91.48,91.48,0,0,1,10.46-22.62c7.15-11.6,15.64-25.39,31.84-32.36C167.68,74.27,190.27,77.51,206.46,89.66Z"/><path class="cls-8" d="M116.35,144.81c-2.18-8.08-5.42-17-12.5-19.75-6.74-2.64-14.93,1.94-18.44,9.21a24.63,24.63,0,0,0,2.1,24.13,22.68,22.68,0,0,0,20.17,9.23"/><path class="cls-11" d="M111.13,442.08c.33,0,.65,0,1,0,0,.26-.11.52-.17.77Z"/><path class="cls-11" d="M242.29,433.08c-.76,2.09-3.37,2.7-5.58,3a746.77,746.77,0,0,1-124.6,6,350,350,0,0,0,8.26-70.29c.19-12-.26-24.07-3.53-35.58a.07.07,0,0,0,0-.05c-3-10.64-8.34-20.45-12.89-30.52a222.72,222.72,0,0,1-11-29.82c-.22-.78-.44-1.57-.65-2.38-2-8-2.9-17.06,2.42-23.2,3.59-4.15,9.2-5.9,14.57-7q3.26-.69,6.54-1.18c20.21,13,37.2,30.56,53.92,47.89q2.33-23.67,4.63-47.34a27.11,27.11,0,0,1,6.7,3.35c7.13,5,11,13.27,14.55,21.19q6.95,15.45,13.87,30.9c1.59,3.53,3.21,7.26,2.91,11.11-.55,6.93-7.12,12.41-7.18,19.36,0,3.52,1.64,6.8,3.22,9.94,1.44,2.85,2.86,5.71,4.23,8.59.63,1.32,1.26,2.64,1.87,4a425,425,0,0,1,27.55,78.56A6.14,6.14,0,0,1,242.29,433.08Z"/><path class="cls-8" d="M174.42,242.6q-2.31,23.67-4.63,47.34c-16.72-17.33-33.71-34.88-53.92-47.89,12.1-1.83,24.45-1.87,36.72-1.9C159.91,240.13,167.62,240.23,174.42,242.6Z"/><g class="cls-13"><path class="cls-14" d="M191.36,316c-4.49,5.5-9.11,10.88-13.75,16.25s-9.38,10.65-14.06,16-9.51,10.53-14.33,15.73-9.67,10.38-14.65,15.45c4.49-5.5,9.11-10.89,13.75-16.25s9.38-10.65,14.06-16,9.51-10.53,14.33-15.73S186.39,321,191.36,316Z"/><path class="cls-14" d="M185.65,341c-2.91,4.51-6,8.91-9,13.3s-6.25,8.69-9.37,13-6.39,8.6-9.66,12.84-6.57,8.46-10,12.58c2.91-4.51,6-8.91,9-13.3s6.25-8.69,9.37-13,6.38-8.6,9.66-12.83S182.21,345.14,185.65,341Z"/><path class="cls-14" d="M179.4,370.77c-1.08,2.6-2.33,5.1-3.63,7.58s-2.69,4.9-4.13,7.3-3,4.74-4.59,7-3.25,4.55-5.07,6.69c1.28-2.5,2.67-4.92,4.06-7.34s2.83-4.81,4.26-7.19,2.91-4.76,4.44-7.09S177.76,373.05,179.4,370.77Z"/><path class="cls-14" d="M212.86,357.71c-3.39,6.24-7,12.34-10.79,18.37S194.32,388,190.3,393.84,182,405.38,177.63,411s-8.86,11.11-13.57,16.43l12.61-17.15C180.83,404.52,185,398.79,189,393s8.08-11.65,12.05-17.53Z"/></g><g class="cls-15"><path class="cls-14" d="M217.45,617.75c4.16,1.83,8.18,3.84,12.24,5.77s8.13,3.84,12.16,6a74.82,74.82,0,0,1-24.4-11.72Z"/><path class="cls-14" d="M208.62,621.42c2.5,3,5,6.05,7.63,9s5.27,5.78,8.09,8.49,5.64,5.42,8.58,8,6,5.07,9,7.55a91.26,91.26,0,0,1-9.69-6.76A106.48,106.48,0,0,1,215.47,631,91.19,91.19,0,0,1,208.62,621.42Z"/></g><g class="cls-15"><path class="cls-14" d="M116.23,646.62c2.26,2.16,4.51,4.31,6.84,6.39s4.65,4.12,7.1,6,4.89,3.83,7.41,5.66,5.1,3.57,7.69,5.33A70,70,0,0,1,137,665.5c-2.66-1.68-5.18-3.55-7.66-5.48s-4.78-4.08-7-6.32A70.3,70.3,0,0,1,116.23,646.62Z"/><path class="cls-14" d="M113,662.84a65.54,65.54,0,0,0,4.88,6.64,51.63,51.63,0,0,0,5.7,5.85,52.19,52.19,0,0,0,6.46,5,67,67,0,0,0,7.15,4.08,34.15,34.15,0,0,1-7.65-3.26,39.36,39.36,0,0,1-12.42-11.07A34.52,34.52,0,0,1,113,662.84Z"/></g><path class="cls-8" d="M127.38,325.21q5.33-2,10.6-4c2.29,9.86,4.81,20.17,11.6,27.69,7.48,8.27,19.21,11.81,30.38,11.45s21.93-4.22,32.13-8.77A101.59,101.59,0,0,1,214,373.35a8.78,8.78,0,0,1-.86,4.31c-1.11,1.91-3.39,2.76-5.49,3.47-10.22,3.45-20.54,6.93-31.27,8.12s-22.05-.06-31.33-5.55c-1.56-.92-7.09-4.09-14.81-13.23a109.13,109.13,0,0,1-20.62-38.32Q118.32,328.64,127.38,325.21Z"/><g class="cls-12"><path class="cls-4" d="M213.72,371.74c0,.55,0,1.09,0,1.64a8.74,8.74,0,0,1-.86,4.3c-1.11,1.92-3.39,2.77-5.48,3.48-10.23,3.45-20.55,6.93-31.28,8.12s-22.05-.06-31.33-5.55c-1.56-.93-7.09-4.09-14.81-13.23a109.22,109.22,0,0,1-20.62-38.32q8.73-3.51,17.8-6.95,5.32-2,10.6-4c.24,1,.49,2.09.74,3.14l-7.81,8c-2.85,2.94-5.84,6.1-6.69,10.11-1.1,5.18,1.65,10.34,4.46,14.84a58.19,58.19,0,0,0,15.09,16.53,51.38,51.38,0,0,0,14,6.56c19.23,5.8,36.81-.45,44.39-3.26A84.34,84.34,0,0,0,213.72,371.74Z"/></g><path class="cls-11" d="M106,245.46c-7,0-11.82,6-13.06,7.74-3.9,5.4-3.74,11.4-4,15.25-1.69,23.23,5,46.2,12.12,68.38.28.88.68,1.88,1.56,2.16a3,3,0,0,0,2.1-.39l40.51-18.66a4.64,4.64,0,0,0,2.49-2,4.54,4.54,0,0,0,.06-2.78c-2.65-13.54-8-26.4-13.67-39A163.4,163.4,0,0,0,123,257.18c-2.21-3.29-5.21-7.53-10.62-10A14.63,14.63,0,0,0,106,245.46Z"/><g class="cls-16"><path class="cls-4" d="M222.58,146.79a3.28,3.28,0,0,0-.49-1.32,3.76,3.76,0,0,1,.82,0c.25-1,.52-1.86.75-2.66,2.32-7.76,3.72-14.87,2.23-22.94a3,3,0,0,1,.11-1.59c-.08-.12-.16-.25-.23-.38l-60-8.17a87.78,87.78,0,0,0,15.34,26.63,12.15,12.15,0,0,0,4.47,3.76c4.4,1.78,9.88-2.89,8.8-7.49l13.05,13.93c2.51,2.69,5.38,5.55,9.06,5.85a6.18,6.18,0,0,0,5.69-3.36C222.28,148.28,222.42,147.53,222.58,146.79Z"/></g><g class="cls-16"><path class="cls-4" d="M235.88,149.14c-.34.75-.69,1.49-1.06,2.2a8.1,8.1,0,0,0,1-.31C235.81,150.4,235.85,149.77,235.88,149.14Z"/></g><g class="cls-16"><path class="cls-4" d="M113.36,120.81a26.31,26.31,0,0,0-5.1,22.42c.59,2.45,1.7,5,3.93,6.19a7.28,7.28,0,0,0,7-.63,19.08,19.08,0,0,0,5.12-5.28,131.34,131.34,0,0,0,8.39-13,8.75,8.75,0,0,0,9.79,6.49,12.92,12.92,0,0,0,6.18-3.5,26.27,26.27,0,0,0,7.82-14"/></g><path class="cls-5" d="M165.06,104.33A87.66,87.66,0,0,0,180.4,131a12.15,12.15,0,0,0,4.47,3.76c4.4,1.78,9.88-2.88,8.8-7.49l13.05,13.94c2.51,2.68,5.38,5.55,9.06,5.84s7.57-3.82,5.59-6.92c3.25-.48,5.15,3.52,7.94,5.24,4.48,2.75,10.72-1.53,11.55-6.71s-2.11-10.23-5.59-14.17-7.65-7.37-10.22-12"/><path class="cls-5" d="M114.08,115.07a26.31,26.31,0,0,0-5.1,22.42c.59,2.45,1.7,5,3.93,6.19a7.26,7.26,0,0,0,7-.63,18.9,18.9,0,0,0,5.12-5.27,131.34,131.34,0,0,0,8.39-13,8.74,8.74,0,0,0,9.79,6.48,12.83,12.83,0,0,0,6.18-3.5,26.23,26.23,0,0,0,7.82-14"/><path class="cls-11" d="M220.74,126.64c1.64.47,6.85,2,10-.43s2.58-7.22,2.38-11.19c-.28-5.4.62-10.81.25-16.21-1-14.54-11.4-27.3-24.3-34.19-14.13-7.54-26.74-8.51-42.6-8.46-10.51,0-21.63.07-34.52,6-5.41,2.47-19,8.68-26,22.53a48.73,48.73,0,0,0-4.28,12.24,88.28,88.28,0,0,0-2.38,21.48,5.11,5.11,0,0,0,.71,3.07c1.37,1.81,4.82,1,5.59.9C114.53,120.77,197.65,119.92,220.74,126.64Z"/><g class="cls-17"><path class="cls-4" d="M232.19,120.13c-.12,2.4-.69,4.63-2.52,6.08-3.13,2.48-8.34.91-10,.43-23.1-6.72-106.22-5.87-115.23-4.3-.77.13-4.22.92-5.58-.89a5.09,5.09,0,0,1-.72-3.08,88.28,88.28,0,0,1,2.38-21.48,49.14,49.14,0,0,1,4.28-12.24,40.5,40.5,0,0,1,3.09-5.09l.07.09c12.63,15.86,31.59,26.22,51.57,29.9,13.89,2.56,28.17,2.06,42.17,3.87C212.05,114.76,222.15,117.34,232.19,120.13Z"/></g><g class="cls-13"><path class="cls-14" d="M207.25,72.43q-6.15.07-12.29,0l-12.29-.26-12.28-.46q-6.13-.27-12.27-.7,6.15-.07,12.29,0l12.29.26,12.28.46Q201.12,72,207.25,72.43Z"/><path class="cls-14" d="M193.51,79.13c-6.19.77-12.4,1.2-18.61,1.66s-12.43.73-18.67.76c6.19-.78,12.4-1.2,18.61-1.66S187.27,79.16,193.51,79.13Z"/><path class="cls-14" d="M177.39,87.3c-3.16.85-6.4,1.36-9.62,1.9s-6.49.89-9.76,1a97.89,97.89,0,0,1,9.62-1.9C170.87,87.88,174.09,87.42,177.39,87.3Z"/><path class="cls-14" d="M194.9,97c-4.06.79-8.14,1.48-12.24,2s-8.22,1-12.34,1.39-8.25.63-12.39.78-8.27.2-12.41.12l12.38-.81c4.12-.29,8.23-.58,12.34-1s8.23-.76,12.33-1.19Z"/></g><g class="cls-18"><path class="cls-4" d="M111.78,249.93a58.48,58.48,0,0,1,14.29,16.83,154.14,154.14,0,0,1,9.55,20c2.74,6.83,5.25,13.76,7.39,20.81,1.09,3.51,2.07,7.06,3,10.62a8.44,8.44,0,0,1,.43,2.94,1.9,1.9,0,0,1-1.07,1.36,5.14,5.14,0,0,1-1.44.38c-1.81.3-3.62.56-5.45.81,1.77-.52,3.53-1,5.31-1.49.9-.21,1.68-.56,1.67-1.21a7.71,7.71,0,0,0-.68-2.42l-3.68-10.35c-2.52-6.87-5.12-13.7-7.88-20.47s-5.56-13.51-8.91-20A75,75,0,0,0,111.78,249.93Z"/><path class="cls-4" d="M190.84,262.09q3.91,9.46,8,18.8c2.72,6.24,5.57,12.33,8.49,18.54a37.61,37.61,0,0,1,3.11,10.06,25,25,0,0,1-1,10.57c-1,3.45-3,6.35-4.57,9.3a21.33,21.33,0,0,0-2,4.59,10.06,10.06,0,0,0-.11,5,9.25,9.25,0,0,1-.57-5.11,22.69,22.69,0,0,1,1.49-5c1.35-3.18,3-6.14,3.77-9.3a24.47,24.47,0,0,0,.46-9.67,36.38,36.38,0,0,0-3-9.35c-1.36-3.06-2.86-6.17-4.19-9.31s-2.64-6.31-3.81-9.53A178.37,178.37,0,0,1,190.84,262.09Z"/><path class="cls-4" d="M156.87,337.76c2.54-1,5-2,7.32-3.17a30.86,30.86,0,0,0,6.4-4.19,22.09,22.09,0,0,0,4.79-5.78,19.44,19.44,0,0,0,2.43-7.37,12.87,12.87,0,0,1-.59,8.24,17.79,17.79,0,0,1-4.93,6.89,22,22,0,0,1-7.32,4.09A24.43,24.43,0,0,1,156.87,337.76Z"/><path class="cls-4" d="M141,443.81c0,5.22-.31,10.41-.69,15.59s-.86,10.35-1.4,15.52a18,18,0,0,1-.83,4.09,8.59,8.59,0,0,1-2.52,3.69,29,29,0,0,1-3.3,2.36c-1.08.72-2.18,1.41-3.28,2.1-4.38,2.79-8.82,5.5-13.4,8,4-3.39,8.08-6.57,12.25-9.67,2-1.59,4.35-3,6.06-4.61a6.26,6.26,0,0,0,1.78-2.71,16.17,16.17,0,0,0,.64-3.54c.59-5.15,1.21-10.31,2-15.45S139.86,448.91,141,443.81Z"/><path class="cls-4" d="M231.3,440.94c2.55,2.85,3.92,6.61,5,10.22s1.85,7.25,3.3,10.52a34,34,0,0,0,5.79,9.06,39.72,39.72,0,0,0,8.44,7.14,24.85,24.85,0,0,1-9.89-5.71,28.08,28.08,0,0,1-6.74-9.46,51.88,51.88,0,0,1-2.88-11.08A43.09,43.09,0,0,0,231.3,440.94Z"/></g><path class="cls-19" d="M230.49,284.24a11.21,11.21,0,1,0,10,12.06A11.09,11.09,0,0,0,230.49,284.24Zm-1.42,17.13a6,6,0,1,1,6.31-5.48A5.89,5.89,0,0,1,229.07,301.37Z"/><rect class="cls-19" x="172.92" y="316.96" width="103.2" height="79.15" transform="translate(-149.15 551.22) rotate(-85.32)"/><rect class="cls-20" x="172.92" y="316.96" width="103.2" height="79.15" transform="translate(-149.15 551.22) rotate(-85.32)"/><path class="cls-19" d="M269.63,315.11l-82.83-6.78.3-3.58A13.79,13.79,0,0,1,202,292.2l55.25,4.52a13.75,13.75,0,0,1,12.65,14.79Z"/><path class="cls-21" d="M276.2,345.1s-2.8-9.94-13-13.06c-.85-.26-1.88-.47-2.53.16s-.67,2.5-.33,3.64c.63,2.11,2,2,3.38,4.45.27.48,1.82,3.21,1,4.87-.47.91-1.53,1.33-3.29,1.41a44.24,44.24,0,0,1-14.21-1.7,6,6,0,0,0-3.43-.35,3.06,3.06,0,0,0-2,3.17,4.19,4.19,0,0,0,1.73,2.63c4.28,3.55,11.43,5.17,11.41,5.28a77,77,0,0,0-11.48,0c-1.38.13-3.07.37-3.8,1.75a4.44,4.44,0,0,0,.28,4c.68,1.19,1.74,1.69,5.35,2.7,1.66.47,3.74,1,6.17,1.55a38.93,38.93,0,0,0-9.55,2.27c-.83.35-1.91.89-2.11,1.91a3,3,0,0,0,.78,2.25,4.53,4.53,0,0,0,3,1.56c21.9,3,29.67-10.15,29.67-10.15a24.63,24.63,0,0,0,3.59-14.94A21.51,21.51,0,0,0,276.2,345.1Z"/><g class="cls-22"><path class="cls-4" d="M164.42,147.1c.17.5.35.94.52,1.39l.49,1.29.46,1.32c.16.44.31.9.51,1.38a3.58,3.58,0,0,0,.25-1.52,4.94,4.94,0,0,0-.3-1.51,5.11,5.11,0,0,0-.75-1.35A3.58,3.58,0,0,0,164.42,147.1Z"/></g><path class="cls-23" d="M136,158.53c-.35,7.64,7,13.26,14,13.88s11.95-3.94,12.72-4.67c2.21-12.2-5.45-21.42-12.72-21.86C144,145.52,136.33,151,136,158.53Z"/><path class="cls-19" d="M163.28,168.4a21.69,21.69,0,0,0,.8-12.52,24.09,24.09,0,0,0-.9-3.13,18.43,18.43,0,0,0-1.47-3.13,15,15,0,0,0-2.29-3c-.11-.12-.23-.23-.35-.35l-.39-.35a9.89,9.89,0,0,0-.94-.7,14.48,14.48,0,0,0-1.84-1,15.4,15.4,0,0,0-4-1.21,17.12,17.12,0,0,0-2.14-.16,13.33,13.33,0,0,0-6.2,1.41,15.22,15.22,0,0,0-3.18,2.13,13.94,13.94,0,0,0-1.3,1.24l-.57.62-.56.69c-1.19,1.43-1.56,1.9-2.21,2a1.86,1.86,0,0,1-.58,0,3.31,3.31,0,0,1-2.28-1.76,7.59,7.59,0,0,0,.88,3.14,3.57,3.57,0,0,0,1.57,1.5,3.14,3.14,0,0,0,1.51.26,3.54,3.54,0,0,0,1.48-.47,13.62,13.62,0,0,0,1.6-1.15c.43-.34.81-.64,1.2-.92l.59-.39.63-.42c.41-.26.82-.49,1.23-.72a11.29,11.29,0,0,1,4.79-1.48,10,10,0,0,1,4.58.93,7.21,7.21,0,0,1,1,.53c.14.09.3.19.36.24s.14.12.21.17l.22.2a12.42,12.42,0,0,1,1.68,1.84,29.92,29.92,0,0,1,2.79,4.77,53.62,53.62,0,0,1,2.25,5.37C162.1,164.46,162.67,166.38,163.28,168.4Z"/><ellipse class="cls-19" cx="151.12" cy="162.78" rx="8.74" ry="9.48"/><g class="cls-22"><path class="cls-4" d="M165.6,210.77c-.47-.23-.92-.39-1.35-.57l-1.27-.53-1.26-.56c-.43-.2-.86-.4-1.35-.59a3.58,3.58,0,0,0,.92,1.22,4.92,4.92,0,0,0,1.3.82,5,5,0,0,0,1.48.38A3.6,3.6,0,0,0,165.6,210.77Z"/></g><g class="cls-22"><path class="cls-4" d="M192,151.2c-.17.5-.35.94-.52,1.38l-.49,1.3-.46,1.31c-.16.45-.31.9-.51,1.39a3.63,3.63,0,0,1-.25-1.52,5,5,0,0,1,1.05-2.86A3.46,3.46,0,0,1,192,151.2Z"/></g><path class="cls-23" d="M218.53,163.14c.33,7.63-6.56,13.24-13.05,13.86s-11.15-3.93-11.87-4.66c-2.06-12.19,5.09-21.4,11.87-21.84C211.08,150.14,218.21,155.63,218.53,163.14Z"/><path class="cls-19" d="M193.05,173a23.09,23.09,0,0,1-.75-12.51,25.91,25.91,0,0,1,.84-3.13,19.85,19.85,0,0,1,1.37-3.13,15.63,15.63,0,0,1,2.14-3c.1-.12.21-.23.33-.35l.36-.35a9.58,9.58,0,0,1,.88-.7,13.17,13.17,0,0,1,1.72-1,13.67,13.67,0,0,1,3.76-1.21,14.84,14.84,0,0,1,2-.16,11.57,11.57,0,0,1,2,.14,11.77,11.77,0,0,1,3.76,1.28,13.84,13.84,0,0,1,3,2.12,14,14,0,0,1,1.21,1.23l.53.63.53.68c1.11,1.44,1.45,1.9,2.06,2a1.61,1.61,0,0,0,.54,0,3.17,3.17,0,0,0,2.13-1.75,8.18,8.18,0,0,1-.82,3.14,3.39,3.39,0,0,1-1.46,1.49,2.82,2.82,0,0,1-1.42.26,3.35,3.35,0,0,1-1.38-.46,13.78,13.78,0,0,1-1.49-1.16c-.4-.33-.75-.64-1.12-.91l-.55-.4-.59-.41c-.38-.26-.77-.49-1.15-.72a10,10,0,0,0-4.47-1.48,8.79,8.79,0,0,0-4.27.92,7,7,0,0,0-.94.54c-.13.08-.27.19-.34.24l-.19.17-.21.19a12.92,12.92,0,0,0-1.56,1.84,29.46,29.46,0,0,0-2.6,4.77,55.29,55.29,0,0,0-2.11,5.36C194.15,169.06,193.62,171,193.05,173Z"/><ellipse class="cls-19" cx="206.19" cy="166.69" rx="8.15" ry="9.47"/><g class="cls-24"><path class="cls-4" d="M185.27,163.69a42.94,42.94,0,0,0-4.12,8.59q-.81,2.25-1.41,4.56c-.21.77-.38,1.55-.56,2.33-.08.4-.16.75-.24,1.19a4.58,4.58,0,0,0,0,1.67,2.67,2.67,0,0,0,.48,1.05,2.56,2.56,0,0,0,.93.76,4.63,4.63,0,0,0,1.57.38l.46.07c.14,0,.28.08.42.11a5.13,5.13,0,0,1,.83.37,4.72,4.72,0,0,1,2.28,2.83,3.4,3.4,0,0,1,0,1.79,3.86,3.86,0,0,1-1,1.65,3.66,3.66,0,0,1-4,.92,3.29,3.29,0,0,0,2.3.87,4.84,4.84,0,0,0,2.51-.75,5,5,0,0,0,1.84-2,4.76,4.76,0,0,0,.42-1.39,5.78,5.78,0,0,0,0-1.44,6.09,6.09,0,0,0-1-2.64,7.19,7.19,0,0,0-2-2,6.74,6.74,0,0,0-1.29-.64,6.43,6.43,0,0,0-.71-.22c-.24-.05-.51-.11-.7-.13a2.93,2.93,0,0,1-.73-.15s.08.1,0,0a2.43,2.43,0,0,1,0-.68l.2-1.11.44-2.27c.3-1.52.62-3,1-4.55Z"/></g><path class="cls-4" d="M187.64,199.63a27.49,27.49,0,0,1-9.19,3.18,21.28,21.28,0,0,1-4.71.21l-.59,0-.58-.07c-.38-.06-.77-.09-1.16-.16-.76-.18-1.54-.28-2.28-.53a22.13,22.13,0,0,1-8.25-4.37A22.65,22.65,0,0,1,155,190.2a16.43,16.43,0,0,0,4.48,9.11,19.68,19.68,0,0,0,8.94,5.38c.84.26,1.72.38,2.59.56.43.06.88.08,1.32.13l.66.05c.22,0,.44,0,.66,0a19.46,19.46,0,0,0,14-5.81Z"/><path class="cls-4" d="M159.81,189a4.41,4.41,0,0,0-2.59-.27,5.84,5.84,0,0,0-2.45,1.06,5.62,5.62,0,0,0-1.74,2,4,4,0,0,0-.39,2.58,11.9,11.9,0,0,1,1.4-1.92,10.34,10.34,0,0,1,1.64-1.47,12.42,12.42,0,0,1,1.9-1.14A15.94,15.94,0,0,1,159.81,189Z"/><path class="cls-5" d="M141.55,132.09a10.31,10.31,0,0,1,1.43-2,15.39,15.39,0,0,1,1.8-1.52,19.19,19.19,0,0,1,2-1.14,18.21,18.21,0,0,1,2.18-.78,17.26,17.26,0,0,1,16.68,4.71c.5.57,1,1.16,1.42,1.77s.78,1.32,1.12,2a16.31,16.31,0,0,1,.75,2.2,10.54,10.54,0,0,1,.25,2.39,20.75,20.75,0,0,1-2.25-.49c-.72-.14-1.37-.31-2-.47s-1.26-.27-1.82-.43-1.17-.26-1.71-.42c-2.22-.54-4.23-1.08-6.23-1.66s-4-1.18-6.11-1.86c-.54-.18-1.09-.32-1.66-.53s-1.15-.35-1.76-.56-1.25-.35-1.94-.59S142.36,132.38,141.55,132.09Z"/><path class="cls-5" d="M193.13,143.05a12,12,0,0,1,.57-2.35,16.6,16.6,0,0,1,1-2.09,18.14,18.14,0,0,1,1.28-1.83,17.18,17.18,0,0,1,1.51-1.56,13.93,13.93,0,0,1,7.26-3.39,12.19,12.19,0,0,1,7.5,1.25,15.28,15.28,0,0,1,1.67,1.07,19.6,19.6,0,0,1,1.49,1.39,17.77,17.77,0,0,1,1.26,1.73,12.43,12.43,0,0,1,.91,2.1,18.8,18.8,0,0,1-1.95.42c-.62.15-1.19.25-1.73.34s-1.09.24-1.59.31-1,.22-1.49.28c-1.94.36-3.71.64-5.49.89s-3.53.46-5.45.66c-.48,0-1,.13-1.48.15s-1,.13-1.58.18-1.1.16-1.72.21S193.87,143,193.13,143.05Z"/><ellipse class="cls-25" cx="131.61" cy="180.69" rx="12.53" ry="10.49"/><ellipse class="cls-25" cx="205.32" cy="190.11" rx="10.93" ry="9.15"/><g class="cls-3"><path class="cls-4" d="M91.86,134.35c1.51,1.66,3,3.18,4.3,4.76s2.61,3.18,3.78,4.84,2.28,3.38,3.31,5.17,2,3.65,3.09,5.62a16.34,16.34,0,0,0-.77-6.62,21.47,21.47,0,0,0-3-6,21.71,21.71,0,0,0-4.69-4.83A16.77,16.77,0,0,0,91.86,134.35Z"/><path class="cls-4" d="M103.55,146.86a3.61,3.61,0,0,0-3.15-1.33,5.43,5.43,0,0,0-3.26,1.32,5.49,5.49,0,0,0-1.84,3,3.65,3.65,0,0,0,.79,3.31,9.91,9.91,0,0,1,1.54-2.31A16.66,16.66,0,0,1,101,148,9.25,9.25,0,0,1,103.55,146.86Z"/></g><g class="cls-18"><path class="cls-23" d="M198.44,67.51a1.45,1.45,0,0,0,0-2.89,1.45,1.45,0,0,0,0,2.89Z"/><path class="cls-23" d="M204.5,72.81a31.91,31.91,0,0,1,14.3,18A2.68,2.68,0,1,0,224,89.33,37.37,37.37,0,0,0,207.2,68.18a2.68,2.68,0,0,0-2.7,4.63Z"/><path class="cls-23" d="M92.92,130.61a.72.72,0,0,0,0-1.44.72.72,0,0,0,0,1.44Z"/><path class="cls-23" d="M97.92,131.11c.1,0,.35.07-.07,0l.21,0,.38.09.38.11.2.08s.26.1,0,0,0,0,0,0l.2.09.37.21.3.2.18.13c-.31-.18-.14-.11,0,0a7.41,7.41,0,0,1,.58.54l.26.3c.18.22-.11-.16,0-.05l.1.15a5.72,5.72,0,0,1,.41.67l.09.19c0,.11.08.3,0-.05,0,.13.1.27.15.4a1.34,1.34,0,1,0,2.58-.71,7.09,7.09,0,0,0-2.28-3.38,7.49,7.49,0,0,0-4-1.66,1.35,1.35,0,0,0-1.34,1.34,1.37,1.37,0,0,0,1.34,1.34Z"/><path class="cls-23" d="M122.86,175.07a.72.72,0,0,0,0-1.44.72.72,0,0,0,0,1.44Z"/><path class="cls-23" d="M127.85,173.28a.73.73,0,0,0,0-1.45.73.73,0,0,0,0,1.45Z"/><path class="cls-23" d="M207,184.75a.72.72,0,0,0,0-1.44.72.72,0,0,0,0,1.44Z"/><path class="cls-23" d="M210.56,191.21a.73.73,0,0,0,0-1.45.73.73,0,0,0,0,1.45Z"/></g><circle class="cls-5" cx="164" cy="172" r="1"/><circle class="cls-5" cx="247" cy="190" r="1"/><circle class="cls-5" cx="164" cy="177" r="1"/><circle class="cls-5" cx="248" cy="185" r="1"/><circle class="cls-5" cx="243" cy="184" r="1"/><circle class="cls-5" cx="169" cy="175" r="1"/><circle class="cls-5" cx="159" cy="174" r="1"/></svg>