<svg id="Layer_1" data-name="Layer 1" xmlns="http://www.w3.org/2000/svg" xmlns:xlink="http://www.w3.org/1999/xlink" viewBox="0 0 371 800"><defs><style>.cls-1{fill:none;}.cls-2,.cls-21,.cls-7{fill:#080205;}.cls-2{opacity:0.03;}.cls-3{fill:#edaf7c;}.cls-4{fill:#743030;}.cls-5{opacity:0.2;}.cls-6{clip-path:url(#clip-path);}.cls-8{fill:#eb925a;}.cls-9{fill:#ffb085;}.cls-10{fill:#fff;}.cls-11{fill:#e6e6e6;}.cls-12{fill:#78bab7;}.cls-13{opacity:0.27;}.cls-14{clip-path:url(#clip-path-2);}.cls-15{fill:#593030;}.cls-16{fill:#5a3926;}.cls-17{fill:#ff6b74;opacity:0.28;}.cls-18{opacity:0.08;}.cls-19{clip-path:url(#clip-path-3);}.cls-20{fill:#ff353b;}.cls-21{opacity:0.3;}.cls-22{fill:#899bc1;}.cls-23{fill:#b3b3b3;}</style><clipPath id="clip-path"><path class="cls-1" d="M256.4,188.09a37.11,37.11,0,0,1,9.64,18.4c2.92,15.23-4.38,32.4-17.88,39.75-1.93,1-14,7.65-26.47,1.59A29.07,29.07,0,0,1,209,235.09"/></clipPath><clipPath id="clip-path-2"><path class="cls-1" d="M231.36,394.44c-3.64-4.43-7.75-8.67-9.7-14.13-3.17-8.86-.7-17.26.54-21.52,10.31-35.58,29.82-60.49,24.28-81.66a17.79,17.79,0,0,0-3.62-7.41c-3.55-4.13-7.85-4.68-19.25-5.23-3.42-.17-7.48-.33-12.35-.59,0,0-.82,0-2.49-.07q-3.77,9.27-7.51,18.55l-26.13,64.54c0-22.16,1.15-44.24,4.42-66.05q1.2-8.1,2.82-16.16c-1.9.12-3.89.26-6,.42a10.92,10.92,0,0,0-5.9,2c-1.82,1.38-2.87,3.57-3.86,5.68l-.66,1.4h0l-14.72,31.5c-3.14,6.72-6.34,14.47-3.65,21.41,1.83,4.7,6.14,8.18,7.27,13.11.93,4.05-.48,8.23-1.78,12.16-15.91,48.06-17.67,102.18.94,149.18.66,1.67,1.47,3.47,3,4.28a7.24,7.24,0,0,0,4.4.3q10.45-1.41,21-2.31a430.2,430.2,0,0,1,61-.93C260.47,468.63,255.48,423.81,231.36,394.44Z"/></clipPath><clipPath id="clip-path-3"><path class="cls-1" d="M243.85,167.78c-12.08,1.41-22.53-10.73-27.55-16.55a76.79,76.79,0,0,1-15.81-30.58,236.78,236.78,0,0,1-62.82,50.06c-2.29,1.26-4.92,2.5-7.37,1.63-3.27-1.15-4.45-5.37-4.77-9-2.12-23.74,12.85-47.35,33.62-56.6,23.43-10.44,48.75-3.56,64.25,8.72,19.4,15.38,31,44.36,24.84,50.8C247.18,167.37,245.83,167.54,243.85,167.78Z"/></clipPath></defs><title>people</title><ellipse class="cls-2" cx="224.5" cy="750.81" rx="121.5" ry="28.59"/><path class="cls-3" d="M292.35,333.55a220.81,220.81,0,0,1,13-34.93c1.63-3.43,3.4-6.9,6.11-9.45a4.67,4.67,0,0,1,2.68-1.47,5.25,5.25,0,0,1,2.93,1,107.52,107.52,0,0,1,16.64,11.92,2.86,2.86,0,0,1,1,1.35,3,3,0,0,1-.43,2,50.8,50.8,0,0,1-14.2,17.79,23.32,23.32,0,0,0-5.06,4.65,20,20,0,0,0-2.47,6l-4,13.76"/><path class="cls-3" d="M293.54,330.9l16.19,12.59q2-6.87,4-13.75c.31-1.06.63-2.12,1-3.15a48.41,48.41,0,0,1-16.43-10.86C296.58,320.72,295,325.78,293.54,330.9Z"/><path class="cls-4" d="M256.75,187.81a37.07,37.07,0,0,1,9.64,18.39c2.93,15.24-4.38,32.41-17.88,39.76-1.93,1-14,7.64-26.46,1.59a29,29,0,0,1-12.68-12.74"/><g class="cls-5"><g class="cls-6"><path class="cls-7" d="M234.2,207.77a50,50,0,0,0,18.54,27.33A52.09,52.09,0,0,1,228.49,210Z"/><path class="cls-7" d="M218.42,219.67A36.29,36.29,0,0,0,222,226a26.93,26.93,0,0,0,5.31,4.86,66.69,66.69,0,0,0,13.11,7.67,66.5,66.5,0,0,1-14.63-4.92c-1.19-.56-2.35-1.13-3.53-1.8a21.11,21.11,0,0,1-3.49-2.43,40,40,0,0,1-5.49-6.28Z"/><path class="cls-7" d="M211.21,228.47a24.61,24.61,0,0,0,7.64,9.3,32.1,32.1,0,0,0,5.48,3.17c1.94.92,4,1.71,6,2.5-2.15-.28-4.3-.55-6.46-1a34.37,34.37,0,0,1-6.46-1.89A28.57,28.57,0,0,1,206.13,232Z"/><path class="cls-7" d="M235.52,182.49a86.7,86.7,0,0,0,13,21.34c5.29,6.61,11.23,12.74,17.18,18.85-6.62-5.31-13.23-10.65-19.4-16.67a107.52,107.52,0,0,1-8.79-9.62,79.13,79.13,0,0,1-7.45-11Z"/></g></g><path class="cls-4" d="M134.6,179.24c-3.63-2.76-13.77-11.23-16.79-25.66-4.1-19.56,8-35.13,12.63-41,12-15.47,32.71-26.42,49.84-23.66,4.34.7,9,2.37,18.36,3,10.71.73,13.16-.89,19.77.16,10.91,1.75,18.34,8.46,22.73,12.36,4.05,3.58,15.36,13.92,18.67,31.63,4.08,21.78-7,38.6-9.17,41.79"/><path class="cls-3" d="M184.08,245.63a98.83,98.83,0,0,1-2.7,34.19,5.48,5.48,0,0,0-.11,3.59c.6,1.27,2,1.69,3.34,2l8.25,1.89a3.74,3.74,0,0,0,2.62,0,4.42,4.42,0,0,0,1.68-2.52l18.26-49.22"/><path class="cls-8" d="M216.91,230.68q-4.38,11.87-8.79,23.71a26.93,26.93,0,0,1-11.39,4.46,39,39,0,0,1-8.36-.22l-3.67-.36a102,102,0,0,0-.21-17.12Z"/><path class="cls-3" d="M159.3,110.79c-3.65,2-16.29,9.15-23.16,24.09-7.39,16.09,1.63,20-1.76,55.08-1.28,13.31-3.06,22.63,1.71,33.95,2.1,5,5.71,9.07,9.65,12.53,19.31,16.94,48.35,19.41,70,6.11s34.5-41.45,31.37-68.16A95.75,95.75,0,0,0,240.58,150c-5-12.79-11-28-25.48-37.6C198.92,101.67,176.73,101.24,159.3,110.79Z"/><path class="cls-3" d="M237.11,180.68c3.37-7.74,7.87-16.12,15.1-17.76,6.88-1.55,14,4.37,16.25,12.23a25.8,25.8,0,0,1-5.8,23.83,21.44,21.44,0,0,1-20.8,6"/><path class="cls-8" d="M261.87,173.1c-1.44,1.63-2.82,3.12-4.1,4.68s-2.49,3.12-3.61,4.76-2.17,3.33-3.16,5.09-1.92,3.6-2.95,5.53a16.76,16.76,0,0,1,.73-6.52,21.49,21.49,0,0,1,2.87-5.92,20.86,20.86,0,0,1,4.48-4.75A15.44,15.44,0,0,1,261.87,173.1Z"/><path class="cls-8" d="M250.72,185.41a3.4,3.4,0,0,1,3-1.32,5.25,5.25,0,0,1,3.12,1.3,5.49,5.49,0,0,1,1.75,3,3.68,3.68,0,0,1-.75,3.26,9.58,9.58,0,0,0-1.47-2.27,14.85,14.85,0,0,0-1.53-1.54,15.34,15.34,0,0,0-1.71-1.3A8.53,8.53,0,0,0,250.72,185.41Z"/><path class="cls-9" d="M112.41,315.64a117.82,117.82,0,0,0-2.7-17.74c-.61-2.66-1.38-5.43-3.21-7.37a15.16,15.16,0,0,0-5.71-3.34l-6.72-2.7a3.94,3.94,0,0,0-2.17-.42c-1.6.29-2.3,2.52-1.72,4.12a8,8,0,0,0,3.38,3.59,10.25,10.25,0,0,1,3.64,3.34c2.18,4.05-1.7,8.84-1.71,13.49a7.89,7.89,0,0,0,5,7.33"/><path class="cls-3" d="M119.25,334.92a219.84,219.84,0,0,0-13-34.93c-1.63-3.43-3.39-6.9-6.11-9.45a4.64,4.64,0,0,0-2.68-1.47,5.27,5.27,0,0,0-2.93,1A107.52,107.52,0,0,0,77.89,302a2.84,2.84,0,0,0-1,1.35,3,3,0,0,0,.42,2A50.83,50.83,0,0,0,91.5,323.14a23.27,23.27,0,0,1,5,4.65,19.93,19.93,0,0,1,2.47,6l4,13.75"/><path class="cls-7" d="M91.16,284.86a3.41,3.41,0,0,0-1,2,3,3,0,0,0,.71,2,17.6,17.6,0,0,0,3.36,3c.62.46,1.24.91,1.86,1.41A9.59,9.59,0,0,1,97.9,295a5.35,5.35,0,0,1,.58,1.25,4.64,4.64,0,0,1,.17.64c0,.22.11.43.13.65a8.25,8.25,0,0,1,0,1.31c0,.21,0,.43,0,.64l-.09.63a29,29,0,0,1-1.38,4.62,15,15,0,0,0-1,4.35,7.52,7.52,0,0,0,1.11,4.19,7.72,7.72,0,0,0,3.28,3,7.72,7.72,0,0,1-5.59-7.23,14.76,14.76,0,0,1,.85-4.83,31.27,31.27,0,0,0,1.25-4.41l.08-.53a4.9,4.9,0,0,0,0-.54,7.2,7.2,0,0,0,0-1c0-.18-.07-.34-.09-.51a3.07,3.07,0,0,0-.13-.5,4.31,4.31,0,0,0-.37-.88,8.63,8.63,0,0,0-1.45-1.55l-1.75-1.51a15.4,15.4,0,0,1-3.24-3.52,3.53,3.53,0,0,1-.51-2.46A3.33,3.33,0,0,1,91.16,284.86Z"/><path class="cls-3" d="M118.06,332.27l-16.18,12.59-4-13.75c-.31-1.06-.62-2.12-1-3.15a48.63,48.63,0,0,0,16.43-10.85Q115.92,324.58,118.06,332.27Z"/><path class="cls-10" d="M95.52,340.32c2.42-3.81,8.07-11.44,17.67-14.63a28.27,28.27,0,0,1,6.15-1.3c0,5.92,3.19,10.93,7.66,12.33,4.81,1.51,9-1.78,9.19-2,2.38-2.64,3.56-6.29,4.68-9.8,5.85-18.48,11.87-37.35,22.79-52.8,3-4.25,7.66-8.59,12.18-6.65,4.37,1.88,5.24,8.2,5.28,13.39.23,32.07-6.49,62.54-8.35,68.34s-7.85,23.72-17.93,31.82a32.81,32.81,0,0,1-11.65,6,30.71,30.71,0,0,1-9.77.43C124.59,384.27,108.86,367.45,95.52,340.32Z"/><path class="cls-7" d="M95.52,340.32c13.34,27.13,29.07,43.95,37.9,45.08a30.71,30.71,0,0,0,9.77-.43,32.81,32.81,0,0,0,11.65-6c10.08-8.09,16-25.89,17.93-31.82.41-1.27,1-3.73,1.8-7.13A131.21,131.21,0,0,1,165,355c-5,6.66-11.07,13.12-18.87,14.73-8.45,1.75-17-2.63-23.71-8.37-8.83-7.54-15.55-17.39-21.47-27.79A41.11,41.11,0,0,0,95.52,340.32Z"/><path class="cls-11" d="M95.51,340.5c2.42-3.81,8.07-11.44,17.67-14.63a27.69,27.69,0,0,1,6.15-1.3c0,5.92,3.19,10.93,7.67,12.33,4.81,1.51,9-1.78,9.18-2,2.38-2.64,3.56-6.28,4.68-9.79,5.86-18.49,11.87-37.35,22.79-52.81,3-4.24,7.66-8.59,12.18-6.64s5.24,8.19,5.28,13.38c.23,32.08-6.49,62.54-8.35,68.35s-7.85,23.72-17.93,31.82a32.6,32.6,0,0,1-11.64,5.94,30.62,30.62,0,0,1-9.78.44C124.58,384.45,108.85,367.63,95.51,340.5Z"/><path class="cls-3" d="M155.37,503q29.1,103.66,65.15,205c.92,2.58,1.83,5.52.69,8-.9,2-2.85,3.08-4.72,4-9.71,4.85-27.59,7.44-34.55,8.87-5.82,1.2-9.88,1.73-10.4,4-.56,2.48,3.18,5.37,4,6,14.63,11.33,45.87-.44,54.7,4.59a8.57,8.57,0,0,0,2.87,1.06c4.09.7,8.14-1.92,10-4,4.24-4.58,2.63-12.08,1.26-18.33-4.66-21.39-2.92-43.73-5.25-65.55-3-28.24-16.42-86.2-34-162.61"/><path class="cls-8" d="M243.3,740a14,14,0,0,1-5.37,3.5q-.44-8.26-1.18-16.49c-.21-2.41-.45-4.82-.7-7.23-4.92-47.38-16.4-94-27.83-140.23-2.7-10.91-5.41-21.86-9.48-32.3-3.25-8.29-7.57-16.5-14.47-21.86s-15.88-7.35-24.68-8.55q-2.06-7.2-4.07-14.39l49.76-8.94c17.61,76.42,31,134.38,34,162.61,2.24,21,.71,42.44,4.75,63.09.1.53.2,1,.32,1.58l.18.88C245.93,727.93,247.53,735.43,243.3,740Z"/><path class="cls-7" d="M243.18,740.52a14,14,0,0,1-5.37,3.49,9.21,9.21,0,0,1-4.67.48,8.47,8.47,0,0,1-2.87-1.06c-8.83-5-40.08,6.74-54.7-4.59-.82-.63-4.56-3.53-4-6,.52-2.31,4.58-2.84,10.4-4,2.61-.54,6.73-1.24,11.4-2.15A17.15,17.15,0,0,0,199,730.3a32.93,32.93,0,0,0,9.15,1.67c8.13.69,16.64,1.27,24.14-2.06a28,28,0,0,0,4.32-2.39,60.73,60.73,0,0,0,7.63-6.21l.18.88C245.81,728.44,247.42,735.93,243.18,740.52Z"/><path class="cls-3" d="M189.07,488.32C214.28,590.43,232.53,666.13,237.93,690c3.72,16.5,5.58,24.75,6.1,29.65,1.66,15.52.25,24.59,5.93,37.06,1.77,3.89,6.44,14.13,11.89,13.76,6.85-.46,10.49-17.43,10.68-18.36a51.12,51.12,0,0,0,.05-18.61c-2-17-9.36-27.72-12.19-50.85-3.87-31.64,8.07-64.44.26-95.26-2.92-11.51-4.11-10.68-8.29-25.1A231,231,0,0,1,244,481.58"/><path class="cls-8" d="M243.76,509.31a68.13,68.13,0,0,0-20.64.85c-9.1,1.67-17.89,4.76-26.59,8q-3.56-14.42-7.31-29.67l54.91-6.75A238.23,238.23,0,0,0,243.76,509.31Z"/><path class="cls-7" d="M272.52,752.16c-.2.93-3.84,17.9-10.69,18.36-5.45.37-10.11-9.88-11.89-13.76a53.31,53.31,0,0,1-4.61-18.91,25,25,0,0,0,6.87,4.69,15.13,15.13,0,0,0,6.44,1.54c4.53-.07,8.66-3,11.42-6.73a28.26,28.26,0,0,0,2.47-4.05l0,.25A50.79,50.79,0,0,1,272.52,752.16Z"/><path class="cls-8" d="M231.62,584.16l-.51,6.88c-.12,1.7,2.42,1.69,2.55,0l.5-6.88c.12-1.7-2.42-1.69-2.54,0Z"/><path class="cls-8" d="M192.85,599v5.29a1.27,1.27,0,1,0,2.54,0V599a1.27,1.27,0,1,0-2.54,0Z"/><path class="cls-10" d="M177.15,734.43a1.33,1.33,0,0,0,0-2.65,1.33,1.33,0,0,0,0,2.65Z"/><path class="cls-10" d="M181.9,733.76a33.25,33.25,0,0,0,7.1-.89c1.6-.38.92-2.93-.67-2.55a29.61,29.61,0,0,1-6.43.79c-1.63,0-1.64,2.68,0,2.65Z"/><path class="cls-10" d="M230.39,765.49a1.33,1.33,0,0,0,0-2.65,1.33,1.33,0,0,0,0,2.65Z"/><path class="cls-10" d="M233.87,761.66a32.94,32.94,0,0,0,2.78-9.86c.2-1.69-2.34-1.67-2.55,0a29,29,0,0,1-2.42,8.53c-.7,1.53,1.49,2.87,2.19,1.33Z"/><path class="cls-3" d="M235.41,265.54c-4.83,7-10.49,13.39-17.51,18-9.57,6.27-22.09,8.76-32.5,4.08-7.8-3.51-13.53-10.56-17.33-18.44a8.78,8.78,0,0,1,2-2.15,10.86,10.86,0,0,1,5.91-2c23.87-1.82,34.87-1.23,34.87-1.23C223.51,264.43,230.69,264.46,235.41,265.54Z"/><path class="cls-10" d="M243,502.81a430.81,430.81,0,0,0-82,3.24,7.39,7.39,0,0,1-4.4-.3c-1.55-.81-2.36-2.61-3-4.29-18.6-47-16.84-101.11-.94-149.18,1.3-3.93,2.71-8.11,1.78-12.15-1.48-6.49-4.89-8.36-7.26-13.12-6.27-12.58,7.92-25.89,18.25-52.14.76-1.92,2.45-6.34,6.74-8.82a14.92,14.92,0,0,1,9.49-1.59l-2.09,16.41a69.42,69.42,0,0,0,21.09,1.24l6.21-18.35c17.14-.36,29.9,1.22,33.25,3.7a16.74,16.74,0,0,1,2.32,2.12,17.77,17.77,0,0,1,3.63,7.41c5.53,21.16-14,46.07-24.29,81.66-1.23,4.26-3.71,12.65-.54,21.52,2,5.45,6.07,9.7,9.7,14.13C255.05,423.67,260,468.48,243,502.81Z"/><path class="cls-12" d="M201,282l-25.87,64.92c0-22.16,1.15-44.24,4.42-66.05A103.28,103.28,0,0,0,201,282Z"/><g class="cls-13"><g class="cls-14"><path class="cls-7" d="M184.26,514.29c-2.4-43.45-5.22-86.9-7-130.38-.51-12.32-.83-24.66-.84-37a1.28,1.28,0,0,0-2.56,0c0,43.41,3.41,86.84,5.8,130.16q1,18.6,2,37.21c.09,1.68,2.65,1.69,2.56,0Z"/><path class="cls-7" d="M222.74,259.15c-.63,11.78-3.49,23.21-7,34.38-.86,2.71-1.76,5.41-2.68,8.11-.83,2.42-1.42,5.91-2.86,8-1.57,2.25-4,.93-6.11.53a6.46,6.46,0,0,0-4.41.53,1.35,1.35,0,0,0-.46,1.8,23,23,0,0,1,2,15.63c-1.21,5.1-4.19,9.56-6.94,13.9q-8.76,13.8-18.73,26.74c-1,1.31.79,3.18,1.81,1.86A361.71,361.71,0,0,0,198,340.88c2.82-4.55,5.43-9.29,6.12-14.72a25.82,25.82,0,0,0-2.73-15l-.46,1.8c3.38-1.81,7.43,2.64,10.66-.86,1.61-1.75,2.16-4.73,2.92-6.93q1.56-4.5,3-9c3.91-12,7.07-24.3,7.76-37,.09-1.69-2.48-1.68-2.57,0Z"/><path class="cls-7" d="M165.33,270.39l-4.59,26.49c-.55,3.17-1.59,7,.09,10a5.23,5.23,0,0,0,6,2.7l-1.24-2.2c-6.65,7.54-4.87,18.44-3,27.52A171.18,171.18,0,0,0,173.83,370c.69,1.54,2.89.2,2.22-1.33a167.46,167.46,0,0,1-10.37-31.55c-1.92-8.7-4.79-20.44,1.75-27.86a1.33,1.33,0,0,0-1.25-2.2c-6.42,1.85-2.05-14.69-1.55-17.58l3.17-18.35c.29-1.65-2.18-2.36-2.47-.69Z"/><path class="cls-7" d="M171.37,380.65a1.33,1.33,0,0,0,0-2.66,1.33,1.33,0,0,0,0,2.66Z"/><path class="cls-7" d="M171.89,396.53a1.33,1.33,0,0,0,0-2.65,1.33,1.33,0,0,0,0,2.65Z"/><path class="cls-7" d="M172.41,411.88a1.33,1.33,0,0,0,0-2.65,1.33,1.33,0,0,0,0,2.65Z"/><path class="cls-7" d="M172.41,426.18a1.33,1.33,0,0,0,0-2.65,1.33,1.33,0,0,0,0,2.65Z"/><path class="cls-7" d="M174,442.59a1.33,1.33,0,0,0,0-2.65,1.33,1.33,0,0,0,0,2.65Z"/><path class="cls-7" d="M174.48,455.3a1.33,1.33,0,0,0,0-2.65,1.33,1.33,0,0,0,0,2.65Z"/><path class="cls-7" d="M175.52,468.54a1.33,1.33,0,0,0,0-2.66,1.33,1.33,0,0,0,0,2.66Z"/><path class="cls-7" d="M175.52,480.71a1.33,1.33,0,0,0,0-2.65,1.33,1.33,0,0,0,0,2.65Z"/><path class="cls-7" d="M176,492.89a1.33,1.33,0,0,0,0-2.65,1.33,1.33,0,0,0,0,2.65Z"/></g></g><path class="cls-10" d="M311.51,345.71c-2.23-3.93-7.52-11.84-17-15.51a28.53,28.53,0,0,0-6.08-1.61c-.23,5.92-3.7,10.76-8.23,11.93-4.88,1.26-8.89-2.23-9.08-2.47-2.25-2.76-3.27-6.45-4.22-10-5-18.76-10.11-37.9-20.29-53.9-2.79-4.39-7.25-9-11.86-7.25-4.45,1.66-5.61,7.92-5.89,13.1-1.74,32,3.55,62.8,5.14,68.69s6.73,24.09,16.41,32.69a32.91,32.91,0,0,0,11.36,6.53,31,31,0,0,0,9.74.93C280.43,388.13,296.93,372.13,311.51,345.71Z"/><path class="cls-11" d="M311.51,345.71c-14.59,26.42-31.08,42.42-40,43.11a31,31,0,0,1-9.74-.93,32.91,32.91,0,0,1-11.36-6.53c-9.69-8.6-14.79-26.68-16.42-32.69-.35-1.29-.87-3.78-1.46-7.22a131.48,131.48,0,0,0,8.91,15.36c4.65,6.89,10.44,13.66,18.15,15.66,8.36,2.17,17.1-1.77,24.07-7.16,9.18-7.09,16.35-16.58,22.75-26.66A40.49,40.49,0,0,1,311.51,345.71Z"/><path class="cls-15" d="M242.49,171.83C230.41,173.25,220,161.11,215,155.29a76.54,76.54,0,0,1-15.81-30.58,237,237,0,0,1-62.83,50.06c-2.29,1.25-4.92,2.5-7.36,1.63-3.28-1.15-4.45-5.38-4.78-9C122.05,143.65,137,120,157.79,110.78c23.43-10.43,48.75-3.55,64.25,8.73,19.41,15.38,31,44.36,24.84,50.8C245.82,171.42,244.48,171.6,242.49,171.83Z"/><path class="cls-4" d="M243.68,167.6c-12.08,1.41-22.53-10.72-27.55-16.55a76.72,76.72,0,0,1-15.81-30.58,236.58,236.58,0,0,1-62.82,50.06c-2.29,1.26-4.92,2.5-7.37,1.64-3.27-1.16-4.45-5.38-4.77-9-2.12-23.74,12.85-47.35,33.62-56.6,23.43-10.44,48.75-3.56,64.25,8.73,19.4,15.38,31,44.35,24.84,50.79C247,167.19,245.66,167.37,243.68,167.6Z"/><path class="cls-8" d="M170.88,181.27a43.09,43.09,0,0,1,3.2,8.78c.38,1.51.7,3,.95,4.59.13.77.23,1.55.34,2.33,0,.4.08.75.12,1.19a4.62,4.62,0,0,1-.12,1.64,2.77,2.77,0,0,1-.54,1,2.56,2.56,0,0,1-1,.66,4.38,4.38,0,0,1-1.53.24c-.18,0-.29,0-.44,0s-.27.05-.41.07a4,4,0,0,0-.82.29,4.61,4.61,0,0,0-2.41,2.57,3.53,3.53,0,0,0-.17,1.76,3.81,3.81,0,0,0,.83,1.7,3.44,3.44,0,0,0,3.72,1.26,3.07,3.07,0,0,1-2.26.65,4.41,4.41,0,0,1-2.31-1,4.93,4.93,0,0,1-1.59-2.14,5.12,5.12,0,0,1-.28-1.4,5.58,5.58,0,0,1,0-.71,3.29,3.29,0,0,1,.11-.7,6,6,0,0,1,1.18-2.51,6.82,6.82,0,0,1,2.09-1.76,6.24,6.24,0,0,1,1.28-.52c.23,0,.46-.12.69-.15a6,6,0,0,1,.68-.07,2.89,2.89,0,0,0,.7-.08s-.08.09,0,0a1.89,1.89,0,0,0,0-.66l-.1-1.11-.23-2.27c-.15-1.51-.33-3-.52-4.54Z"/><path class="cls-7" d="M165.45,216.5a26,26,0,0,0,8.15,4.58,19.89,19.89,0,0,0,4.41,1l.55.07.56,0c.37,0,.75,0,1.12,0,.74-.05,1.49,0,2.23-.15a20.82,20.82,0,0,0,8.47-2.91,21.83,21.83,0,0,0,6.73-6.48,16.31,16.31,0,0,1-5.65,8.12,18.57,18.57,0,0,1-9.28,3.77,23.49,23.49,0,0,1-2.52.12c-.42,0-.84-.06-1.27-.09l-.63-.05c-.21,0-.41-.07-.62-.1a17.41,17.41,0,0,1-4.8-1.5A17.92,17.92,0,0,1,165.45,216.5Z"/><path class="cls-7" d="M193.34,210.71a4.25,4.25,0,0,1,2.49.16A5.68,5.68,0,0,1,198,212.3a5.58,5.58,0,0,1,1.31,2.26,4.1,4.1,0,0,1,0,2.57,12,12,0,0,0-1-2.09,10.39,10.39,0,0,0-1.31-1.7,11.44,11.44,0,0,0-1.6-1.41A15.84,15.84,0,0,0,193.34,210.71Z"/><path class="cls-4" d="M189.05,161.42a9.84,9.84,0,0,1,.25-2.37,14.33,14.33,0,0,1,.76-2.17,13.3,13.3,0,0,1,2.56-3.7,16,16,0,0,1,7.51-4.32,15.69,15.69,0,0,1,8.54.16,19.84,19.84,0,0,1,2,.82,19,19,0,0,1,1.89,1.15,17,17,0,0,1,1.67,1.5,11,11,0,0,1,1.35,1.92,18.7,18.7,0,0,1-2.1.68c-.66.23-1.28.41-1.87.58s-1.17.38-1.71.52-1.1.35-1.62.48c-2.09.62-4,1.15-5.94,1.64s-3.85.94-6,1.4c-.52.12-1,.26-1.61.36s-1.12.27-1.73.4-1.2.31-1.88.44S189.85,161.27,189.05,161.42Z"/><path class="cls-8" d="M193.82,172.84c-.16.49-.33.93-.49,1.36l-.47,1.28-.44,1.29c-.16.44-.3.89-.49,1.37a3.67,3.67,0,0,1-.24-1.5,5,5,0,0,1,.29-1.49,5.16,5.16,0,0,1,.71-1.33A3.44,3.44,0,0,1,193.82,172.84Z"/><path class="cls-10" d="M219.15,184.07c.32,7.52-6.26,13-12.46,13.65s-10.64-3.87-11.33-4.59c-2-12,4.86-21.06,11.33-21.49C212,171.28,218.85,176.69,219.15,184.07Z"/><path class="cls-16" d="M194.82,193.78a23.54,23.54,0,0,1-.71-12.31,25,25,0,0,1,.81-3.08,18.55,18.55,0,0,1,1.3-3.08,15.23,15.23,0,0,1,2-2.92,3.4,3.4,0,0,1,.32-.34c.11-.12.19-.2.35-.35a8.94,8.94,0,0,1,.83-.68,11.89,11.89,0,0,1,1.64-1,12.91,12.91,0,0,1,3.6-1.19,13.4,13.4,0,0,1,1.9-.16,10.58,10.58,0,0,1,1.93.14,11,11,0,0,1,3.59,1.25,14.44,14.44,0,0,1,4,3.31l.51.62c.07.08.26.34.51.67,1.06,1.41,1.38,1.87,2,2a1.49,1.49,0,0,0,.52,0,3,3,0,0,0,2-1.73,8.19,8.19,0,0,1-.78,3.09,3.35,3.35,0,0,1-1.4,1.47,2.56,2.56,0,0,1-1.35.26,3.12,3.12,0,0,1-1.32-.46,12,12,0,0,1-1.42-1.14c-.38-.33-.72-.63-1.07-.9l-.53-.39-.56-.4c-.36-.26-.73-.49-1.09-.71a9.39,9.39,0,0,0-4.27-1.46,8.34,8.34,0,0,0-4.09.91,7.74,7.74,0,0,0-.89.53l-.32.23-.18.17-.2.19a11.88,11.88,0,0,0-1.49,1.82,29.43,29.43,0,0,0-2.49,4.68c-.75,1.7-1.41,3.46-2,5.28S195.37,191.79,194.82,193.78Z"/><ellipse class="cls-16" cx="209.19" cy="183.95" rx="7.79" ry="11.59"/><path class="cls-8" d="M176.83,227.41c.49.08.93.18,1.37.27l1.3.26,1.3.22c.44.08.89.14,1.38.25a3.4,3.4,0,0,1-1.39.51,4.48,4.48,0,0,1-1.46,0,4.57,4.57,0,0,1-1.38-.5A3.26,3.26,0,0,1,176.83,227.41Z"/><path class="cls-8" d="M163.44,173.1a3.13,3.13,0,0,1,1.11.79,4.46,4.46,0,0,1,.8,1.13,5,5,0,0,1,.43,1.31,3.66,3.66,0,0,1,0,1.4c-.24-.41-.42-.8-.61-1.19l-.56-1.13-.57-1.12C163.84,173.91,163.63,173.53,163.44,173.1Z"/><path class="cls-10" d="M143.57,187A12.28,12.28,0,0,0,156,197.81c5.35-.29,8.47-5,9-5.79,0-11.33-7-18.75-12.57-18.26C147.81,174.17,142.8,180.09,143.57,187Z"/><path class="cls-16" d="M165.49,192.55a23.71,23.71,0,0,0-1.11-11.45,26.39,26.39,0,0,0-1.1-2.73,18.32,18.32,0,0,0-1.54-2.66,13.38,13.38,0,0,0-2.12-2.41,2.69,2.69,0,0,0-.32-.27l-.34-.27a8.21,8.21,0,0,0-.8-.52,10.39,10.39,0,0,0-1.53-.7,9.74,9.74,0,0,0-4.84-.49,7.9,7.9,0,0,0-1.61.4,9,9,0,0,0-2.86,1.64,11.88,11.88,0,0,0-2.12,2.32,12.36,12.36,0,0,0-.8,1.28l-.35.64-.33.69c-.7,1.45-.91,1.91-1.39,2.09a1.1,1.1,0,0,1-.44.07,2.62,2.62,0,0,1-1.95-1.31,8,8,0,0,0,1.09,2.74,2.85,2.85,0,0,0,1.38,1.16,2,2,0,0,0,1.18.06,2.56,2.56,0,0,0,1-.61,11.42,11.42,0,0,0,1.05-1.24c.27-.36.52-.68.78-1l.39-.43.42-.45c.27-.29.55-.55.82-.8a7.71,7.71,0,0,1,3.41-1.94,6.57,6.57,0,0,1,3.58.28,5.76,5.76,0,0,1,.83.36l.31.18a1.1,1.1,0,0,1,.17.13l.2.14a11,11,0,0,1,1.51,1.47,27.51,27.51,0,0,1,2.75,4c.87,1.46,1.67,3,2.44,4.59S164.75,190.79,165.49,192.55Z"/><ellipse class="cls-16" cx="156.14" cy="185.72" rx="6.67" ry="10.81" transform="translate(-24.68 23.93) rotate(-8.12)"/><path class="cls-4" d="M141.32,154.69a9.73,9.73,0,0,1,1.48-1.82,14.9,14.9,0,0,1,1.8-1.36,17.58,17.58,0,0,1,2-1,15.8,15.8,0,0,1,2.11-.6,15.48,15.48,0,0,1,8.55.79,16.36,16.36,0,0,1,7,5.11c.44.6.86,1.22,1.24,1.85s.66,1.36.94,2.05A17.69,17.69,0,0,1,167,162a11.11,11.11,0,0,1,.08,2.38,21.05,21.05,0,0,1-2.1-.66c-.67-.19-1.28-.4-1.86-.61s-1.17-.36-1.7-.56-1.1-.35-1.6-.54c-2.07-.71-3.94-1.39-5.81-2.11s-3.69-1.46-5.68-2.3c-.5-.22-1-.39-1.54-.65s-1.07-.42-1.64-.68-1.16-.44-1.8-.72S142.07,155,141.32,154.69Z"/><ellipse class="cls-17" cx="221.79" cy="207.04" rx="11.96" ry="10.32"/><ellipse class="cls-17" cx="145.96" cy="208.63" rx="11.96" ry="10.32"/><g class="cls-18"><g class="cls-19"><path class="cls-7" d="M124.22,170.84c2.91-5.75,5.85-11.56,9.1-17.22a118.46,118.46,0,0,1,11-16.2,69.93,69.93,0,0,1,14.13-13.22,47.19,47.19,0,0,1,17.28-7.63,46.87,46.87,0,0,0-16.39,8.92,68.13,68.13,0,0,0-12.62,13.9,115.81,115.81,0,0,0-9.35,16.51c-2.72,5.76-5.15,11.69-7.6,17.67Z"/><path class="cls-7" d="M122.71,170.76c3.46-23.78,15.62-45.55,33-60.15a95,95,0,0,0-26.92,60.82Z"/><path class="cls-7" d="M128.5,174a86.3,86.3,0,0,1,8.6-11.67,118.9,118.9,0,0,1,10-10.1c7-6.32,14.39-11.88,21.81-17.42-6.78,6.36-13.56,12.76-19.68,19.69a96.73,96.73,0,0,0-15.38,22.62Z"/><path class="cls-7" d="M245.09,172.75a156.57,156.57,0,0,0-28.18-42.51,157.37,157.37,0,0,1,33.54,39.47Z"/><path class="cls-7" d="M246,171.54a79.6,79.6,0,0,0-7.13-24.22,151.07,151.07,0,0,0-13-22.25,150.2,150.2,0,0,1,15.69,20.71,94.4,94.4,0,0,1,6.17,11.76,76.34,76.34,0,0,1,4.3,12.85Z"/></g></g><path class="cls-10" d="M154.21,119.62c-4.64-11.1-8-19.53-9.76-23.72a9.84,9.84,0,0,1-.81-6.22,10.63,10.63,0,0,1,2.09-3.74,107.59,107.59,0,0,1,22-21.62A5.85,5.85,0,0,1,170.48,63a5.78,5.78,0,0,1,2.79.68A149.67,149.67,0,0,1,204.41,82a7.43,7.43,0,0,1,2.53,2.75,6.77,6.77,0,0,1,.41,3.67c-.41,3.07-1.08,11.74-2,23.65A59.39,59.39,0,0,1,179,122,58.51,58.51,0,0,1,154.21,119.62Z"/><path class="cls-11" d="M205.76,107c-.13,1.64-.26,3.37-.4,5.17a59.22,59.22,0,0,1-26.32,10,58.4,58.4,0,0,1-24.84-2.41c-3.07-7.35-5.58-13.52-7.43-18.08a71.94,71.94,0,0,0,29.72,7.85A115.87,115.87,0,0,0,205.76,107Z"/><polygon class="cls-20" points="179.75 110.25 170.33 111.13 167.18 74.55 176.6 73.67 179.75 110.25"/><polygon class="cls-20" points="190.63 85.86 191.47 95.66 156.3 98.94 155.46 89.14 190.63 85.86"/><path class="cls-16" d="M43.61,192.44c-5.41,2.38-7.89,9-5.54,14.78s8.64,8.56,14,6.18,7.89-9,5.54-14.78S49,190.07,43.61,192.44Zm6.52,16.07a5.67,5.67,0,0,1-7.49-3.29,6.08,6.08,0,0,1,3-7.89,5.67,5.67,0,0,1,7.49,3.3A6.08,6.08,0,0,1,50.13,208.51Z"/><polygon class="cls-10" points="126.17 292.96 55.29 324.1 16.12 227.59 87 196.45 126.17 292.96"/><polygon class="cls-21" points="126.17 292.96 55.29 324.1 16.12 227.59 87 196.45 126.17 292.96"/><polygon class="cls-10" points="118.08 288.91 58.14 315.24 22.38 227.12 82.31 200.79 118.08 288.91"/><path class="cls-16" d="M91.29,201.88,16.86,234.57l-1.52-3.76a13.7,13.7,0,0,1,6.9-17.69l50.52-22.19a12.81,12.81,0,0,1,17,7.19Z"/><polygon class="cls-16" points="88.07 225.99 35.14 249.24 34.28 247.11 87.2 223.86 88.07 225.99"/><polygon class="cls-16" points="84.22 216.52 31.3 239.76 30.43 237.63 83.36 214.38 84.22 216.52"/><polygon class="cls-16" points="86.1 221.13 33.17 244.38 32.31 242.25 85.23 219 86.1 221.13"/><polygon class="cls-16" points="89.85 230.37 36.92 253.62 36.06 251.49 88.98 228.24 89.85 230.37"/><polygon class="cls-16" points="60.1 248.6 38.7 258 37.83 255.87 59.23 246.47 60.1 248.6"/><polygon class="cls-16" points="99.51 254.17 46.58 277.42 45.72 275.29 98.64 252.04 99.51 254.17"/><polygon class="cls-16" points="95.66 244.7 42.74 267.94 41.87 265.81 94.8 242.57 95.66 244.7"/><polygon class="cls-16" points="97.54 249.31 44.61 272.56 43.75 270.43 96.67 247.18 97.54 249.31"/><polygon class="cls-16" points="101.29 258.55 48.36 281.8 47.49 279.67 100.42 256.42 101.29 258.55"/><path class="cls-3" d="M112.41,315.47a118,118,0,0,0-2.7-17.75c-.61-2.66-1.38-5.42-3.21-7.37a15.16,15.16,0,0,0-5.71-3.34l-6.72-2.69a4,4,0,0,0-2.17-.43c-1.6.29-2.3,2.52-1.72,4.12a8,8,0,0,0,3.38,3.6A10.16,10.16,0,0,1,97.2,295c2.18,4.05-1.7,8.83-1.71,13.49a7.88,7.88,0,0,0,5,7.32"/><path class="cls-8" d="M91.16,284.86a3.41,3.41,0,0,0-1,2,3,3,0,0,0,.71,2,17.6,17.6,0,0,0,3.36,3c.62.46,1.24.91,1.86,1.41A9.59,9.59,0,0,1,97.9,295a5.35,5.35,0,0,1,.58,1.25,4.64,4.64,0,0,1,.17.64c0,.22.11.43.13.65a8.25,8.25,0,0,1,0,1.31c0,.21,0,.43,0,.64l-.09.63a29,29,0,0,1-1.38,4.62,15,15,0,0,0-1,4.35,7.52,7.52,0,0,0,1.11,4.19,7.72,7.72,0,0,0,3.28,3,7.72,7.72,0,0,1-5.59-7.23,14.76,14.76,0,0,1,.85-4.83,31.27,31.27,0,0,0,1.25-4.41l.08-.53a4.9,4.9,0,0,0,0-.54,7.2,7.2,0,0,0,0-1c0-.18-.07-.34-.09-.51a3.07,3.07,0,0,0-.13-.5,4.31,4.31,0,0,0-.37-.88,8.63,8.63,0,0,0-1.45-1.55l-1.75-1.51a15.4,15.4,0,0,1-3.24-3.52,3.53,3.53,0,0,1-.51-2.46A3.33,3.33,0,0,1,91.16,284.86Z"/><polygon class="cls-16" points="310.51 277.12 300.74 261.96 311.08 276.71 310.51 277.12"/><polygon class="cls-10" points="329.68 308 333.12 305.42 337.99 312.46 334.55 315.03 329.68 308"/><polygon class="cls-16" points="330.78 317.34 341.29 309.47 343.88 313.22 333.37 321.08 330.78 317.34"/><path class="cls-10" d="M308,276.84l3.59-2.69a2.72,2.72,0,0,1,3.89.66l21,30.44-8.1,6.06-21.05-30.43A3,3,0,0,1,308,276.84Z"/><polygon class="cls-22" points="325.29 309.39 335.79 301.53 338.38 305.27 327.88 313.14 325.29 309.39"/><polygon class="cls-16" points="322.71 299.44 327.54 295.82 328.25 296.84 323.41 300.46 322.71 299.44"/><polygon class="cls-16" points="325.88 304.04 330.72 300.42 331.43 301.44 326.59 305.06 325.88 304.04"/><polygon class="cls-16" points="320.15 295.75 324.99 292.13 325.7 293.15 320.86 296.77 320.15 295.75"/><polygon class="cls-20" points="309.6 284.23 317.85 278.05 324.91 288.27 316.66 294.45 309.6 284.23"/><path class="cls-3" d="M298.71,314.62a118,118,0,0,1,2.7-17.75c.61-2.66,1.39-5.42,3.21-7.37a15.29,15.29,0,0,1,5.71-3.34l6.72-2.69a4.06,4.06,0,0,1,2.17-.43c1.6.3,2.3,2.52,1.72,4.13a8,8,0,0,1-3.37,3.59,10.28,10.28,0,0,0-3.65,3.34c-2.18,4,1.71,8.83,1.71,13.49a7.87,7.87,0,0,1-5,7.32"/><path class="cls-8" d="M320,283.84a3.3,3.3,0,0,1,1.41,1.91,3.56,3.56,0,0,1-.51,2.47,15.82,15.82,0,0,1-3.24,3.52l-1.74,1.51a8.65,8.65,0,0,0-1.46,1.54,6.48,6.48,0,0,0-.37.89,2,2,0,0,0-.12.5,4.42,4.42,0,0,0-.1.5,7.34,7.34,0,0,0,0,1.05,4.73,4.73,0,0,0,0,.53l.08.54a31.65,31.65,0,0,0,1.25,4.41A15,15,0,0,1,316,308a7.74,7.74,0,0,1-5.6,7.23,7.74,7.74,0,0,0,3.28-3,7.56,7.56,0,0,0,1.12-4.18,15.31,15.31,0,0,0-1-4.35,30.36,30.36,0,0,1-1.38-4.62l-.09-.63c0-.21,0-.43,0-.65a8.19,8.19,0,0,1,.06-1.3,4.94,4.94,0,0,1,.12-.65,4.64,4.64,0,0,1,.17-.64,5.79,5.79,0,0,1,.58-1.25,9.59,9.59,0,0,1,1.8-1.76c.62-.5,1.25-1,1.86-1.41a17.6,17.6,0,0,0,3.36-3,3,3,0,0,0,.71-2A3.35,3.35,0,0,0,320,283.84Z"/><path class="cls-3" d="M319.07,293.16a3.7,3.7,0,0,0,.75,3,3.18,3.18,0,0,0,2.56.78c2.66-.41,4.27-4.34,4.33-4.3s-3.7,4.56-2.54,7.88a3.15,3.15,0,0,0,1.48,1.8c1.75.74,4.64-1.21,7-5.12-.25.3-3.65,4.6-2.06,8.06a2.39,2.39,0,0,0,1.19,1.38c2.5.94,7.76-5.23,8.31-11.05.11-1.13.26-3-.93-4.19a3.51,3.51,0,0,0-2.31-.91,4.48,4.48,0,0,0-1.62-4.15,4.27,4.27,0,0,0-3.85-.63c0-.24.3-2.62-1.17-3.81-1.26-1-3-.5-3.85-.23C321.34,283.18,319.25,289.74,319.07,293.16Z"/><path class="cls-8" d="M320.66,287.1a18.09,18.09,0,0,0-1.06,3.19,13.86,13.86,0,0,0-.42,3.32,4.65,4.65,0,0,0,.26,1.59,2.24,2.24,0,0,0,1,1.14,2.54,2.54,0,0,0,2.82-.15,9.64,9.64,0,0,0,1.12-1.17,10.16,10.16,0,0,0,.95-1.31c.26-.45.53-1,.82-1.47s.59-1,.89-1.44c.62-.94,1.28-1.86,2-2.76.34-.45.68-.9,1-1.34l.53-.66.26-.32.14-.17.07-.08,0,0h0l0,.07a.38.38,0,0,0,0,.32.41.41,0,0,0,.17.22l-.17-.36c.77.94.92-.1.79.27h0v0l0,0,0,.06-.08.11-.17.24-.32.46-.64.93c-.42.62-.83,1.24-1.24,1.87q-1.23,1.89-2.37,3.84a29.59,29.59,0,0,0-2.05,3.94,5,5,0,0,0-.36,2,3.33,3.33,0,0,0,.71,1.79,1.77,1.77,0,0,0,.65.54,1.16,1.16,0,0,0,.78,0,5.06,5.06,0,0,0,1.74-1,22.89,22.89,0,0,0,3-3.19,78.2,78.2,0,0,0,5.15-7.37h0a.42.42,0,0,1,.6-.13.45.45,0,0,1,.14.6,64.21,64.21,0,0,1-3.59,5.46c-.63.89-1.3,1.73-1.82,2.64a10.48,10.48,0,0,0-.67,1.44,12.13,12.13,0,0,0-.5,1.51,5.47,5.47,0,0,0,0,3.08,3.51,3.51,0,0,0,.73,1.33,1.47,1.47,0,0,0,1.33.37,5.37,5.37,0,0,0,2.68-1.54,13.65,13.65,0,0,0,2.06-2.47,13.34,13.34,0,0,1-1.94,2.6,5.66,5.66,0,0,1-2.75,1.73,1.84,1.84,0,0,1-1.64-.4,2.75,2.75,0,0,1-.53-.7,5.91,5.91,0,0,1-.36-.76,5.79,5.79,0,0,1-.12-3.37,14.12,14.12,0,0,1,.49-1.6,10.4,10.4,0,0,1,.67-1.54,31.72,31.72,0,0,1,1.79-2.75c1.23-1.77,2.36-3.61,3.42-5.48l.74.47a81,81,0,0,1-5.15,7.5,23.65,23.65,0,0,1-3.14,3.36,6.18,6.18,0,0,1-2.09,1.23,2.17,2.17,0,0,1-1.4,0,2.66,2.66,0,0,1-1.08-.85,4.24,4.24,0,0,1-.92-2.38,5.79,5.79,0,0,1,.44-2.44A29.36,29.36,0,0,1,326,293c.78-1.3,1.58-2.59,2.42-3.85.42-.63.84-1.26,1.27-1.88l.65-.93.33-.46.16-.23.09-.12,0-.05,0,0v0h0c-.13.36,0-.68.8.25l-.17-.36a.55.55,0,0,1,.14.26.51.51,0,0,1-.06.36.64.64,0,0,1-.06.09h0v0l-.07.07-.14.16-.26.32-.53.64q-.54.64-1.05,1.29c-.69.88-1.35,1.77-2,2.68-.32.45-.63.92-.92,1.39s-.54.94-.86,1.44a11.7,11.7,0,0,1-2.27,2.59,2.76,2.76,0,0,1-1.7.57,3.07,3.07,0,0,1-1.69-.48,2.62,2.62,0,0,1-1.11-1.4,5.15,5.15,0,0,1-.22-1.73A16.23,16.23,0,0,1,320.66,287.1Z"/><path class="cls-23" d="M156.51,293.78c-1.77,3.36-3.64,6.67-5.17,10.13a46,46,0,0,0-3.52,10.69,31.53,31.53,0,0,0-.54,5.55,25.4,25.4,0,0,0,.58,5.51,23.5,23.5,0,0,0,.76,2.64,22.44,22.44,0,0,0,1.1,2.51c.86,1.63,1.95,3.2,2.85,5a17.21,17.21,0,0,1,1.71,5.68,22.76,22.76,0,0,1-.09,5.89,47.57,47.57,0,0,1-3.28,11.07c-1.44,3.52-3,7-4.07,10.6a30.46,30.46,0,0,0-1.17,5.52,21.06,21.06,0,0,0,.12,5.66,19.1,19.1,0,0,1-.53-5.69,31.14,31.14,0,0,1,.85-5.69A94.8,94.8,0,0,1,149.79,358a49.49,49.49,0,0,0,3-10.82,22,22,0,0,0,0-5.5,15.85,15.85,0,0,0-1.59-5.17c-.82-1.64-1.89-3.21-2.8-5a21.09,21.09,0,0,1-2-5.55,28.37,28.37,0,0,1,.21-11.61,43.83,43.83,0,0,1,4-10.78c.88-1.69,1.84-3.35,2.82-5S155.48,295.37,156.51,293.78Z"/><path class="cls-23" d="M241.1,275a22.55,22.55,0,0,0-3.51,6.44,60.72,60.72,0,0,0-2,7.1c-1.14,4.82-2.12,9.68-2.86,14.57s-1.31,9.81-1.69,14.76-.53,9.91-.62,14.9a106.85,106.85,0,0,1-.59-15c0-1.25.08-2.5.17-3.75s.18-2.49.28-3.74c.24-2.49.54-5,.93-7.45s.85-4.93,1.37-7.37c.29-1.22.55-2.44.87-3.65l.47-1.82.51-1.8a48.77,48.77,0,0,1,2.49-7.08A19.67,19.67,0,0,1,241.1,275Z"/></svg>