<svg id="Layer_1" data-name="Layer 1" xmlns="http://www.w3.org/2000/svg" viewBox="0 0 800 800"><defs><style>.cls-1{fill:#dcd9c8;}.cls-2{fill:#f1eedb;}.cls-3{fill:#06aaba;}.cls-4{fill:#1d1d1b;opacity:0.05;}</style></defs><title>IGAssets</title><path class="cls-1" d="M533.43,746.4,43,255.94A80.56,80.56,0,0,1,43,142L144.77,40.19a80.59,80.59,0,0,1,114,0L749.18,530.65a80.57,80.57,0,0,1,0,113.94L647.37,746.4A80.56,80.56,0,0,1,533.43,746.4Z"/><path class="cls-2" d="M749.18,255.94,258.72,746.4a80.57,80.57,0,0,1-114,0L43,644.59a80.56,80.56,0,0,1,0-113.94L533.43,40.19a80.57,80.57,0,0,1,113.94,0L749.18,142A80.57,80.57,0,0,1,749.18,255.94Z"/><path class="cls-3" d="M546.08,376.14,378.92,543.3c-13.42,13.42-36,12.59-50.46-1.86L247.93,460.9c-14.45-14.44-15.28-37-1.87-50.45L413.23,243.29c13.41-13.42,36-12.58,50.45,1.86l80.53,80.54C558.66,340.14,559.5,362.72,546.08,376.14Z"/><circle class="cls-1" cx="93.83" cy="588.53" r="23.96"/><circle class="cls-1" cx="148.26" cy="642.96" r="23.96"/><circle class="cls-1" cx="202.68" cy="697.38" r="23.96"/><path class="cls-1" d="M160.71,521.66a24,24,0,1,1-33.89,0A24,24,0,0,1,160.71,521.66Z"/><circle class="cls-1" cx="198.19" cy="593.03" r="23.96"/><path class="cls-1" d="M269.56,630.51a24,24,0,1,1-33.89,0A24,24,0,0,1,269.56,630.51Z"/><circle class="cls-1" cx="193.7" cy="488.67" r="23.96"/><path class="cls-1" d="M265.07,526.15a24,24,0,1,1-33.89,0A24,24,0,0,1,265.07,526.15Z"/><circle class="cls-1" cx="302.55" cy="597.52" r="23.96"/><circle class="cls-1" cx="491.44" cy="190.92" r="23.96"/><circle class="cls-1" cx="545.87" cy="245.35" r="23.96"/><circle class="cls-1" cx="600.29" cy="299.77" r="23.96"/><path class="cls-1" d="M558.32,124.05a24,24,0,1,1-33.89,0A24,24,0,0,1,558.32,124.05Z"/><circle class="cls-1" cx="595.8" cy="195.42" r="23.96"/><path class="cls-1" d="M667.17,232.9a24,24,0,1,1-33.89,0A24,24,0,0,1,667.17,232.9Z"/><circle class="cls-1" cx="591.31" cy="91.06" r="23.96"/><path class="cls-1" d="M662.68,128.54a24,24,0,1,1-33.89,0A24,24,0,0,1,662.68,128.54Z"/><circle class="cls-1" cx="700.16" cy="199.91" r="23.96"/><circle class="cls-2" cx="591.31" cy="697.38" r="23.96"/><path class="cls-2" d="M628.79,626a24,24,0,1,1,0,33.89A24,24,0,0,1,628.79,626Z"/><circle class="cls-2" cx="700.16" cy="588.53" r="23.96"/><path class="cls-2" d="M524.43,630.51a24,24,0,1,1,0,33.89A24,24,0,0,1,524.43,630.51Z"/><circle class="cls-2" cx="595.8" cy="593.03" r="23.96"/><path class="cls-2" d="M633.28,521.66a24,24,0,1,1,0,33.89A24,24,0,0,1,633.28,521.66Z"/><circle class="cls-2" cx="491.44" cy="597.52" r="23.96"/><circle class="cls-2" cx="545.87" cy="543.09" r="23.96"/><circle class="cls-2" cx="600.29" cy="488.67" r="23.96"/><circle class="cls-2" cx="193.7" cy="299.77" r="23.96"/><path class="cls-2" d="M231.18,228.4a24,24,0,1,1,0,33.89A24,24,0,0,1,231.18,228.4Z"/><circle class="cls-2" cx="302.55" cy="190.92" r="23.96"/><path class="cls-2" d="M126.82,232.9a24,24,0,1,1,0,33.89A24,24,0,0,1,126.82,232.9Z"/><circle class="cls-2" cx="198.19" cy="195.42" r="23.96"/><path class="cls-2" d="M235.67,124.05a24,24,0,1,1,0,33.89A24,24,0,0,1,235.67,124.05Z"/><circle class="cls-2" cx="93.83" cy="199.91" r="23.96"/><circle class="cls-2" cx="148.26" cy="145.48" r="23.96"/><circle class="cls-2" cx="202.68" cy="91.06" r="23.96"/><path class="cls-4" d="M577.4,17.72c-15,204.45-171.29,485.42-385.11,751.66a80.36,80.36,0,0,0,66.43-23L749.18,255.94a80.57,80.57,0,0,0,0-113.94L647.37,40.19A80.41,80.41,0,0,0,577.4,17.72Z"/></svg>