<svg id="Layer_1" data-name="Layer 1" xmlns="http://www.w3.org/2000/svg" viewBox="0 0 800 220"><defs><style>.cls-1{fill:#e0c5b4;}.cls-2{fill:#a18d81;}.cls-3{fill:#f1eedb;}.cls-4{fill:#1d1d1b;opacity:0.15;}.cls-5{fill:#28324e;}</style></defs><title>IGAssets</title><path class="cls-1" d="M370.44,164.79l.2-121.92,377-10.25a35.27,35.27,0,0,1,36.23,35.31l-.12,73.15a35.27,35.27,0,0,1-36.35,35.2Z"/><polygon class="cls-2" points="254.85 124.85 254.92 82.43 370.64 43.02 370.44 164.64 254.85 124.85"/><path class="cls-3" d="M254.86,124.82l-233.68-.38a21,21,0,0,1-21-21V103a21,21,0,0,1,21.06-21l233.68.38Z"/><rect class="cls-3" x="542.14" y="3.96" width="70.07" height="200.41" rx="13.79" transform="translate(472.06 681.17) rotate(-89.91)"/><path class="cls-1" d="M102.07,124.57l-80.89-.13a21,21,0,0,1-21-21V103a21,21,0,0,1,21.06-21l80.89.13Z"/><path class="cls-4" d="M21.21,103.43l80.9.14,152.77.25h0l115.6,39.78v.16l377,11.49a35.27,35.27,0,0,0,36.34-35.2l0,21a35.27,35.27,0,0,1-36.35,35.2l-377-11.49v-.15L254.85,124.85h0l-152.78-.25-80.89-.13a21,21,0,0,1-21-21.06V103A20.77,20.77,0,0,1,3,92.69,20.93,20.93,0,0,0,21.21,103.43Z"/><path class="cls-5" d="M562.74,123.17c2.72,0,4.74-.63,6-1.9s2-3.36,2-6.27v-1.25c0-2.64-.74-4.5-2.2-5.57a9.6,9.6,0,0,0-5.84-1.63,1.83,1.83,0,0,1-1.74-.86,3.67,3.67,0,0,1-.5-1.92,3.87,3.87,0,0,1,.5-2,1.86,1.86,0,0,1,1.75-.86,11.44,11.44,0,0,0,2.77-.29,5.1,5.1,0,0,0,2.18-1.09,4.87,4.87,0,0,0,1.42-2.2,11.29,11.29,0,0,0,.5-3.66q0-3.63-1.67-5.21A6.9,6.9,0,0,0,563,86.9a10.33,10.33,0,0,0-3.29.45,5.86,5.86,0,0,0-2.12,1.22,4.31,4.31,0,0,0-1.12,1.75,6.14,6.14,0,0,0-.33,2,2.92,2.92,0,0,1-.7,2.07,3.45,3.45,0,0,1-2.6.75q-2.31,0-3-.66a3.69,3.69,0,0,1-.66-2.57,11.92,11.92,0,0,1,.64-3.53,9.48,9.48,0,0,1,2.21-3.62,12.58,12.58,0,0,1,4.26-2.83,16.94,16.94,0,0,1,6.76-1.14,21.26,21.26,0,0,1,5.34.63,11,11,0,0,1,4.19,2,9.32,9.32,0,0,1,2.73,3.63,13.56,13.56,0,0,1,1,5.48,15.47,15.47,0,0,1-1.46,7,8.34,8.34,0,0,1-3.84,4,10.78,10.78,0,0,1,4.84,3.57,10.56,10.56,0,0,1,1.87,6.66V115a16.67,16.67,0,0,1-1.2,6.69,11.82,11.82,0,0,1-3.23,4.44,12.56,12.56,0,0,1-4.79,2.47,22,22,0,0,1-5.84.75,18,18,0,0,1-6.62-1.1,14,14,0,0,1-4.51-2.78,10.55,10.55,0,0,1-2.61-3.73,10.69,10.69,0,0,1-.81-4,3,3,0,0,1,.73-2.34,3.86,3.86,0,0,1,2.51-.61,4.47,4.47,0,0,1,2.89.66,2.52,2.52,0,0,1,.73,2,5.33,5.33,0,0,0,1.87,4Q558.72,123.17,562.74,123.17Z"/><path class="cls-5" d="M599.57,100.08a19.82,19.82,0,0,1,5.21.67,11.05,11.05,0,0,1,4.29,2.22,10.45,10.45,0,0,1,2.89,4.15,17.31,17.31,0,0,1,1,6.43v1.2a17.9,17.9,0,0,1-1.16,6.82,12.2,12.2,0,0,1-3.14,4.54,12,12,0,0,1-4.69,2.53,20.13,20.13,0,0,1-5.8.78,21.09,21.09,0,0,1-5.87-.79,12.37,12.37,0,0,1-4.68-2.55,12,12,0,0,1-3.12-4.56,17.91,17.91,0,0,1-1.15-6.82l0-19.19a18.1,18.1,0,0,1,1.17-6.83,11.61,11.61,0,0,1,3.21-4.54,12.44,12.44,0,0,1,4.82-2.53,21.36,21.36,0,0,1,5.93-.79A17.89,17.89,0,0,1,605,81.89a13.53,13.53,0,0,1,4.51,2.74,11.27,11.27,0,0,1,2.67,3.77,10.58,10.58,0,0,1,.88,4.19,2.76,2.76,0,0,1-.83,2.33,4.05,4.05,0,0,1-2.47.63A5.76,5.76,0,0,1,607.2,95a2.14,2.14,0,0,1-1.09-2.12,4.75,4.75,0,0,0-.62-2.47,5.92,5.92,0,0,0-1.64-1.85,7.46,7.46,0,0,0-2.44-1.16,11.32,11.32,0,0,0-3-.4,8.09,8.09,0,0,0-5.94,2.07c-1.41,1.38-2.11,3.52-2.12,6.43v8.3a9.06,9.06,0,0,1,4.09-2.92A15.56,15.56,0,0,1,599.57,100.08Zm-9.25,15c0,3,.68,5.1,2.07,6.47a8,8,0,0,0,5.83,2.05,7.74,7.74,0,0,0,5.74-2c1.36-1.36,2-3.52,2-6.46V114c0-3-.67-5.18-2-6.44a8.31,8.31,0,0,0-5.8-1.89,8.8,8.8,0,0,0-5.71,1.74c-1.43,1.17-2.14,3.15-2.15,6Z"/><path class="cls-5" d="M621.57,121.55a3.74,3.74,0,0,1,2.73,1.16,3.8,3.8,0,0,1,1.15,2.8,3.84,3.84,0,0,1-1.16,2.77,3.86,3.86,0,0,1-5.57,0,4,4,0,0,1,0-5.57A3.78,3.78,0,0,1,621.57,121.55Z"/><path class="cls-5" d="M647.05,100.16a20.26,20.26,0,0,1,5.21.66,11.26,11.26,0,0,1,4.29,2.22,10.46,10.46,0,0,1,2.89,4.16,17.31,17.31,0,0,1,1,6.43v1.19a18,18,0,0,1-1.16,6.83,11.62,11.62,0,0,1-7.83,7.07,20.13,20.13,0,0,1-5.8.78,20.72,20.72,0,0,1-5.87-.8,12.11,12.11,0,0,1-4.68-2.55A11.9,11.9,0,0,1,632,121.6a17.93,17.93,0,0,1-1.15-6.83l0-19.19a18.05,18.05,0,0,1,1.17-6.82,11.81,11.81,0,0,1,3.2-4.55,12.83,12.83,0,0,1,4.83-2.53A21.74,21.74,0,0,1,646,80.9c2.46,0,9.76,2.69,10.94,3.81a11.34,11.34,0,0,1,2.67,3.76,10.65,10.65,0,0,1,.88,4.19,2.8,2.8,0,0,1-.83,2.34,4,4,0,0,1-2.47.63,5.62,5.62,0,0,1-2.54-.54A2.11,2.11,0,0,1,653.59,93a4.75,4.75,0,0,0-.62-2.47,5.81,5.81,0,0,0-1.64-1.85,7.27,7.27,0,0,0-2.44-1.16,11.26,11.26,0,0,0-3-.4A8.09,8.09,0,0,0,640,89.17c-1.41,1.38-2.11,3.52-2.12,6.42v8.31a9,9,0,0,1,4.09-2.92A15.56,15.56,0,0,1,647.05,100.16Zm-9.25,15q0,4.41,2.07,6.47a8,8,0,0,0,5.83,2,7.78,7.78,0,0,0,5.74-2c1.36-1.37,2-3.52,2-6.46v-1.13q0-4.55-2-6.43a8.31,8.31,0,0,0-5.8-1.89A8.8,8.8,0,0,0,640,107.5c-1.43,1.16-2.14,3.15-2.15,6Z"/></svg>