<svg id="Layer_1" data-name="Layer 1" xmlns="http://www.w3.org/2000/svg" viewBox="0 0 594 800"><defs><style>.cls-1{fill:#02ccff;}.cls-2{fill:#fff;}.cls-3{fill:#e9e9f0;}.cls-4{fill:#3f9fd7;}.cls-5{fill:#fa715c;}.cls-6{fill:#6be0ff;}.cls-7{fill:#8ad9ea;}.cls-8{fill:#56c7e0;}</style></defs><title>IGAssets CLOCK</title><circle class="cls-1" cx="352.67" cy="218.99" r="175.38"/><circle class="cls-2" cx="352.7" cy="195.35" r="159.57" transform="translate(-34.83 306.61) rotate(-45)"/><path class="cls-3" d="M352.7,75.24c81.43,0,148.48,61,158.22,139.84a159.57,159.57,0,1,0-316.44,0C204.21,136.28,271.27,75.24,352.7,75.24Z"/><path class="cls-4" d="M352.7,370.7C256,370.7,177.35,292,177.35,195.35S256,20,352.7,20,528.05,98.66,528.05,195.35,449.39,370.7,352.7,370.7Zm0-319.14c-79.28,0-143.79,64.51-143.79,143.79S273.42,339.13,352.7,339.13s143.78-64.5,143.78-143.78S432,51.56,352.7,51.56Z"/><polygon class="cls-1" points="434.2 274.96 344.81 199 344.78 113.62 360.56 113.61 360.59 191.7 444.42 262.93 434.2 274.96"/><rect class="cls-5" x="264.56" y="209.06" width="91.68" height="7.89" transform="translate(-58.11 136.07) rotate(-22.67)"/><path class="cls-6" d="M370,195.35a17.29,17.29,0,1,1-17.29-17.29A17.29,17.29,0,0,1,370,195.35Z"/><rect class="cls-7" x="323.46" y="469.57" width="250.97" height="310.43"/><path class="cls-8" d="M563.17,480.83V768.74H334.72V480.83H563.17m11.26-11.26h-251V780h251V469.57Z"/><rect class="cls-8" x="379.36" y="545.6" width="69.59" height="11.26"/><rect class="cls-8" x="379.36" y="611.3" width="137.98" height="11.26"/><rect class="cls-8" x="379.36" y="647.91" width="137.98" height="11.26"/><rect class="cls-8" x="379.36" y="685.46" width="137.98" height="11.26"/><rect class="cls-7" x="23.57" y="469.45" width="250.97" height="310.43"/><path class="cls-8" d="M263.28,480.71v287.9H34.83V480.71H263.28m11.26-11.26h-251V779.87h251V469.45Z"/><rect class="cls-8" x="79.46" y="532.33" width="137.98" height="11.26"/><rect class="cls-8" x="79.46" y="570.19" width="137.98" height="11.26"/><rect class="cls-8" x="79.46" y="608.05" width="137.98" height="11.26"/><rect class="cls-8" x="79.46" y="645.91" width="137.98" height="11.26"/><path class="cls-4" d="M209.89,686.87a12,12,0,1,1-12,12,12,12,0,0,1,12-12m0-11.26a23.23,23.23,0,1,0,23.23,23.23,23.23,23.23,0,0,0-23.23-23.23Z"/><polygon class="cls-4" points="218.34 741.78 209.89 735.68 201.44 741.78 201.44 719.26 218.34 719.26 218.34 741.78"/></svg>