<svg xmlns="http://www.w3.org/2000/svg" viewBox="0 0 1920 1080"><defs><style>.cls-1{isolation:isolate;}.cls-2{fill:#00b8ed;}.cls-3{mix-blend-mode:soft-light;}.cls-4{fill:#fff;}.cls-5{fill:#f2f2f2;}.cls-6{fill:#4f4f4e;}.cls-7{fill:#d9d9d9;}.cls-8{fill:#a9a9a9;}.cls-9{fill:#ececec;}.cls-10{fill:#747473;}.cls-11{fill:#80cef4;}.cls-12{fill:#cfcfcf;}.cls-12,.cls-13,.cls-16,.cls-18,.cls-20,.cls-25,.cls-30{mix-blend-mode:multiply;}.cls-13{fill:#cdcdcd;}.cls-14{fill:#575756;}.cls-15{fill:#b9b9b9;}.cls-16{fill:#c6c6c5;}.cls-17{fill:#08b1e2;}.cls-18,.cls-21{fill:#e6e6e6;}.cls-19{fill:#ccc;}.cls-22{fill:#56c3f1;}.cls-23{fill:#344166;}.cls-24{fill:#576891;}.cls-25,.cls-26{fill:#dbdbdb;}.cls-27{fill:#cb2d21;}.cls-28{fill:#b7e1f9;}.cls-29,.cls-30{fill:#ffebcf;}</style></defs><title>DetailBackground</title><g class="cls-1"><g id="Layer_1" data-name="Layer 1"><rect class="cls-2" x="435.2" y="277.76" width="287.74" height="530.98"/><g class="cls-3"><polygon class="cls-4" points="446.94 277.76 441.77 780.32 436.6 277.76 446.94 277.76"/><polygon class="cls-4" points="456.43 306.17 461.6 808.73 451.25 808.73 456.43 306.17"/><polygon class="cls-4" points="475.82 277.76 470.65 780.32 465.48 277.76 475.82 277.76"/><polygon class="cls-4" points="485.31 306.17 490.48 808.73 480.14 808.73 485.31 306.17"/><polygon class="cls-4" points="504.71 277.76 499.53 780.32 494.37 277.76 504.71 277.76"/><polygon class="cls-4" points="514.19 306.17 519.36 808.73 509.02 808.73 514.19 306.17"/><polygon class="cls-4" points="533.59 277.76 528.41 780.32 523.24 277.76 533.59 277.76"/><polygon class="cls-4" points="543.07 306.17 548.25 808.73 537.9 808.73 543.07 306.17"/><polygon class="cls-4" points="562.48 277.76 557.3 780.32 552.13 277.76 562.48 277.76"/><polygon class="cls-4" points="571.95 306.17 577.13 808.73 566.78 808.73 571.95 306.17"/><polygon class="cls-4" points="591.35 277.76 586.18 780.32 581.01 277.76 591.35 277.76"/><polygon class="cls-4" points="600.84 306.17 606.01 808.73 595.66 808.73 600.84 306.17"/><polygon class="cls-4" points="620.23 277.76 615.06 780.32 609.89 277.76 620.23 277.76"/><polygon class="cls-4" points="629.72 306.17 634.89 808.73 624.54 808.73 629.72 306.17"/><polygon class="cls-4" points="649.12 277.76 643.94 780.32 638.77 277.76 649.12 277.76"/><polygon class="cls-4" points="658.6 306.17 663.77 808.73 653.43 808.73 658.6 306.17"/><polygon class="cls-4" points="678 277.76 672.82 780.32 667.65 277.76 678 277.76"/><polygon class="cls-4" points="687.48 306.17 692.65 808.73 682.31 808.73 687.48 306.17"/><polygon class="cls-4" points="706.88 277.76 701.71 780.32 696.53 277.76 706.88 277.76"/><polygon class="cls-4" points="716.36 306.17 721.54 808.73 711.18 808.73 716.36 306.17"/></g><rect class="cls-2" x="737.01" y="277.76" width="287.74" height="530.98"/><g class="cls-3"><polygon class="cls-4" points="748.77 277.76 743.6 780.32 738.42 277.76 748.77 277.76"/><polygon class="cls-4" points="758.25 306.17 763.42 808.73 753.08 808.73 758.25 306.17"/><polygon class="cls-4" points="777.65 277.76 772.47 780.32 767.31 277.76 777.65 277.76"/><polygon class="cls-4" points="787.13 306.17 792.31 808.73 781.96 808.73 787.13 306.17"/><polygon class="cls-4" points="806.53 277.76 801.36 780.32 796.18 277.76 806.53 277.76"/><polygon class="cls-4" points="816.02 306.17 821.19 808.73 810.85 808.73 816.02 306.17"/><polygon class="cls-4" points="835.41 277.76 830.24 780.32 825.07 277.76 835.41 277.76"/><polygon class="cls-4" points="844.9 306.17 850.07 808.73 839.73 808.73 844.9 306.17"/><polygon class="cls-4" points="864.29 277.76 859.12 780.32 853.95 277.76 864.29 277.76"/><polygon class="cls-4" points="873.78 306.17 878.95 808.73 868.61 808.73 873.78 306.17"/><polygon class="cls-4" points="893.18 277.76 888 780.32 882.82 277.76 893.18 277.76"/><polygon class="cls-4" points="902.66 306.17 907.83 808.73 897.49 808.73 902.66 306.17"/><polygon class="cls-4" points="922.06 277.76 916.88 780.32 911.71 277.76 922.06 277.76"/><polygon class="cls-4" points="931.54 306.17 936.71 808.73 926.36 808.73 931.54 306.17"/><polygon class="cls-4" points="950.93 277.76 945.77 780.32 940.59 277.76 950.93 277.76"/><polygon class="cls-4" points="960.42 306.17 965.6 808.73 955.25 808.73 960.42 306.17"/><polygon class="cls-4" points="979.82 277.76 974.65 780.32 969.47 277.76 979.82 277.76"/><polygon class="cls-4" points="989.3 306.17 994.48 808.73 984.13 808.73 989.3 306.17"/><polygon class="cls-4" points="1008.7 277.76 1003.52 780.32 998.36 277.76 1008.7 277.76"/><polygon class="cls-4" points="1018.18 306.17 1023.36 808.73 1013.01 808.73 1018.18 306.17"/></g><rect class="cls-5" x="419.2" y="240.45" width="15.99" height="591.28"/><rect class="cls-5" x="721.98" y="240.45" width="15.99" height="591.28"/><rect class="cls-5" x="1024.76" y="240.45" width="15.99" height="591.28"/><rect class="cls-6" x="416.62" y="827.23" width="20.69" height="12.05"/><rect class="cls-6" x="719.87" y="827.23" width="20.69" height="12.05"/><rect class="cls-6" x="1022.65" y="827.23" width="20.68" height="12.05"/><rect class="cls-5" x="414.01" y="232.45" width="631.93" height="15.99"/><path class="cls-7" d="M718.49,842.72v-23.1a15,15,0,0,0-15-15H418.12a15,15,0,0,0-15,15v23.1Z"/><path class="cls-7" d="M375.94,583.63s5.87,8.85,9.48,15c2.71,4.65,6.08,9.74,11.45,9.74H726.5c5.38,0,8.12-4.78,10.69-9.51,3.9-7.18,8.53-15.25,8.53-15.25Z"/><path class="cls-7" d="M213.88,628.63s8.06,6.93,13.21,11.89c3.88,3.73,8.5,7.72,13.67,6.26l123.41-34.09c5.17-1.47,6.52-6.82,7.7-12.06,1.81-8,4.07-17,4.07-17Z"/><path class="cls-7" d="M744,583.64s8.47,6.4,13.91,11c4.11,3.49,9,7.18,14,5.41l164-70.55c5.08-1.78,6.09-7.21,6.94-12.52,1.31-8.06,3-17.21,3-17.21Z"/><rect class="cls-8" x="506.37" y="608.39" width="108.93" height="75.24"/><rect class="cls-9" x="504.67" y="670.88" width="112.32" height="133.78"/><path class="cls-10" d="M619.68,613.45a2.17,2.17,0,0,1-2.18,2.17H504.15a2.17,2.17,0,0,1-2.17-2.17h0a2.18,2.18,0,0,1,2.17-2.19H617.5a2.18,2.18,0,0,1,2.18,2.19Z"/><path class="cls-10" d="M619.68,620.88a2.18,2.18,0,0,1-2.18,2.17H504.15a2.17,2.17,0,0,1-2.17-2.17h0a2.18,2.18,0,0,1,2.17-2.19H617.5a2.18,2.18,0,0,1,2.18,2.19Z"/><path class="cls-10" d="M619.68,628.31a2.17,2.17,0,0,1-2.18,2.17H504.15a2.17,2.17,0,0,1-2.17-2.17h0a2.18,2.18,0,0,1,2.17-2.19H617.5a2.18,2.18,0,0,1,2.18,2.19Z"/><path class="cls-10" d="M619.68,635.73a2.17,2.17,0,0,1-2.18,2.18H504.15a2.17,2.17,0,0,1-2.17-2.18h0a2.18,2.18,0,0,1,2.17-2.18H617.5a2.18,2.18,0,0,1,2.18,2.18Z"/><path class="cls-10" d="M619.68,643.17a2.17,2.17,0,0,1-2.18,2.17H504.15a2.17,2.17,0,0,1-2.17-2.17h0a2.18,2.18,0,0,1,2.17-2.18H617.5a2.18,2.18,0,0,1,2.18,2.18Z"/><path class="cls-10" d="M619.68,650.59a2.17,2.17,0,0,1-2.18,2.18H504.15a2.17,2.17,0,0,1-2.17-2.18h0a2.18,2.18,0,0,1,2.17-2.18H617.5a2.18,2.18,0,0,1,2.18,2.18Z"/><path class="cls-10" d="M619.68,658a2.18,2.18,0,0,1-2.18,2.18H504.15A2.18,2.18,0,0,1,502,658h0a2.18,2.18,0,0,1,2.17-2.19H617.5a2.18,2.18,0,0,1,2.18,2.19Z"/><path class="cls-10" d="M619.68,665.46a2.18,2.18,0,0,1-2.18,2.18H504.15a2.18,2.18,0,0,1-2.17-2.18h0a2.17,2.17,0,0,1,2.17-2.18H617.5a2.17,2.17,0,0,1,2.18,2.18Z"/><rect class="cls-11" x="1067.59" y="689.83" width="185.82" height="112.89"/><rect class="cls-9" x="1073.31" y="750.16" width="174.36" height="46.95"/><path class="cls-12" d="M1073.31,778.48v18.63h174.37v-36.5C1247.68,797.11,1138.87,797.11,1073.31,778.48Z"/><path class="cls-11" d="M1133.25,750.16v4.15a6.3,6.3,0,0,0,6.3,6.3h41.89a6.3,6.3,0,0,0,6.3-6.3v-4.15Z"/><path class="cls-13" d="M1157.81,758.65a39.32,39.32,0,0,1-24.3-8.49h-.26v4.15a6.3,6.3,0,0,0,6.3,6.3h41.89a6.3,6.3,0,0,0,6.3-6.3v-4.15h-5.64A39.31,39.31,0,0,1,1157.81,758.65Z"/><rect class="cls-9" x="1073.31" y="695.6" width="174.36" height="46.95"/><path class="cls-12" d="M1073.31,723.92v18.63h174.37v-36.5C1247.68,742.55,1138.87,742.55,1073.31,723.92Z"/><path class="cls-11" d="M1133.25,695.6v4.15a6.3,6.3,0,0,0,6.3,6.3h41.89a6.3,6.3,0,0,0,6.3-6.3V695.6Z"/><path class="cls-13" d="M1157.81,704.09a39.32,39.32,0,0,1-24.3-8.49h-.26v4.15a6.3,6.3,0,0,0,6.3,6.3h41.89a6.3,6.3,0,0,0,6.3-6.3V695.6h-5.64A39.31,39.31,0,0,1,1157.81,704.09Z"/><rect class="cls-11" x="1058.6" y="591.9" width="198.04" height="7.43"/><rect class="cls-11" x="1061.48" y="648.02" width="198.04" height="7.42"/><rect class="cls-11" x="1055.38" y="528.05" width="210.24" height="22.09"/><rect class="cls-5" x="1055.38" y="517.32" width="12.21" height="304.27"/><rect class="cls-5" x="1253.41" y="517.32" width="12.21" height="304.27"/><path class="cls-14" d="M1077,823.12a15.47,15.47,0,1,1-15.47-15.47A15.47,15.47,0,0,1,1077,823.12Z"/><path class="cls-15" d="M1069.63,823.12a8.15,8.15,0,1,1-8.15-8.15A8.15,8.15,0,0,1,1069.63,823.12Z"/><path class="cls-16" d="M1061.87,807.67c11.06,5,9.22,25-5.5,25a12,12,0,0,1-9.29-3.9,15.46,15.46,0,1,0,14.79-21.06Z"/><path class="cls-14" d="M1275,823.12a15.47,15.47,0,1,1-15.46-15.47A15.47,15.47,0,0,1,1275,823.12Z"/><path class="cls-15" d="M1267.66,823.12a8.15,8.15,0,1,1-8.14-8.15A8.15,8.15,0,0,1,1267.66,823.12Z"/><path class="cls-16" d="M1259.9,807.67c11.06,5,9.23,25-5.5,25a12,12,0,0,1-9.29-3.9,15.46,15.46,0,1,0,14.79-21.06Z"/><rect class="cls-17" x="1285.88" y="523.45" width="644" height="24.65"/><rect class="cls-5" x="1310.65" y="548.11" width="227.88" height="275.49"/><rect class="cls-5" x="1886.95" y="548.11" width="21.46" height="275.49"/><rect class="cls-18" x="1310.65" y="548.11" width="227.88" height="20.29"/><rect class="cls-18" x="1886.95" y="548.11" width="21.46" height="20.29"/><polygon class="cls-5" points="1563.22 847.87 1583.28 847.87 1611.92 690.3 1591.87 690.3 1563.22 847.87"/><polygon class="cls-5" points="1784.51 847.87 1764.45 847.87 1735.8 690.3 1755.86 690.3 1784.51 847.87"/><polygon class="cls-19" points="1585.29 726.51 1591.87 690.3 1611.92 690.3 1605.34 726.51 1585.29 726.51"/><polygon class="cls-19" points="1742.39 726.51 1735.8 690.3 1755.86 690.3 1762.44 726.51 1742.39 726.51"/><rect class="cls-5" x="1735.8" y="641.35" width="20.06" height="48.95"/><rect class="cls-5" x="1591.87" y="641.35" width="20.05" height="48.95"/><g class="cls-20"><rect class="cls-21" x="1735.8" y="641.35" width="20.06" height="17.84"/><rect class="cls-21" x="1591.87" y="641.35" width="20.05" height="17.84"/></g><rect class="cls-22" x="1578.65" y="486.84" width="192.86" height="160.63" rx="24.66"/><path class="cls-22" d="M1565.35,690.3a18.37,18.37,0,0,0,18.36,18.37h180.36a18.37,18.37,0,0,0,18.36-18.37h0A18.36,18.36,0,0,0,1764.07,672H1583.71a18.36,18.36,0,0,0-18.36,18.35Z"/><path class="cls-23" d="M385.69,327.91V445.44a23.14,23.14,0,0,1-23.14,23.14H255.05a23.17,23.17,0,0,1-23.17-23.14V327.91a23.17,23.17,0,0,1,23.17-23.14h107.5A23.15,23.15,0,0,1,385.69,327.91Z"/><path class="cls-24" d="M372.23,400.56c1.2-1.95,2.91-6.78-3.67-12.66a11.39,11.39,0,0,0,1.9-2.19c1.25-2,3.23-7-3.09-13,1.19-2.34,2.42-7.36-3.59-13.63.62-3.14-.68-6.65-3.74-10.06a4.48,4.48,0,0,0,.26-.49c1.24-3.54-.89-7.39-5.8-10.77a4,4,0,0,0,.15-.57c1.1-4.6-3.82-8.63-6.65-10.43a5.1,5.1,0,0,0-.65-3.3c-1.49-2.55-5.39-4.86-7.41-4.86a.08.08,0,0,0-.08,0,2.58,2.58,0,0,0-2.52,2.67,2.62,2.62,0,0,0,2.41,2.5A7.69,7.69,0,0,1,342.8,326c-.86.76-5.44,3.15-27.62,2.37V304.77H302.39v23.61c-22.18.78-26.76-1.61-27.64-2.37a7.76,7.76,0,0,1,3.07-2.18,2.59,2.59,0,0,0,2.39-2.5,2.56,2.56,0,0,0-2.52-2.67.09.09,0,0,0-.08,0c-2,0-5.93,2.31-7.39,4.86a4.92,4.92,0,0,0-.65,3.3c-2.83,1.8-7.74,5.83-6.68,10.43.05.18.11.39.18.57-4.91,3.38-7,7.23-5.82,10.77.08.18.21.34.26.49-3,3.41-4.34,6.92-3.72,10.06-6,6.27-4.78,11.29-3.59,13.63-6.32,6-4.34,11-3.09,13a10.44,10.44,0,0,0,1.9,2.19c-6.58,5.88-4.87,10.71-3.67,12.66a10.47,10.47,0,0,0,3.46,3.3c-5.18,5.28-3,9.73-2.11,11.08a10.73,10.73,0,0,0,4.37,3.62c-2.42,3.9-2.57,7.8-.21,10.79a9.33,9.33,0,0,0,3.41,2.62,12.37,12.37,0,0,0,.29,8.69c1,2.18,4.16,7.07,13.05,5.2a25.52,25.52,0,0,0,18.95-18.07c2.66-9,7.86-23,15.84-30.92v71.71h12.79V396.9c8,7.85,13.19,21.94,15.84,30.89a25.52,25.52,0,0,0,19,18.07,19,19,0,0,0,3.75.41c6.08,0,8.47-3.77,9.28-5.61a12.37,12.37,0,0,0,.29-8.69,9,9,0,0,0,3.4-2.62c2.37-3,2.24-6.89-.18-10.79a10.94,10.94,0,0,0,4.37-3.62c.88-1.35,3.07-5.8-2.11-11.08A10.47,10.47,0,0,0,372.23,400.56Zm-105.7,40.2c-3.51.76-5.85.18-6.94-1.69a7,7,0,0,1-.31-5.72,25.26,25.26,0,0,0,2.83.18c5,0,11.26-1.43,18.57-4.76A20.07,20.07,0,0,1,266.53,440.76ZM283,421.81c-15.18,8.24-25.51,7.56-28,4.34-1.09-1.38-.62-3.56,1.25-5.93a33.85,33.85,0,0,0,5.82.52c6.74,0,14.93-1.82,23.46-5.77Q284.13,418.41,283,421.81Zm5.9-14.44c-19.19,11.13-35,9-37.85,4.71-1.36-2.05,1.35-4.63,3-5.93a40.2,40.2,0,0,0,11.23,1.46,74.36,74.36,0,0,0,26.42-5.33C290.71,403.92,289.78,405.63,288.89,407.37Zm13.5-17.26a30.91,30.91,0,0,0-4,3.46.65.65,0,0,0-.26.08c-22.54,12-44.83,9.9-48.31,4.18-1.43-2.31,1.56-5.22,3.79-7,4.24,1.93,9.94,3,16.51,3a81.92,81.92,0,0,0,32.3-7.25Zm0-9.26c-24.55,11.7-47.09,8.12-50.89,2.08-1.32-2.1.19-4.44,2.19-6.34,3.87,2.81,10.22,4.57,18.85,4.57,8,0,18-1.56,29.85-5.22Zm0-10.37c-27.28,8.79-44.13,5.51-47.43.13-1.38-2.26,0-4.86,1.61-6.81,3.46,3.12,9.75,4.73,18.67,4.73,7.36,0,16.49-1.09,27.15-3.25Zm0-10.53c-30,6.21-41.34,2.36-43.24-1-1.12-2,.67-4.63,2.05-6.19,3.9,2.16,10.43,3.25,19.66,3.25a202.18,202.18,0,0,0,21.53-1.38Zm0-10.61c-37.39,4.26-40.2-2.42-40.23-2.47-.26-.78.78-2.86,4.53-5.25,3.33,1.74,9.44,3,20.8,3,4.21,0,9.13-.19,14.9-.55Zm0-10.51C269.65,341,268,336.08,268,336c-.31-1.17,3-4.1,4.84-5.12,3,1.59,8.94,2.84,21.32,2.84,2.5,0,5.25-.06,8.27-.16Zm12.79-5.25c18.1.62,25.95-.78,29.57-2.68,1.84,1,5.15,4,4.86,5.12,0,.06-1.72,5-34.43,2.81Zm0,10.48c5.77.39,10.69.55,14.9.55,11.34,0,17.48-1.25,20.8-3,3.75,2.39,4.79,4.47,4.53,5.25,0,.05-2.84,6.73-40.23,2.47Zm0,10.53A201.7,201.7,0,0,0,336.71,356c9.23,0,15.76-1.09,19.66-3.25,1.38,1.56,3.17,4.18,2.05,6.19-1.89,3.4-13.21,7.25-43.24,1Zm0,10.69c10.66,2.16,19.79,3.25,27.15,3.25,8.92,0,15.21-1.61,18.67-4.73,1.58,1.95,3,4.55,1.61,6.81-3.33,5.38-20.15,8.66-47.43-.13Zm0,10.66C327,379.6,337,381.16,345,381.16c8.64,0,15-1.76,18.85-4.57,2,1.9,3.51,4.24,2.19,6.34-3.8,6-26.34,9.62-50.89-2.08ZM358,439.07c-1.12,1.87-3.46,2.45-6.94,1.69a20.08,20.08,0,0,1-14.15-12c7.31,3.33,13.6,4.76,18.57,4.76a24.89,24.89,0,0,0,2.81-.18A6.86,6.86,0,0,1,358,439.07Zm4.63-12.92c-2.52,3.22-12.84,3.9-28-4.34-.75-2.27-1.59-4.55-2.5-6.84,8.53,3.95,16.72,5.77,23.43,5.77a34.12,34.12,0,0,0,5.85-.52C363.21,422.59,363.7,424.77,362.61,426.15Zm3.93-14.07c-2.81,4.27-18.67,6.42-37.89-4.71-.86-1.74-1.79-3.45-2.81-5.09a74,74,0,0,0,26.42,5.33,40.22,40.22,0,0,0,11.26-1.46C365.18,407.45,367.89,410,366.54,412.08Zm1.24-14.25c-3.48,5.72-25.76,7.83-48.31-4.18a.76.76,0,0,0-.26-.08,30.27,30.27,0,0,0-4-3.46V386.6a81.81,81.81,0,0,0,32.3,7.25c6.58,0,12.27-1.06,16.51-3C366.22,392.61,369.21,395.52,367.78,397.83Z"/><rect class="cls-11" x="89.16" y="298.29" width="17.6" height="510.5"/><rect class="cls-25" x="97.97" y="303.09" width="8.8" height="505.7"/><path class="cls-22" d="M25.61,825.58V808A11.42,11.42,0,0,1,37,796.53H158.87A11.42,11.42,0,0,1,170.29,808v17.63Z"/><path class="cls-25" d="M160.23,796.67C158,798.26,140,820.11,92.68,820.11c-31.54,0-60-12.54-66.26-16.34a11.39,11.39,0,0,0-.81,4.18v17.63H170.29V808A11.39,11.39,0,0,0,160.23,796.67Z"/><path class="cls-15" d="M32.13,298.29v39a9.13,9.13,0,1,1-18.26,0V325.5H4.58v11.78a18.42,18.42,0,1,0,36.83,0v-39Z"/><path class="cls-15" d="M163.75,298.29v39a9.13,9.13,0,1,0,18.26,0V325.5h9.28v11.78a18.42,18.42,0,1,1-36.83,0v-39Z"/><g class="cls-20"><path class="cls-26" d="M184.93,346.05a30,30,0,0,1-7.44-.93,9.08,9.08,0,0,1-13.74-7.84V336c-7.53-10.06-7.53-25.43,0-35.48v-2.26h-9.29v39a18.4,18.4,0,0,0,34.76,8.44A29.72,29.72,0,0,1,184.93,346.05Z"/></g><g class="cls-20"><path class="cls-26" d="M10.94,346.05a30.08,30.08,0,0,0,7.45-.93,9,9,0,0,0,4.6,1.29,9.14,9.14,0,0,0,9.14-9.13V336c7.52-10.06,7.52-25.43,0-35.48v-2.26h9.28v39a18.4,18.4,0,0,1-34.76,8.44A29.61,29.61,0,0,0,10.94,346.05Z"/></g><rect class="cls-11" x="32.19" y="298.29" width="131.56" height="11.31"/><rect class="cls-25" x="32.19" y="303.94" width="131.56" height="5.66"/><path class="cls-11" d="M147,376h52.88a6.47,6.47,0,0,1,6.47,6.47V472a6.48,6.48,0,0,1-6.48,6.48H147a6.48,6.48,0,0,1-6.48-6.48V382.5A6.47,6.47,0,0,1,147,376Z"/><path class="cls-25" d="M199.87,376H165c18.76,5.31,32.84,22.74,32.84,43,0,24.37-20.33,44.7-44.7,44.7a43.55,43.55,0,0,1-12.59-1.88V472a6.48,6.48,0,0,0,6.48,6.47h52.87a6.47,6.47,0,0,0,6.47-6.47V382.5A6.48,6.48,0,0,0,199.87,376Z"/><path class="cls-27" d="M145.41,414.23v51.1a5.51,5.51,0,0,0,5.51,5.51h45a5.52,5.52,0,0,0,5.52-5.51v-51.1Z"/><path class="cls-25" d="M194.57,414.23a43.19,43.19,0,0,1,.84,8.4c0,24.37-20.33,44.71-44.7,44.71a46.15,46.15,0,0,1-5-.31,5.49,5.49,0,0,0,5.22,3.81h45a5.52,5.52,0,0,0,5.52-5.51v-51.1Z"/><rect class="cls-4" x="153.38" y="403.43" width="40.1" height="30.9"/><path class="cls-25" d="M187.11,403.43c1.55,12.87-6,27.06-22.76,27.06a23.68,23.68,0,0,1-11-2.52v6.36h40.1v-30.9Z"/><rect class="cls-28" x="170.39" y="345.82" width="6.07" height="24.6"/><rect class="cls-25" x="173.44" y="345.82" width="3.03" height="24.6"/><rect class="cls-11" x="165.4" y="368.92" width="16.07" height="7.1"/><rect class="cls-25" x="165.4" y="372.47" width="16.07" height="3.55"/><path class="cls-11" d="M-2.88,376H50a6.47,6.47,0,0,1,6.47,6.47V472A6.48,6.48,0,0,1,50,478.44H-2.88A6.47,6.47,0,0,1-9.35,472V382.5A6.47,6.47,0,0,1-2.88,376Z"/><path class="cls-25" d="M50,376H15.1c18.75,5.31,32.83,22.74,32.83,43,0,24.37-20.33,44.7-44.7,44.7a43.43,43.43,0,0,1-12.58-1.88V472a6.47,6.47,0,0,0,6.47,6.47H50A6.47,6.47,0,0,0,56.46,472V382.5A6.47,6.47,0,0,0,50,376Z"/><path class="cls-29" d="M-4.47,414.23v51.1A5.51,5.51,0,0,0,1,470.84h45a5.51,5.51,0,0,0,5.51-5.51v-51.1Z"/><path class="cls-30" d="M44.69,414.23a43.19,43.19,0,0,1,.84,8.4c0,24.37-20.33,44.71-44.7,44.71a46.31,46.31,0,0,1-5-.31A5.49,5.49,0,0,0,1,470.84h45a5.51,5.51,0,0,0,5.51-5.51v-51.1Z"/><rect class="cls-4" x="3.5" y="403.43" width="40.11" height="30.9"/><path class="cls-25" d="M37.23,403.43c1.56,12.87-6,27.06-22.76,27.06A23.65,23.65,0,0,1,3.5,428v6.36H43.61v-30.9Z"/><rect class="cls-28" x="20.52" y="345.82" width="6.07" height="24.6"/><rect class="cls-25" x="23.55" y="345.82" width="3.04" height="24.6"/><rect class="cls-11" x="15.52" y="368.92" width="16.08" height="7.1"/><rect class="cls-25" x="15.52" y="372.47" width="16.08" height="3.55"/><path class="cls-14" d="M58.83,825.58a14.41,14.41,0,1,1-14.4-14.41A14.41,14.41,0,0,1,58.83,825.58Z"/><path class="cls-15" d="M52,825.58A7.59,7.59,0,1,1,44.43,818,7.58,7.58,0,0,1,52,825.58Z"/><path class="cls-16" d="M44.79,811.19c10.3,4.64,8.59,23.25-5.12,23.25A11.17,11.17,0,0,1,31,830.8a14.39,14.39,0,1,0,13.77-19.61Z"/><path class="cls-14" d="M164.75,825.58a14.41,14.41,0,1,1-14.4-14.41A14.41,14.41,0,0,1,164.75,825.58Z"/><path class="cls-15" d="M157.93,825.58a7.59,7.59,0,1,1-7.58-7.59A7.58,7.58,0,0,1,157.93,825.58Z"/><path class="cls-16" d="M150.71,811.19c10.3,4.64,8.59,23.25-5.12,23.25a11.2,11.2,0,0,1-8.66-3.64,14.4,14.4,0,1,0,13.78-19.61Z"/><rect class="cls-17" x="1618.88" y="352.29" width="256" height="14"/><rect class="cls-17" x="1618.88" y="261.29" width="256" height="14"/></g></g></svg>