<svg id="Layer_1" data-name="Layer 1" xmlns="http://www.w3.org/2000/svg" viewBox="0 0 800 800"><defs><style>.cls-1{fill:#dcd9c8;}.cls-2{fill:#f1eedb;}.cls-3{fill:#df4937;}.cls-4{fill:#f6f6f6;}.cls-5{fill:#485678;}.cls-6{fill:#1d1d1b;opacity:0.1;}</style></defs><title>IGAssets</title><rect class="cls-1" x="282.26" y="150.85" width="23.21" height="40.79"/><rect class="cls-1" x="496.77" y="150.85" width="23.21" height="40.79"/><path class="cls-1" d="M678.54,718H120.89C58.39,718,7.72,664.18,7.72,597.79V301.66c0-66.4,50.67-120.21,113.17-120.21H678.54c62.5,0,113.17,53.81,113.17,120.21V597.79C791.71,664.18,741,718,678.54,718Z"/><path class="cls-2" d="M120.9,684.24c-43.78,0-79.41-38.78-79.41-86.45V301.66c0-47.67,35.63-86.45,79.41-86.45H678.54c43.78,0,79.41,38.78,79.41,86.45V597.79c0,47.67-35.63,86.45-79.41,86.45Z"/><circle class="cls-3" cx="399.72" cy="449.73" r="163.84"/><rect class="cls-4" x="367.86" y="341.64" width="63.71" height="216.18"/><rect class="cls-4" x="291.63" y="417.87" width="216.18" height="63.72"/><path class="cls-5" d="M508.37,169.54A22.5,22.5,0,0,1,485.87,147v-51a7.82,7.82,0,0,0-7.81-7.8H323.61a7.82,7.82,0,0,0-7.81,7.8v51a22.51,22.51,0,1,1-45,0v-51a52.87,52.87,0,0,1,52.82-52.81H478.06a52.88,52.88,0,0,1,52.82,52.81v51A22.51,22.51,0,0,1,508.37,169.54Z"/><path class="cls-6" d="M32.84,673.22C53.59,700.51,85.3,718,120.89,718H678.54c62.5,0,113.17-53.82,113.17-120.21V301.66a127.22,127.22,0,0,0-3.53-29.32C662.3,613.17,452.23,690.07,32.84,673.22Z"/></svg>