<svg id="Layer_1" data-name="Layer 1" xmlns="http://www.w3.org/2000/svg" viewBox="0 0 551 800"><defs><style>.cls-1{fill:#dcd9c8;}.cls-2{fill:#f1eedb;}.cls-3{fill:#df4937;}.cls-4{fill:#f6f6f6;}.cls-5{fill:#1d1d1b;opacity:0.1;}</style></defs><title>IGAssets</title><rect class="cls-1" x="65.37" y="127.23" width="407.46" height="81.48"/><rect class="cls-2" x="21.05" y="178.25" width="496.1" height="598.95" rx="64.61"/><path class="cls-2" d="M454.47,17H83.73a40,40,0,0,0-40,40v78.49H494.47V57A40,40,0,0,0,454.47,17Z"/><rect class="cls-3" x="21.05" y="304.17" width="496.1" height="302.96"/><path class="cls-4" d="M158.16,389.56a42.67,42.67,0,1,1-42.67-42.66A42.67,42.67,0,0,1,158.16,389.56Z"/><rect class="cls-4" x="216.47" y="347.7" width="248.91" height="25.24"/><rect class="cls-4" x="216.47" y="411.52" width="157.75" height="25.24"/><rect class="cls-4" x="72.82" y="475.34" width="392.56" height="25.24"/><rect class="cls-4" x="72.82" y="539.17" width="392.56" height="25.24"/><path class="cls-5" d="M21.05,712.61A64.61,64.61,0,0,0,85.66,777.2H452.54a64.61,64.61,0,0,0,64.61-64.6V242.86a64.29,64.29,0,0,0-3.41-20.68C437.44,476.7,283.3,639.67,21.05,712.61Z"/></svg>