<svg id="Layer_1" data-name="Layer 1" xmlns="http://www.w3.org/2000/svg" viewBox="0 0 565 800"><defs><style>.cls-1{fill:#485678;}.cls-2{fill:#06aaba;}.cls-3{fill:#dcd9c8;}.cls-4{fill:#f1eedb;}.cls-5{fill:#1d1d1b;opacity:0.1;}</style></defs><title>IGAssets</title><rect class="cls-1" x="228.78" y="610.9" width="139.04" height="18.98"/><path class="cls-1" d="M235.23,624.3c0,22.18-32.14,40.16-71.8,40.16s-71.79-18-71.79-40.16,32.14-40.16,71.79-40.16S235.23,602.12,235.23,624.3Z"/><path class="cls-2" d="M235.23,610.9c0,22.18-32.14,40.16-71.8,40.16s-71.79-18-71.79-40.16,32.14-40.16,71.79-40.16S235.23,588.72,235.23,610.9Z"/><rect class="cls-1" x="192.94" y="393.67" width="30.56" height="277.43" transform="translate(-350.41 653.74) rotate(-80.9)"/><path class="cls-2" d="M401.71,584.63l-37.87-35.57a208,208,0,0,0,0-284.76l37.87-35.57C495.65,328.76,495.65,484.59,401.71,584.63Z"/><rect class="cls-1" x="96.47" y="175.4" width="383.53" height="74.62" transform="matrix(0.31, -0.95, 0.95, 0.31, -2.57, 421.89)"/><rect class="cls-2" x="152.68" y="213.86" width="236.9" height="103.91" transform="translate(-64.98 442.45) rotate(-72.16)"/><rect class="cls-3" x="192.62" y="400.77" width="57.36" height="43.96" transform="translate(-248.92 503.86) rotate(-72.15)"/><path class="cls-1" d="M402.57,220.54l-12.68-4.09-43.75-14.08-23.92,74.3L298.3,351l.44.14A45.5,45.5,0,0,0,356,321.75l10-31,12.68,4.08a38.64,38.64,0,0,0,48.62-24.94l.24-.74A38.63,38.63,0,0,0,402.57,220.54Z"/><path class="cls-4" d="M412.42,256.47a21.37,21.37,0,1,1-21.37-21.38A21.37,21.37,0,0,1,412.42,256.47Z"/><path class="cls-1" d="M455.81,726.05H271.87l.38-134a69.54,69.54,0,0,1,69.53-69.54h12.83a62.08,62.08,0,0,1,57.53,38.77Z"/><path class="cls-4" d="M371.54,570.74a23.69,23.69,0,1,1-23.69-23.69A23.69,23.69,0,0,1,371.54,570.74Z"/><path class="cls-2" d="M17.31,782H529.54V750.69a24.64,24.64,0,0,0-24.65-24.64H42a24.64,24.64,0,0,0-24.64,24.64Z"/><path class="cls-4" d="M223.81,610.9c0,17-27,30.73-60.38,30.73s-60.37-13.76-60.37-30.73,27-30.73,60.37-30.73S223.81,593.93,223.81,610.9Z"/><path class="cls-5" d="M504.89,726.05H455.81L414.42,569.94a259.82,259.82,0,0,0,47.67-234.49,655.91,655.91,0,0,1-37.7,130.86C387.64,557.4,333.86,634.05,272,690.57l-.1,35.48H228.34c-34.69,25-71.09,44-107.89,56H529.54V750.69A24.64,24.64,0,0,0,504.89,726.05Z"/><path class="cls-5" d="M402.57,220.54l-12.68-4.09L354,204.89c-51.45,68.85-109.73,123.16-167.1,158.24l12.44,4L194,383.81l15.22,4.9-17.58,54.6,41.85,13.47L251,402.18l14,4.5L270.35,390l13.94,4.49,14-43.52.44.14A45.5,45.5,0,0,0,356,321.75l10-31,12.68,4.08a38.64,38.64,0,0,0,48.62-24.94l.24-.74A38.63,38.63,0,0,0,402.57,220.54Z"/></svg>