<svg id="Layer_1" data-name="Layer 1" xmlns="http://www.w3.org/2000/svg" xmlns:xlink="http://www.w3.org/1999/xlink" viewBox="0 0 364 800"><defs><style>.cls-1{fill:none;}.cls-2{fill:#bd7044;}.cls-11,.cls-21,.cls-23,.cls-28,.cls-29,.cls-3,.cls-6{fill:#080205;}.cls-3{opacity:0.03;}.cls-4{fill:#3c241a;}.cls-5{opacity:0.1;}.cls-7{fill:#78bab7;}.cls-8{fill:#fff;}.cls-29,.cls-9{opacity:0.09;}.cls-10{clip-path:url(#clip-path);}.cls-11,.cls-12{opacity:0.25;}.cls-13{opacity:0.06;}.cls-14{fill:#ff353b;}.cls-15{opacity:0.16;}.cls-16{fill:#ffb085;}.cls-17{clip-path:url(#clip-path-2);}.cls-18{opacity:0.11;}.cls-19{opacity:0.27;}.cls-20{clip-path:url(#clip-path-3);}.cls-21{opacity:0.31;}.cls-22{clip-path:url(#clip-path-4);}.cls-23{opacity:0.35;}.cls-24,.cls-25{fill:#5a3926;}.cls-25{opacity:0.3;}.cls-26{opacity:0.13;}.cls-27{clip-path:url(#clip-path-5);}.cls-28{opacity:0.18;}.cls-30{opacity:0.15;}.cls-31{clip-path:url(#clip-path-6);}</style><clipPath id="clip-path"><path class="cls-1" d="M247.68,215.38c-23.78-23.35-76.9-27.36-103.62-4-50.95,44.51-16.61,197.78-19.53,205.81-.12.33-1.14,2.75,0,4.55a4.85,4.85,0,0,0,2.92,1.79A278.69,278.69,0,0,0,261,431.36c5.11-32.83,18.57-129.85.8-190.8C260,234.23,256.58,224.14,247.68,215.38Z"/></clipPath><clipPath id="clip-path-2"><path class="cls-2" d="M267.8,398.65c2.52,10.29,2.86,14.17,2.65,15.75a15.85,15.85,0,0,0,0,4.21,13.06,13.06,0,0,0,.47,2.1c.85,2.8,2.85,6.23,4.57,6.06.94-.09,1.51-1.24,1.74-1.7,1.36-2.71-1.08-4.54.1-7.38.5-1.2,1.63-2.55,2.74-2.49a2.12,2.12,0,0,1,1.44.92c3,3.81,2.28,13.77,2.28,13.77A9.28,9.28,0,0,0,285,436c.92,1.39,1.66,1.4,1.81,1.4,1.05,0,1.8-1.47,2.15-2.17,1.05-2.08.85-3.95,1-3.95s0,5.88,2,6.44c1.16.33,2.76-1.26,3.46-2.32a5.79,5.79,0,0,0,.52-5c1.07,3.82,2.87,6.29,4.49,6.21a2.17,2.17,0,0,0,1.31-.64c1.39-1.24,1.39-3.67.09-6.15.83,1,3,3.66,4.42,3.24s1.26-4.12,1.17-5.6c-.54-9-8.26-28.75-13.09-40.41"/></clipPath><clipPath id="clip-path-3"><path class="cls-1" d="M218.49,195.68c-19.86,13.32-.88,53.4-4.66,122.52-.28,5.07-1,17.11-.53,33.59a410.33,410.33,0,0,0,4,43.25q6,44,15.48,87.42a5.81,5.81,0,0,0,1.77,3.61,6.53,6.53,0,0,0,3.51.91,247.18,247.18,0,0,0,63-4.46,6.45,6.45,0,0,0,3.28-1.34c1.44-1.38,1.15-3.64.76-5.55-8.93-43.75-21.66-86.87-27.37-131.11-5.87-45.39-7.61-92.21-7.61-92.21.41-21.58,2.34-39.82-10.35-50.94C249.64,192.52,230,188,218.49,195.68Z"/></clipPath><clipPath id="clip-path-4"><path class="cls-1" d="M169.73,196.66c19.86,13.33.88,53.4,4.66,122.52.28,5.08,1,17.11.53,33.59a410.27,410.27,0,0,1-4,43.26q-6,44-15.48,87.42a5.79,5.79,0,0,1-1.77,3.6,6.35,6.35,0,0,1-3.51.91,246.28,246.28,0,0,1-63-4.46,6.45,6.45,0,0,1-3.28-1.34c-1.44-1.38-1.16-3.63-.77-5.54,8.94-43.76,21.67-86.87,27.38-131.11,5.86-45.39,7.61-92.22,7.61-92.22-.41-21.58-2.34-39.81,10.35-50.93C138.58,193.51,158.22,188.94,169.73,196.66Z"/></clipPath><clipPath id="clip-path-5"><path class="cls-1" d="M199.87,360.74c11.83,2.45,16.28,2.73,18.09,2.49a20.2,20.2,0,0,1,4.82-.06,16.55,16.55,0,0,1,2.42.45c3.22.84,7.17,2.86,7,4.64-.1,1-1.4,1.58-1.93,1.83-3.11,1.45-5.22-1-8.47.23-1.37.53-2.91,1.72-2.83,2.87a2.15,2.15,0,0,0,1.07,1.48c4.39,3.08,15.81,2.13,15.81,2.13,1.55-.12,4.45-.41,7,1.11,1.59.94,1.62,1.71,1.62,1.86,0,1.09-1.68,1.88-2.47,2.26-2.38,1.12-4.53,1-4.53,1.14,0,.35,6.74-.07,7.41,2,.39,1.2-1.42,2.88-2.63,3.62a7.28,7.28,0,0,1-5.77.62c4.4,1.05,7.24,2.87,7.17,4.55a2.2,2.2,0,0,1-.73,1.37c-1.4,1.46-4.2,1.5-7.05.19,1.2.84,4.23,3.08,3.75,4.52s-4.71,1.37-6.41,1.31c-10.35-.41-33.05-8.09-46.47-12.9"/></clipPath><clipPath id="clip-path-6"><path class="cls-1" d="M246.55,96.53c-.8.36-2.29.29-9.07-6.92a152,152,0,0,1-22.56-31.34q-.87,7.29-1.75,14.57a5.28,5.28,0,0,1-.73,2.5c-1.12,1.55-3.37,1.25-5.12.67a45.09,45.09,0,0,1-25.71-22.48q1.27,8.41,2.54,16.81a5.63,5.63,0,0,1-.24,3.57,3.91,3.91,0,0,1-2.75,1.72c-7,1.4-12.23-6.29-15.53-12.93C163.72,78,152.27,91.61,138.08,95.35A65.67,65.67,0,0,1,145.18,59a62.75,62.75,0,0,1,24.41-25c5.34-3,20.11-11.21,38.2-6.41,18.39,4.89,27.63,19.9,30.57,24.69C249.55,70.52,251.13,94.46,246.55,96.53Z"/></clipPath></defs><title>people</title><ellipse class="cls-3" cx="200.91" cy="759.87" rx="143.82" ry="28.13"/><path class="cls-4" d="M251.56,99.2c2.86-10.27,4.84-20.93,4-31.55a52.89,52.89,0,0,0-12.3-28.88C226.34,19,196.76,17.9,177.69,22.6c-6.61,1.63-21,5.16-31.94,17.7C131,57.14,128.67,83,138.8,107.34"/><path class="cls-2" d="M240,693.45a149.9,149.9,0,0,0-4.9,29.43,10.91,10.91,0,0,0,.56,5.31,10.21,10.21,0,0,0,2.86,3.34,144.09,144.09,0,0,0,51.93,28.78c1.84.56,4.17,2,3.47,3.9a3.32,3.32,0,0,1-1.79,1.62c-8.35,4.21-18.09,4-27.22,2.4s-18.07-4.44-27.29-5.23c-8.36-.71-18.32-.46-23.11-7.74-2.24-3.41-2.71-7.74-3.05-11.87A438.59,438.59,0,0,1,210.08,698"/><path class="cls-2" d="M149.31,693.59a190.48,190.48,0,0,0-9.24,67.52c.07,1.74.15,3.6-.71,5.09-1.44,2.53-4.75,2.82-7.54,2.82l-19.66,0c-2.25,0-4.63,0-6.58-1.23-3.43-2.12-4.24-7.2-3-11.21s3.87-7.29,6.15-10.73c12-18.07,13.51-41.4,14.63-63.43"/><g class="cls-5"><path class="cls-6" d="M210.24,720.06a129.48,129.48,0,0,1,26-10.29,150.74,150.74,0,0,1,3.8-18.63l-29.93,4.52Q209.83,707.86,210.24,720.06Z"/></g><g class="cls-5"><path class="cls-6" d="M121.93,703.3a53.9,53.9,0,0,1,21.56,13.56,186.49,186.49,0,0,1,5.82-22.28l-26-11.16C123,690,122.6,696.67,121.93,703.3Z"/></g><path class="cls-7" d="M191.86,430.55,167,687.07a12.74,12.74,0,0,1-1.42,5.59,8.49,8.49,0,0,1-4.15,3,52.71,52.71,0,0,1-38.7,1,10.84,10.84,0,0,1-5.45-3.6c-1.49-2.08-1.87-4.95-2.19-7.67a917.29,917.29,0,0,1,15.66-303.63"/><path class="cls-7" d="M190.3,429.6l7,257.76a12.7,12.7,0,0,0,1,5.68,8.64,8.64,0,0,0,3.94,3.33,52.77,52.77,0,0,0,38.52,4,10.73,10.73,0,0,0,5.69-3.16c1.62-2,2.21-4.79,2.71-7.47a917.54,917.54,0,0,0,5.42-304"/><g class="cls-5"><path class="cls-6" d="M249.55,230.19c-24.92-23.36-80.59-27.36-108.6-4C87.54,270.68,123.53,424,120.47,432c-.12.33-1.19,2.75,0,4.54a5.07,5.07,0,0,0,3.06,1.79,305.66,305.66,0,0,0,140.06,7.84c5.36-32.82,19.46-129.85.84-190.8C262.45,249,258.89,238.94,249.55,230.19Z"/></g><path class="cls-8" d="M247.93,215.38C224.16,192,171,188,144.32,211.36c-50.95,44.51-16.62,197.78-19.53,205.82-.12.32-1.14,2.75-.06,4.54a4.85,4.85,0,0,0,2.92,1.79,278.73,278.73,0,0,0,133.63,7.84c5.11-32.82,18.57-129.85.8-190.8C260.23,234.22,256.84,224.13,247.93,215.38Z"/><g class="cls-9"><path class="cls-6" d="M248.45,215.36c-23.78-23.36-76.89-27.36-103.62-4-51,44.51-16.61,197.79-19.53,205.82-.12.33-1.14,2.75,0,4.54a4.81,4.81,0,0,0,2.92,1.8,278.69,278.69,0,0,0,133.62,7.83c5.11-32.82,18.57-129.85.8-190.79C260.75,234.21,257.35,224.11,248.45,215.36Z"/></g><g class="cls-10"><path class="cls-11" d="M201.83,190.07l-1.76,104.15-1.76,103.7-1,58.81a1.24,1.24,0,0,1-2.47,0l1.76-104.15,1.76-103.7,1-58.81a1.24,1.24,0,0,1,2.47,0Z"/><g class="cls-12"><path class="cls-6" d="M191.07,235.27a1.38,1.38,0,0,0,0-2.75,1.38,1.38,0,0,0,0,2.75Z"/></g><g class="cls-12"><path class="cls-6" d="M191.07,250.82a1.38,1.38,0,0,0,0-2.75,1.38,1.38,0,0,0,0,2.75Z"/></g><g class="cls-12"><path class="cls-6" d="M191.07,270.82a1.38,1.38,0,0,0,0-2.76,1.38,1.38,0,0,0,0,2.76Z"/></g><g class="cls-12"><path class="cls-6" d="M191.07,288.59a1.38,1.38,0,0,0,0-2.75,1.38,1.38,0,0,0,0,2.75Z"/></g><g class="cls-12"><path class="cls-6" d="M191.07,308.58a1.38,1.38,0,0,0,0-2.75,1.38,1.38,0,0,0,0,2.75Z"/></g><g class="cls-12"><path class="cls-6" d="M191.07,325.62a1.38,1.38,0,0,0,0-2.76,1.38,1.38,0,0,0,0,2.76Z"/></g><g class="cls-12"><path class="cls-6" d="M191.07,347.83a1.38,1.38,0,0,0,0-2.75,1.38,1.38,0,0,0,0,2.75Z"/></g><g class="cls-12"><path class="cls-6" d="M191.07,366.35a1.38,1.38,0,0,0,0-2.76,1.38,1.38,0,0,0,0,2.76Z"/></g><g class="cls-12"><path class="cls-6" d="M191.07,386.34a1.38,1.38,0,0,0,0-2.75,1.38,1.38,0,0,0,0,2.75Z"/></g><g class="cls-12"><path class="cls-6" d="M191.07,408.56a1.38,1.38,0,0,0,0-2.76,1.38,1.38,0,0,0,0,2.76Z"/></g><g class="cls-12"><path class="cls-6" d="M191.07,427.07a1.38,1.38,0,0,0,0-2.75,1.38,1.38,0,0,0,0,2.75Z"/></g><g class="cls-12"><path class="cls-6" d="M191.07,214.54a1.38,1.38,0,0,0,0-2.76,1.38,1.38,0,0,0,0,2.76Z"/></g></g><path class="cls-2" d="M206.87,161.91c-6,13.79-4.7,29.49-4.61,44.54a6.43,6.43,0,0,1-.39,2.73c-.86,1.87-3.19,2.43-5.21,2.62a41.27,41.27,0,0,1-10.93-.46,3.72,3.72,0,0,1-2.12-.89,4.05,4.05,0,0,1-.72-2.85,270.31,270.31,0,0,0-4.39-48.93"/><g class="cls-5"><path class="cls-6" d="M178.47,160.15q1.68,9.21,2.71,18.52a38.19,38.19,0,0,0,21.14,5.48,62.19,62.19,0,0,1,4.51-20.77Z"/></g><path class="cls-2" d="M147.74,103.44c-4.58-5.51-11.94-9.63-18.86-7.68a15,15,0,0,0-9.79,9.8,20.12,20.12,0,0,0,1,14c4.49,10.39,16.91,16.71,28,14.25Z"/><g class="cls-13"><path class="cls-6" d="M135.05,132.84a24.25,24.25,0,0,0,13.54,1l-.33-30.41c-3.19-3.85-7.72-7-12.52-7.91.39,1.48.85,3,1.23,4.44A54.2,54.2,0,0,1,135.05,132.84Z"/></g><path class="cls-6" d="M127.83,105.66c1.42,1.63,2.77,3.12,4,4.67s2.44,3.11,3.53,4.74,2.11,3.3,3.07,5,1.85,3.56,2.84,5.48a15.9,15.9,0,0,0-.58-6.39,21,21,0,0,0-7.16-10.6A15.86,15.86,0,0,0,127.83,105.66Z"/><path class="cls-6" d="M138.8,118a3.48,3.48,0,0,0-3-1.35,5.38,5.38,0,0,0-5,4,3.5,3.5,0,0,0,.68,3.2,9.39,9.39,0,0,1,1.53-2.18,15.73,15.73,0,0,1,3.33-2.7A8.69,8.69,0,0,1,138.8,118Z"/><path class="cls-2" d="M241.47,102.06c4.84-5.3,12.38-9.06,19.2-6.79A15,15,0,0,1,270,105.52a20.12,20.12,0,0,1-1.65,14c-5,10.17-17.68,15.89-28.65,12.91Z"/><g class="cls-13"><path class="cls-6" d="M252.74,132a24.32,24.32,0,0,1-13.58.39L241,102c3.37-3.68,8.05-6.63,12.89-7.3-.47,1.46-1,2.91-1.45,4.38A54.19,54.19,0,0,0,252.74,132Z"/></g><path class="cls-6" d="M261.25,105.21c-1.49,1.56-2.92,3-4.25,4.48s-2.58,3-3.75,4.56-2.27,3.2-3.31,4.9-2,3.46-3.1,5.33a15.79,15.79,0,0,1,.89-6.35,21,21,0,0,1,3-5.72,20.73,20.73,0,0,1,4.63-4.53A15.83,15.83,0,0,1,261.25,105.21Z"/><path class="cls-6" d="M249.71,117a3.45,3.45,0,0,1,3.06-1.21,5.38,5.38,0,0,1,4.81,4.26,3.5,3.5,0,0,1-.83,3.17,9.61,9.61,0,0,0-1.43-2.26,15.54,15.54,0,0,0-1.5-1.53,14.16,14.16,0,0,0-1.7-1.31A8.64,8.64,0,0,0,249.71,117Z"/><path class="cls-2" d="M172.64,35.62c21.24-10.76,45.23-.11,55.57,7.23a35.82,35.82,0,0,1,11.54,12.43,39.16,39.16,0,0,1,4,14.25c1.37,12.37-.43,24.89.9,37.26,1.09,10.22,4.31,20.5,2.36,30.61-1.89,9.86-8.72,18.48-17.41,24s-19.12,8.3-29.55,9.15c-14.69,1.2-30.77-1.75-40.83-12.09-5.68-5.85-8.92-13.49-11.24-21.16-3.19-10.53-16.64-51.58,6.28-84.39C157.94,47.67,163.11,40.45,172.64,35.62Z"/><path class="cls-14" d="M193.79,210l17.79,54.13-19,52.08-16.47-53.93Z"/><g class="cls-15"><path class="cls-6" d="M184.46,238.21a25.84,25.84,0,0,0,7,1.6,29.75,29.75,0,0,0,8.33-1c1.21-.28,2.41-.57,3.61-.89l-9.29-28.25Z"/></g><path class="cls-14" d="M203.56,211.75c1.07,3.81-1.87,8.74-6.2,10.3-5.2,1.86-10.73-1.71-12.47-5.7a7.2,7.2,0,0,1-.45-4.84c1-3.38,4.53-4.73,5.56-5.12A11.19,11.19,0,0,1,200.66,208,7.45,7.45,0,0,1,203.56,211.75Z"/><path class="cls-8" d="M210,227.58c-.29.33-1.08,1.28-2,1.2s-1.43-1.06-1.63-1.41c-.87-1.52-9.51-15.47-11.63-18.92a4.94,4.94,0,0,1-1-2.89,5.08,5.08,0,0,1,1.12-2.28c3-4.13,6.45-7.44,7.92-11a3.64,3.64,0,0,1,1.79-2.3c1.17-.5,2.57-.09,3.9.43a28.86,28.86,0,0,1,8.78,5.64C216.2,202,212.17,225,210,227.58Z"/><path class="cls-8" d="M177.51,227.58c.28.33,1.08,1.28,2,1.2s1.42-1.06,1.63-1.41c.86-1.52,9.5-15.47,11.63-18.92a4.94,4.94,0,0,0,1-2.89,5.08,5.08,0,0,0-1.12-2.28c-3-4.13-6.45-7.44-7.92-11A3.68,3.68,0,0,0,183,190c-1.17-.5-2.58-.09-3.9.43a28.86,28.86,0,0,0-8.78,5.64C171.29,202,175.31,225,177.51,227.58Z"/><path class="cls-16" d="M267.73,398.51c1.47,9.25,1.92,13.14,2,14.94a38.71,38.71,0,0,0,.64,5,20,20,0,0,0,.46,2.1c.86,2.8,2.86,6.23,4.58,6.06.94-.09,1.51-1.24,1.74-1.7,1.35-2.71-1.08-4.54.1-7.38.5-1.2,1.63-2.55,2.73-2.49a2.12,2.12,0,0,1,1.45.92c3,3.81,2.28,13.77,2.28,13.77a9.2,9.2,0,0,0,1.16,6.13c.93,1.39,1.67,1.4,1.82,1.4,1,0,1.79-1.47,2.14-2.17,1.06-2.08.86-3.95,1.05-3.95s0,5.88,2,6.44c1.17.33,2.76-1.26,3.47-2.32a5.74,5.74,0,0,0,.51-5c1.08,3.82,2.88,6.28,4.49,6.21a2.2,2.2,0,0,0,1.32-.64c1.39-1.24,1.39-3.67.08-6.15.83,1,3,3.66,4.42,3.24s1.26-4.12,1.17-5.6c-.53-9-8.26-28.75-13.08-40.41"/><path class="cls-2" d="M267.8,398.65c2.52,10.29,2.86,14.17,2.65,15.75a15.85,15.85,0,0,0,0,4.21,13.06,13.06,0,0,0,.47,2.1c.85,2.8,2.85,6.23,4.57,6.06.94-.09,1.51-1.24,1.74-1.7,1.36-2.71-1.08-4.54.1-7.38.5-1.2,1.63-2.55,2.74-2.49a2.12,2.12,0,0,1,1.44.92c3,3.81,2.28,13.77,2.28,13.77A9.28,9.28,0,0,0,285,436c.92,1.39,1.66,1.4,1.81,1.4,1.05,0,1.8-1.47,2.15-2.17,1.05-2.08.85-3.95,1-3.95s0,5.88,2,6.44c1.16.33,2.76-1.26,3.46-2.32a5.79,5.79,0,0,0,.52-5c1.07,3.82,2.87,6.29,4.49,6.21a2.17,2.17,0,0,0,1.31-.64c1.39-1.24,1.39-3.67.09-6.15.83,1,3,3.66,4.42,3.24s1.26-4.12,1.17-5.6c-.54-9-8.26-28.75-13.09-40.41"/><g class="cls-17"><path class="cls-2" d="M289.76,435.06a.43.43,0,0,0,.42-.35,30.1,30.1,0,0,0-1-14.91.44.44,0,0,0-.54-.27.43.43,0,0,0-.28.54,29.21,29.21,0,0,1,1,14.48.43.43,0,0,0,.34.5Z"/><path class="cls-2" d="M296.6,435.12h0a.43.43,0,0,0,.41-.45c-.07-2-.22-4-.45-6a77.58,77.58,0,0,0-1.47-8.53.44.44,0,0,0-.52-.32.43.43,0,0,0-.32.51,76,76,0,0,1,1.46,8.44c.23,2,.37,3.94.44,5.89A.43.43,0,0,0,296.6,435.12Z"/><path class="cls-2" d="M302.31,431.15h.09a.43.43,0,0,0,.33-.51L300.25,419a.42.42,0,1,0-.83.18l2.47,11.62A.43.43,0,0,0,302.31,431.15Z"/></g><g class="cls-5"><path class="cls-6" d="M294.19,386.79c1.36,3.28,3,7.21,4.55,11.36A73.11,73.11,0,0,0,268.49,402c-.26-1.11-.54-2.31-.86-3.62Z"/></g><path class="cls-8" d="M255.77,206.08c6.4,5.06,6.76,11.89,7.19,13.44Q284.49,297.77,306,376c1,3.75,2,7.77,0,11.53-3.81,6.9-15.38,9.19-25,10.38-2.48.3-5.26.56-7.08-.56a5.77,5.77,0,0,1-2.15-3C247.8,337,237.54,276,227.38,215.31c-.17-1-2.08-4.63.23-8.38,2.4-3.92,7.73-5.58,8.12-5.7C245.62,198.27,255.17,205.6,255.77,206.08Z"/><g class="cls-18"><path class="cls-6" d="M271.82,394.85a5.72,5.72,0,0,0,2.15,3c1.81,1.11,4.59.86,7.07.55a87.75,87.75,0,0,0,11.27-2,444,444,0,0,1-13.62-68.28s-8.17-69.44-21-103.88a49,49,0,0,0-11.07-17.79,47.91,47.91,0,0,0-6.37-5.42,17.21,17.21,0,0,0-2.84.31,15.81,15.81,0,0,0-1.58.39c-.4.11-5.72,1.77-8.13,5.69-2.3,3.76-.39,7.4-.23,8.39C237.64,276.43,247.9,337.43,271.82,394.85Z"/></g><path class="cls-8" d="M215.56,194.87c.47,72.83-.6,110.43-1.85,131.37-.26,4.38-1.05,17.73-.61,35.66.37,15.37,2,30.67,3.89,45.92q5.83,46.67,15.26,92.77c.29,1.41.65,2.93,1.76,3.82a6,6,0,0,0,3.51,1,233.13,233.13,0,0,0,63-4.89,6.3,6.3,0,0,0,3.28-1.43c1.44-1.47,1.17-3.86.78-5.89C295.74,446.73,283.12,401,277.52,354c0-.29-2.49-32.82-7.38-97.89-1.41-18.79-2.85-38-17.38-50.43C240.68,195.41,225,194.49,215.56,194.87Z"/><g class="cls-19"><g class="cls-20"><path class="cls-21" d="M211.72,192.55c10,.77,16.19,10.55,19.55,19a91.16,91.16,0,0,1,4.78,17.72c.76,4.19,3,10.34.23,14.19a14.34,14.34,0,0,1-4.88,3.77c-1.15.63-2.37,1.14-3.51,1.78-2,1.12-1.23,2.84-.57,4.52,1.13,2.89,2.29,5.78,3.43,8.67,1,2.62,1.95,5.13,1.33,8-.54,2.5-1.93,4.92-3,7.24l-4,8.62q-7.73,16.86-15.2,33.83c-.51,1.15-2.21.15-1.7-1,6.65-15.08,13.51-30.06,20.37-45.05a20.2,20.2,0,0,0,1.6-4.16c.65-3.19-1.13-6.4-2.27-9.28-1-2.64-2.35-5.31-3.14-8-.52-1.79-.28-3.33,1.24-4.48,3.91-3,10.12-3.53,9.55-9.8a108.18,108.18,0,0,0-3.31-17c-1.56-6-3.68-12.11-7.23-17.3-3.09-4.52-7.59-8.75-13.31-9.19-1.25-.1-1.26-2.07,0-2Z"/></g></g><path class="cls-8" d="M172.66,195.86c-.47,72.82.6,110.42,1.85,131.36.26,4.38,1.05,17.74.61,35.67-.37,15.37-2,30.67-3.89,45.91Q165.4,455.48,156,501.58c-.29,1.4-.65,2.93-1.76,3.82a6.15,6.15,0,0,1-3.51,1,233.13,233.13,0,0,1-63-4.89A6.3,6.3,0,0,1,84.43,500c-1.44-1.47-1.17-3.87-.78-5.89C92.47,447.71,105.09,402,110.7,355c3.74-31.32-.19-38.29,7.37-97.88,2.36-18.58,5.48-38.54,21.51-50.93C150.87,197.48,164.13,195.94,172.66,195.86Z"/><g class="cls-19"><g class="cls-22"><path class="cls-23" d="M176.51,195.49c-10.7.84-16.19,13.86-18.8,22.64a142.26,142.26,0,0,0-3.53,16.59c-.46,2.72-1.55,6.05.19,8.52,1.54,2.18,4.4,3.4,6.7,4.59,1.33.68,2.69,1.4,3.06,3,.51,2.14-1,4.61-1.7,6.53-1,2.71-2.14,5.4-3.09,8.14-1.09,3.11-.69,5.49.6,8.44,2,4.69,4.17,9.34,6.24,14q7.06,15.9,13.9,31.88c.48,1.14-1.19,2.13-1.68,1-6.59-15.41-13.49-30.67-20.19-46a13.14,13.14,0,0,1-1.5-6.6c.27-2.83,1.64-5.55,2.65-8.18l1.81-4.73c.47-1.23,1.67-3.33.77-4.61-.56-.77-2.09-1.25-2.9-1.68a28.68,28.68,0,0,1-4.12-2.48c-4-3.05-3.55-7-2.74-11.48a149.59,149.59,0,0,1,3.89-18.13c3-9.56,9-22.41,20.44-23.31,1.24-.1,1.23,1.84,0,1.94Z"/></g></g><path class="cls-24" d="M201.65,282.49a11.94,11.94,0,1,0,13.81-9.93A12,12,0,0,0,201.65,282.49Zm5.49.94a6.37,6.37,0,1,1,5.18,7.44A6.42,6.42,0,0,1,207.14,283.43Z"/><rect class="cls-24" x="146.44" y="306.67" width="111.58" height="86.39" transform="translate(-176.7 490.29) rotate(-80.3)"/><rect class="cls-25" x="146.44" y="306.67" width="111.58" height="86.39" transform="translate(-176.7 490.29) rotate(-80.3)"/><path class="cls-24" d="M165.72,294.31l89.42,15.27.65-3.83a15,15,0,0,0-12.4-17.17l-59.63-10.19a15,15,0,0,0-17.38,12.06Z"/><path class="cls-2" d="M199.71,360.67c10.62,1.38,15.09,1.78,17.15,1.87a48,48,0,0,1,5.76.57,23.58,23.58,0,0,1,2.42.45c3.22.84,7.17,2.86,7,4.64-.1,1-1.4,1.58-1.93,1.83-3.11,1.44-5.22-1-8.47.22-1.37.54-2.91,1.73-2.84,2.87a2.14,2.14,0,0,0,1.08,1.48c4.39,3.09,15.81,2.14,15.81,2.14,1.55-.13,4.45-.42,7,1.11,1.59.94,1.62,1.7,1.62,1.86,0,1.09-1.68,1.88-2.47,2.25-2.38,1.13-4.53,1-4.53,1.15s6.74-.08,7.41,2c.38,1.2-1.42,2.88-2.63,3.63a7.22,7.22,0,0,1-5.77.61c4.4,1.05,7.24,2.88,7.16,4.55a2.18,2.18,0,0,1-.72,1.38c-1.4,1.46-4.2,1.5-7.05.18,1.2.84,4.22,3.09,3.75,4.53s-4.71,1.37-6.41,1.3c-10.36-.4-33.06-8.09-46.47-12.9"/><g class="cls-26"><g class="cls-27"><path class="cls-6" d="M234.61,384a37.92,37.92,0,0,0,6.81-.62.47.47,0,0,0-.17-.92,36.8,36.8,0,0,1-16.66-.78.47.47,0,0,0-.57.33.46.46,0,0,0,.32.57A37.88,37.88,0,0,0,234.61,384Z"/><path class="cls-6" d="M241.46,390.45a.47.47,0,0,0,.47-.46.47.47,0,0,0-.46-.47c-2.26,0-4.53-.16-6.77-.37a92.77,92.77,0,0,1-9.7-1.37.46.46,0,0,0-.55.37.47.47,0,0,0,.37.55,97.72,97.72,0,0,0,9.79,1.39c2.27.2,4.57.32,6.84.36Z"/><path class="cls-6" d="M237,396.43a.47.47,0,0,0,.46-.39.48.48,0,0,0-.38-.54l-13.35-2.37a.46.46,0,0,0-.54.38.46.46,0,0,0,.37.54l13.36,2.37Z"/></g></g><g class="cls-5"><path class="cls-6" d="M186.5,388.27c3.78,1.36,8.3,2.94,13.07,4.52a69.05,69.05,0,0,1,4.17-31.39c-1.28-.25-2.66-.52-4.16-.83Z"/></g><path class="cls-8" d="M198.74,356.33a83.73,83.73,0,0,1-24.57-18.61c-17.77-19.8-20.61-43.54-21.8-54.55-3.56-33-11.32-48.47-3.78-59.39,4.18-6.06,13.38-14.12,10.88-21.34a9.24,9.24,0,0,0-3.13-4.17,59.49,59.49,0,0,0-23.63,6.61c-3.67,1.94-7.2,3.84-10.41,7.71-4.18,5-5.22,10.4-6.48,17.12-1.75,9.28-3.09,18.62-4.14,28-3.19,28.4-3.48,58,7.92,84.27s36.78,48.55,66.84,50c2.11-1.38,11-7.54,13.6-19A28.65,28.65,0,0,0,198.74,356.33Z"/><g class="cls-18"><path class="cls-6" d="M119.17,342.48c11.4,26.28,36.78,48.56,66.83,50a33.87,33.87,0,0,0,9.29-9.12c-13.36-2.07-25.61-9.65-36.2-17.94-12.6-9.86-24.16-21.22-32.07-34.8-14-24.09-15.29-52.61-14.78-80.51-.37,2.7-.7,5.41-1,8.11C108.05,286.62,107.76,316.21,119.17,342.48Z"/></g><path class="cls-28" d="M162.83,320a76.71,76.71,0,0,1-10.25-19.2,100.47,100.47,0,0,1-5.12-21.07c-2-14.38-1.31-29-1-43.71-2.31,14.47-3.48,29.32-1.5,44a84,84,0,0,0,5.79,21.44A59.78,59.78,0,0,0,162.83,320Z"/><path class="cls-28" d="M270.09,503.31l-5-33.94c-1.63-11.31-3.33-22.61-4.76-33.95-1.63-11.31-3-22.65-4.43-34l-4.21-34.05c.19,5.72.58,11.43.91,17.14s.91,11.41,1.4,17.11c1.05,11.4,2.44,22.76,3.88,34.12,1.64,11.33,3.3,22.66,5.34,33.92q1.54,8.44,3.19,16.87C267.62,492.14,268.76,497.74,270.09,503.31Z"/><path class="cls-28" d="M134.66,377.72c-1.19,5.09-2.22,10.21-3.34,15.31l-3.08,15.36c-2.05,10.24-3.91,20.52-5.77,30.79s-3.6,20.57-5.21,30.89l-2.4,15.48c-.38,2.58-.7,5.19-1.13,7.74a13.71,13.71,0,0,1-3,7c2-1.75,3-4.37,3.63-6.9s1.12-5.11,1.68-7.67l3.09-15.36c2-10.24,3.91-20.51,5.76-30.79s3.6-20.57,5.2-30.89l2.41-15.47C133.22,388.07,134,382.91,134.66,377.72Z"/><path class="cls-28" d="M211.41,642.91c-1.26,3.27-.51,7.06.77,10.25a74.18,74.18,0,0,0,4.69,9.14A92,92,0,0,0,229,678.74c-1.53-3.07-3.2-6-4.88-9L219,661l-2.58-4.35c-.89-1.43-1.71-2.88-2.49-4.33C212.42,649.45,211.2,646.35,211.41,642.91Z"/><path class="cls-28" d="M208.13,666.64a14.71,14.71,0,0,0,2.84,8.72,16.68,16.68,0,0,0,3.17,3.38,12.1,12.1,0,0,0,4.07,2.24c-.9-1.29-1.81-2.44-2.69-3.59s-1.7-2.3-2.53-3.46C211.32,671.62,209.89,669.21,208.13,666.64Z"/><path class="cls-28" d="M166.85,639a95,95,0,0,1-8.18,13.14c-1.52,2.05-3.19,4-4.92,5.9s-3.58,3.71-5.48,5.58a27.13,27.13,0,0,0,6.81-4.18,34.39,34.39,0,0,0,5.56-5.81A31.18,31.18,0,0,0,166.85,639Z"/><path class="cls-28" d="M163.61,660.86c-2.17,2.36-4,4.55-6.16,6.58s-4.32,3.87-6.73,6a12.18,12.18,0,0,0,4.57-1.41,16.27,16.27,0,0,0,3.89-2.81A14.59,14.59,0,0,0,163.61,660.86Z"/><path class="cls-28" d="M114.26,650.85a33.68,33.68,0,0,0,2.41,9.41,96.31,96.31,0,0,0,3.76,8.92,53.85,53.85,0,0,0,5,8.38,32.17,32.17,0,0,0,6.78,7c-1.87-2.66-3.6-5.3-5.17-8s-3-5.55-4.38-8.41l-4.21-8.61C117,656.61,115.46,653.87,114.26,650.85Z"/><rect class="cls-29" x="234.65" y="270.87" width="28.3" height="8.15" transform="translate(497.59 549.88) rotate(-180)"/><path class="cls-6" d="M250.57,747.58a17.24,17.24,0,0,1-2.27-5.92c-.26-2.13.42-4.54,2.15-5.63s3.93-.59,5.59.55a24.86,24.86,0,0,1,4.27,4.36c8.31,9.42,20.75,13,32.62,15.61,2.94.63,6,1.29,8.34,3.33s3.49,6,1.71,8.52c-1.35,1.94-3.81,2.48-6.05,2.81-20.8,3-41.91.12-62.73-2.8l-14.36-2a17.33,17.33,0,0,1-6.66-1.87c-2.89-1.73-4.7-5.06-5.48-8.5a41.59,41.59,0,0,1-.58-10.58c0-1.8.42-4.05,2-4.52a4,4,0,0,1,2.93.8,59.12,59.12,0,0,0,39.29,7.11"/><path class="cls-6" d="M141.52,746.82l-.4,21.56a6.06,6.06,0,0,1-1.08,4.07,7.79,7.79,0,0,1-4,1.95,62,62,0,0,1-30.83-.3c-2.23-.6-4.55-1.43-5.82-3.11-1.62-2.17-1-5-.18-7.5a104.14,104.14,0,0,1,9.07-20.41,1.5,1.5,0,0,1,.69-.74,2,2,0,0,1,1.52.23A57.76,57.76,0,0,0,140,746.91"/><path class="cls-6" d="M134.08,749.7a25.06,25.06,0,0,0,2.43-6.31,2.26,2.26,0,0,0,0-1.54c-.44-1-1.76-.89-2.78-.78-4.85.52-9.59-1.36-14.17-3a3.07,3.07,0,0,0-2.47-.16,3,3,0,0,0-.92,1,14.94,14.94,0,0,0-2.31,6.13"/><path class="cls-28" d="M201.25,99.27a34.88,34.88,0,0,0-3.31,10.84,70.61,70.61,0,0,0-.65,11.33l.07,2.82a15.65,15.65,0,0,0,.25,3,3.25,3.25,0,0,0,1.08,1.75,3.73,3.73,0,0,0,1.77.68,4.59,4.59,0,0,1,1.11.28,3.4,3.4,0,0,1,.93.59,3.48,3.48,0,0,1,.95,4.18,4.19,4.19,0,0,1-4.41,2.16,4.54,4.54,0,0,0,5.37-1.56,4.37,4.37,0,0,0,.78-3.13,5.39,5.39,0,0,0-1.42-2.94,5.29,5.29,0,0,0-1.35-1,5.76,5.76,0,0,0-1.56-.53c-.94-.24-.91-.3-1.12-1a19.09,19.09,0,0,1-.12-2.56l0-2.8C199.48,114,199.53,106.61,201.25,99.27Z"/><path class="cls-21" d="M201.93,153.49c-.72.11-1.39.28-2.08.35s-1.38.13-2.11.21A4.42,4.42,0,0,0,201.93,153.49Z"/><path class="cls-6" d="M219.48,141.38a55.13,55.13,0,0,1-22,5.83,50.67,50.67,0,0,1-11.33-.75,24.38,24.38,0,0,1-10.54-4.23c2.49,3.09,6.31,5,10.13,6a39.06,39.06,0,0,0,11.84,1.31,40,40,0,0,0,11.68-2.34A34.27,34.27,0,0,0,219.48,141.38Z"/><path class="cls-6" d="M173.28,145.18a37.19,37.19,0,0,1,2.73-2.63c.93-.81,1.93-1.51,3-2.3a6.59,6.59,0,0,0-3.62,1.6A6.48,6.48,0,0,0,173.28,145.18Z"/><path class="cls-24" d="M183.76,86.27c-7.4-11.13-18.65-13.06-27.09-4.64"/><path class="cls-8" d="M155.58,103.52c-.37,6.6,6.62,11.85,13.24,11.86,5.75,0,12.07-3.94,12.76-9.76.78-6.54-5.91-12.42-12.76-12.61C162.61,92.84,155.93,97.32,155.58,103.52Z"/><path class="cls-6" d="M182.05,106.22a14.32,14.32,0,0,0,0-5.22,14.17,14.17,0,0,0-2-5.09,13.17,13.17,0,0,0-4.12-4,13.76,13.76,0,0,0-2.71-1.29,13.27,13.27,0,0,0-3-.61,12.44,12.44,0,0,0-3.11.21,12.75,12.75,0,0,0-2.87,1,14.66,14.66,0,0,0-4.57,3.42A18.72,18.72,0,0,0,156.68,99,25.63,25.63,0,0,0,155,103.9c1.3-1.17,2.46-2.42,3.63-3.56a31.63,31.63,0,0,1,3.57-3.11,12,12,0,0,1,7.68-2.62,11.73,11.73,0,0,1,7.25,3.53,18.26,18.26,0,0,1,2.76,3.63A41,41,0,0,1,182.05,106.22Z"/><path class="cls-21" d="M177.82,91.08c.58.44,1.16.8,1.69,1.25s1,.89,1.6,1.36A4.38,4.38,0,0,0,177.82,91.08Z"/><ellipse class="cls-6" cx="169.28" cy="102.66" rx="7.39" ry="9.04"/><path class="cls-24" d="M206.27,86.43c7.4-11.14,18.65-13.06,27.08-4.65"/><path class="cls-8" d="M234.44,103.68c.37,6.6-6.61,11.85-13.23,11.86-5.76,0-12.07-4-12.76-9.76-.78-6.54,5.9-12.42,12.76-12.61C227.42,93,234.09,97.48,234.44,103.68Z"/><path class="cls-6" d="M208,106.38a14.54,14.54,0,0,1,0-5.22,14.24,14.24,0,0,1,2-5.1,13.17,13.17,0,0,1,4.12-4,12.94,12.94,0,0,1,2.71-1.28,12.65,12.65,0,0,1,3-.61,11.88,11.88,0,0,1,3.1.2,13.45,13.45,0,0,1,2.87,1,14.85,14.85,0,0,1,4.57,3.42,18.18,18.18,0,0,1,2.94,4.49,25.57,25.57,0,0,1,1.73,4.86c-1.31-1.17-2.46-2.41-3.64-3.56a30.47,30.47,0,0,0-3.56-3.1,12,12,0,0,0-7.68-2.62,11.66,11.66,0,0,0-7.25,3.52,18.46,18.46,0,0,0-2.76,3.63A40.24,40.24,0,0,0,208,106.38Z"/><path class="cls-21" d="M212.21,91.23a4.43,4.43,0,0,0-3.3,2.61c.57-.46,1.05-1,1.61-1.36S211.63,91.68,212.21,91.23Z"/><ellipse class="cls-6" cx="220.74" cy="102.82" rx="7.39" ry="9.04"/><path class="cls-4" d="M246.55,96.53c-.8.36-2.29.29-9.07-6.92a152,152,0,0,1-22.56-31.34q-.87,7.29-1.75,14.57a5.28,5.28,0,0,1-.73,2.5c-1.12,1.55-3.37,1.25-5.12.67a45.09,45.09,0,0,1-25.71-22.48q1.27,8.41,2.54,16.81a5.63,5.63,0,0,1-.24,3.57,3.91,3.91,0,0,1-2.75,1.72c-7,1.4-12.23-6.29-15.53-12.93C163.72,78,152.27,91.61,138.08,95.35A65.67,65.67,0,0,1,145.18,59a62.75,62.75,0,0,1,24.41-25c5.34-3,20.11-11.21,38.2-6.41,18.39,4.89,27.63,19.9,30.57,24.69C249.55,70.52,251.13,94.46,246.55,96.53Z"/><g class="cls-30"><g class="cls-31"><path class="cls-6" d="M248.73,97a233.47,233.47,0,0,0-14.54-42.07,231.82,231.82,0,0,1,10,42.93Z"/><path class="cls-6" d="M220.62,70.12l-1.53-7.57-.77-3.78a23.79,23.79,0,0,0-1-3.94,19.55,19.55,0,0,0-2-3.56c-.71-1.08-1.44-2.15-2.2-3.2C211.61,46,210,43.93,208.37,42q2,3.28,3.75,6.71a37.51,37.51,0,0,1,2.93,6.86,61.31,61.31,0,0,1,.57,7.46L216,70.7Z"/><path class="cls-6" d="M219.07,84.6c-2.76-6.51-6.67-12-9.91-17.78a176.25,176.25,0,0,1-8.91-17.95,178.22,178.22,0,0,0,6.82,19c2.61,6.24,5.85,12.19,7.62,18.32Z"/><path class="cls-6" d="M206,78.4c.38,0,.66.2.5.17a1.67,1.67,0,0,1-.6-.46c-.56-.64-1.17-1.4-1.74-2.11q-1.71-2.19-3.23-4.55a62.74,62.74,0,0,1-5.25-10,64.23,64.23,0,0,0,3.17,11.07c.7,1.81,1.49,3.59,2.35,5.35.45.89.87,1.71,1.39,2.63A6.24,6.24,0,0,0,204,82.09a4.07,4.07,0,0,0,1.3.73,3.64,3.64,0,0,0,1.86.11Z"/><path class="cls-6" d="M191.36,71.9a116.29,116.29,0,0,1-6.45-11.61,113,113,0,0,1-5.09-12.39,114.14,114.14,0,0,0,2.91,13.21A121.94,121.94,0,0,0,187.2,74Z"/><path class="cls-6" d="M186,81.23A7,7,0,0,0,184,77.94c-.8-.76-1.46-1.28-2.13-1.89a40.5,40.5,0,0,1-3.75-3.88,40,40,0,0,1-5.85-9.31,40.93,40.93,0,0,0,3.92,10.61,44.26,44.26,0,0,0,3.08,4.91c.56.78,1.22,1.57,1.64,2.21a2.59,2.59,0,0,1,.59,1.53Z"/><path class="cls-6" d="M163.06,90a102.06,102.06,0,0,1,.78-36,104.25,104.25,0,0,0-5.41,36.46Z"/><path class="cls-6" d="M234.63,88.71a143.87,143.87,0,0,0-7.48-28.25A141.44,141.44,0,0,1,230,89.08Z"/><path class="cls-6" d="M146.76,105.37A158.45,158.45,0,0,1,153,76.55a161.11,161.11,0,0,0-10.82,27.89Z"/></g></g></svg>