<svg id="Layer_1" data-name="Layer 1" xmlns="http://www.w3.org/2000/svg" xmlns:xlink="http://www.w3.org/1999/xlink" viewBox="0 0 382 800"><defs><style>.cls-1,.cls-22,.cls-23,.cls-24{fill:none;}.cls-11,.cls-14,.cls-15,.cls-2,.cls-4,.cls-8{fill:#080205;}.cls-2{opacity:0.03;}.cls-3{fill:#ff353b;}.cls-4{opacity:0.23;}.cls-5{fill:#fff;}.cls-6{fill:#ffb085;}.cls-7{clip-path:url(#clip-path);}.cls-8{opacity:0.35;}.cls-9{fill:gray;}.cls-10{opacity:0.1;}.cls-12{opacity:0.06;}.cls-13{opacity:0.11;}.cls-14{opacity:0.18;}.cls-15{opacity:0.31;}.cls-16{fill:#899bc1;}.cls-17,.cls-18{fill:#4d4d4d;}.cls-18{opacity:0.3;}.cls-19{opacity:0.13;}.cls-20{clip-path:url(#clip-path-2);}.cls-21{opacity:0.36;}.cls-22,.cls-23,.cls-24{stroke:#1a1a1a;}.cls-22,.cls-23{stroke-miterlimit:10;}.cls-22{stroke-width:3px;}.cls-23,.cls-24{stroke-width:4px;}.cls-24{stroke-linecap:round;stroke-linejoin:round;}</style><clipPath id="clip-path"><path class="cls-1" d="M89.24,438.23A92.71,92.71,0,0,0,79.8,460a20.36,20.36,0,0,0-1,8.36c.85,6,6.14,10.55,11.49,13.84,3.28,2,7.82,3.71,10.68,1.34,1.57-1.31,2-3.45,2.41-5.43l2.7-14.4c2.3,1.05,3.27,3.76,3.26,6.17s-.73,4.77-.69,7.18a3.5,3.5,0,0,0,.65,2.25c.9,1.06,2.62,1,3.92.54,3-1.14,4.78-4.1,5.53-7.11,2.64-10.53-5-21.91-2.23-32.4"/></clipPath><clipPath id="clip-path-2"><path class="cls-1" d="M228.38,341.21c-14.71-5.63-21-8.19-22.48-8.93l-.49-.24a21,21,0,0,0-4.61-1.57,18.82,18.82,0,0,0-2.74-.36c-3.77-.21-8.78.67-9.31,2.77-.3,1.15.84,2.31,1.3,2.79,2.71,2.77,6,.68,8.9,3.31,1.24,1.11,2.39,3,1.84,4.3a2.64,2.64,0,0,1-1.74,1.3c-5.92,1.94-17.66-3.27-17.66-3.27-1.59-.71-4.55-2.09-7.93-1.28-2.07.49-2.41,1.35-2.47,1.53-.43,1.25,1,2.75,1.7,3.47,2.07,2.14,4.42,2.72,4.34,2.94-.13.4-7.13-2.52-8.67-.41-.9,1.23.33,3.8,1.31,5.08a7.61,7.61,0,0,0,5.88,2.79c-5.1-.39-8.85.67-9.46,2.6a2.74,2.74,0,0,0,.21,1.83c.9,2.17,3.85,3.23,7.42,2.76-1.62.53-5.75,2-5.83,3.81s4.44,3.25,6.28,3.81c11.31,3.44,39.1,2.74,54.58,2.07"/></clipPath></defs><title>people</title><ellipse class="cls-2" cx="191" cy="757.67" rx="173" ry="29.33"/><path class="cls-3" d="M80.09,494.72c.5-5.91.94-12.28,3.86-17.59,2.27-4.12,6.41-8,11.42-7.75s8.83,4.29,10.91,8.42c2.83,5.6,3,12.22,3.33,18.36.25,5.08,8.19,5.11,7.93,0-.4-8.05-.89-16.65-5.17-23.73-3.61-6-9.82-10.73-17-11s-13.42,4.31-17.27,10c-4.56,6.78-5.28,15.34-5.94,23.24-.43,5.09,7.51,5.06,7.93,0Z"/><rect class="cls-3" x="47.15" y="493.23" width="89.59" height="97.06" rx="6.56"/><path class="cls-4" d="M136.74,559.46V579A11.75,11.75,0,0,1,125,590.7H58.9A11.75,11.75,0,0,1,47.15,579V553.41C74.27,568.06,107.92,570.52,136.74,559.46Z"/><rect class="cls-5" x="84.95" y="517.17" width="14" height="52.25"/><rect class="cls-5" x="84.95" y="517.17" width="14" height="52.25" transform="translate(-451.35 635.24) rotate(-90)"/><path class="cls-6" d="M89.24,437.7a92.71,92.71,0,0,0-9.44,21.81,20.39,20.39,0,0,0-1,8.37c.85,6,6.14,10.54,11.49,13.83,3.28,2,7.82,3.71,10.68,1.34,1.57-1.31,2-3.45,2.41-5.43l2.7-14.4c2.3,1,3.27,3.76,3.26,6.17s-.73,4.77-.69,7.18a3.5,3.5,0,0,0,.65,2.25c.9,1.06,2.62,1,3.92.55,3-1.15,4.78-4.11,5.53-7.12,2.64-10.53-5-21.91-2.23-32.4"/><g class="cls-7"><path class="cls-8" d="M99.42,488.45a15.68,15.68,0,0,1-2.75-20.18c.24-.36-.33-.69-.57-.34a16.35,16.35,0,0,0,2.85,21c.32.27.79-.19.47-.47Z"/><path class="cls-8" d="M88.22,486.14A21.69,21.69,0,0,1,88.86,467c.2-.38-.37-.71-.57-.34a22.38,22.38,0,0,0-.64,19.86c.18.39.75,0,.57-.33Z"/><path class="cls-8" d="M81.32,483.25a32.67,32.67,0,0,1,1.82-21c.17-.39-.4-.73-.57-.34a33.45,33.45,0,0,0-1.89,21.52c.1.41.74.23.64-.18Z"/></g><path class="cls-9" d="M136.58,104.88c-2.86-12.18-4.85-24.82-4-37.41.39-5.88,2.65-20.86,12.33-34.23,17-23.46,46.62-24.73,65.74-19.17,6.63,1.93,21,6.12,32,21,14.78,20,17.12,50.63,7,79.47"/><path class="cls-6" d="M177.37,159.91c6.77,14,5.27,29.92,5.13,45.2a5.76,5.76,0,0,0,.43,2.76c1,1.9,3.64,2.46,5.95,2.65a53.46,53.46,0,0,0,12.51-.5,4.64,4.64,0,0,0,2.43-.92,3.76,3.76,0,0,0,.83-2.89,245.27,245.27,0,0,1,5.19-49.68"/><g class="cls-10"><path class="cls-11" d="M209.88,158q-2,9.35-3.17,18.8a48.34,48.34,0,0,1-24.21,5.64c-.52-7.28-1.87-14.4-5.09-21.07Z"/></g><path class="cls-6" d="M240.68,100.49c4.6-5.6,12-9.78,18.92-7.81a15.12,15.12,0,0,1,9.82,9.95,20.7,20.7,0,0,1-1,14.26c-4.5,10.55-16.95,17-28.08,14.46Z"/><g class="cls-12"><path class="cls-11" d="M253.41,130.32a24,24,0,0,1-13.58,1l.33-30.86c3.2-3.9,7.75-7.11,12.56-8-.39,1.5-.85,3-1.24,4.51A55.62,55.62,0,0,0,253.41,130.32Z"/></g><g class="cls-13"><path class="cls-11" d="M260.65,102.73c-1.42,1.65-2.78,3.17-4,4.74s-2.44,3.16-3.54,4.81S251,115.63,250,117.4s-1.85,3.62-2.85,5.56a16.14,16.14,0,0,1,.59-6.48,21.39,21.39,0,0,1,7.18-10.76A15.86,15.86,0,0,1,260.65,102.73Z"/><path class="cls-11" d="M249.66,115.21a3.46,3.46,0,0,1,3-1.38,5.43,5.43,0,0,1,5,4.09,3.61,3.61,0,0,1-.68,3.25,10.22,10.22,0,0,0-1.54-2.21,15.64,15.64,0,0,0-1.58-1.49,15.33,15.33,0,0,0-1.76-1.24A8.62,8.62,0,0,0,249.66,115.21Z"/></g><path class="cls-6" d="M146.7,99.08c-4.85-5.38-12.42-9.19-19.26-6.89a15.1,15.1,0,0,0-9.33,10.41,20.61,20.61,0,0,0,1.64,14.19c5,10.32,17.74,16.13,28.74,13.1Z"/><g class="cls-12"><path class="cls-11" d="M135.4,129.49a24.07,24.07,0,0,0,13.61.39l-1.78-30.82c-3.38-3.74-8.08-6.72-12.93-7.41.47,1.48,1,2.95,1.45,4.44A55.73,55.73,0,0,1,135.4,129.49Z"/></g><g class="cls-13"><path class="cls-11" d="M126.86,102.28c1.5,1.58,2.93,3,4.27,4.54s2.58,3,3.76,4.63,2.27,3.25,3.32,5,2,3.52,3.1,5.42a16.26,16.26,0,0,0-.89-6.45A21.32,21.32,0,0,0,132.74,105,15.91,15.91,0,0,0,126.86,102.28Z"/><path class="cls-11" d="M138.44,114.21a3.49,3.49,0,0,0-3.07-1.23,5.31,5.31,0,0,0-3.13,1.37,5.38,5.38,0,0,0-1.7,3,3.61,3.61,0,0,0,.84,3.21,9.58,9.58,0,0,1,1.43-2.28,13.18,13.18,0,0,1,1.51-1.56,14.28,14.28,0,0,1,1.7-1.33A8.69,8.69,0,0,1,138.44,114.21Z"/></g><path class="cls-6" d="M215.71,31.65C194.42,20.74,170.37,31.54,160,39a36.11,36.11,0,0,0-11.56,12.62,39.93,39.93,0,0,0-4,14.46c-1.38,12.55.42,25.26-.91,37.81-1.09,10.38-4.32,20.81-2.37,31.06,1.9,10,8.75,18.76,17.46,24.41s19.18,8.43,29.64,9.29c14.72,1.22,30.84-1.77,40.93-12.27,5.7-5.93,8.95-13.69,11.28-21.47,3.2-10.69,16.68-52.35-6.31-85.65C230.46,43.88,225.28,36.56,215.71,31.65Z"/><path class="cls-14" d="M187,96.25a35.21,35.21,0,0,1,3.33,11,73.5,73.5,0,0,1,.65,11.46l-.07,2.86a17.29,17.29,0,0,1-.23,3,3.38,3.38,0,0,1-1,1.79,3.56,3.56,0,0,1-1.8.74,4.71,4.71,0,0,0-1.14.29,3.85,3.85,0,0,0-.94.58,3.62,3.62,0,0,0-1,4.25,4.22,4.22,0,0,0,4.44,2.22,4.52,4.52,0,0,1-5.42-1.62,4.47,4.47,0,0,1-.75-3.17,5.44,5.44,0,0,1,1.45-3,5.62,5.62,0,0,1,1.36-1,6.06,6.06,0,0,1,1.58-.52c.91-.24.87-.3,1.08-1a20.36,20.36,0,0,0,.1-2.61l0-2.83c.07-3.77.06-7.52-.13-11.25A67.83,67.83,0,0,0,187,96.25Z"/><path class="cls-15" d="M186.35,151.28c.73.11,1.39.29,2.09.35s1.37.13,2.11.22A4.44,4.44,0,0,1,186.35,151.28Z"/><path class="cls-9" d="M204.57,83.06c7.42-11.3,18.7-13.26,27.16-4.71"/><path class="cls-5" d="M232.82,100.56c.37,6.7-6.63,12-13.27,12-5.77,0-12.1-4-12.8-9.9-.78-6.64,5.93-12.61,12.8-12.8C225.78,89.72,232.47,94.27,232.82,100.56Z"/><path class="cls-11" d="M206.29,103.31a14.53,14.53,0,0,1,0-5.3,14.31,14.31,0,0,1,2-5.17,13.28,13.28,0,0,1,4.13-4.11,13.65,13.65,0,0,1,2.72-1.31,12.83,12.83,0,0,1,3-.61,12,12,0,0,1,3.11.2,12.7,12.7,0,0,1,2.88,1,14.69,14.69,0,0,1,4.58,3.47A18.65,18.65,0,0,1,231.72,96a27.05,27.05,0,0,1,1.73,4.94c-1.31-1.19-2.46-2.46-3.65-3.62a30.3,30.3,0,0,0-3.57-3.15,12,12,0,0,0-7.7-2.66,11.67,11.67,0,0,0-7.27,3.58,18.35,18.35,0,0,0-2.77,3.69A39.58,39.58,0,0,0,206.29,103.31Z"/><path class="cls-15" d="M210.53,87.94c-.59.45-1.17.81-1.7,1.26s-1,.91-1.61,1.38A4.43,4.43,0,0,1,210.53,87.94Z"/><ellipse class="cls-11" cx="219.09" cy="99.69" rx="7.41" ry="9.17"/><path class="cls-9" d="M182,83.21C174.58,71.92,163.29,70,154.84,78.5"/><path class="cls-5" d="M153.75,100.72c-.38,6.7,6.63,12,13.26,12,5.78,0,12.11-4,12.8-9.91.79-6.63-5.92-12.6-12.8-12.79C160.79,89.88,154.1,94.43,153.75,100.72Z"/><path class="cls-11" d="M180.28,103.46a14.75,14.75,0,0,0,0-5.3,14.38,14.38,0,0,0-2-5.17,13.39,13.39,0,0,0-4.13-4.11,13.62,13.62,0,0,0-2.72-1.3,13.36,13.36,0,0,0-3-.62,12,12,0,0,0-3.11.21,13.19,13.19,0,0,0-2.88,1,14.75,14.75,0,0,0-4.58,3.48,18.78,18.78,0,0,0-3,4.54,26.57,26.57,0,0,0-1.73,4.94c1.31-1.18,2.46-2.45,3.64-3.61a31.19,31.19,0,0,1,3.58-3.15,11.91,11.91,0,0,1,7.7-2.66,11.67,11.67,0,0,1,7.27,3.58,19,19,0,0,1,2.77,3.68A41.27,41.27,0,0,1,180.28,103.46Z"/><path class="cls-15" d="M176,88.09a4.44,4.44,0,0,1,3.31,2.65c-.57-.47-1-1-1.61-1.38S176.63,88.54,176,88.09Z"/><ellipse class="cls-11" cx="167.48" cy="99.85" rx="7.41" ry="9.17"/><g class="cls-10"><path class="cls-11" d="M244.61,84.45c1.52.43,6.39,1.87,9.22-.63s2.23-7.16,1.95-11.07c-.38-5.3.33-10.64-.13-15.93-1.24-14.29-11.17-26.61-23.27-33.1-13.26-7.11-24.95-7.79-39.65-7.4-9.73.26-20,.54-31.83,6.6-5,2.55-17.42,9-23.61,22.73a50.42,50.42,0,0,0-3.69,12.13A92.74,92.74,0,0,0,131.88,79a5.37,5.37,0,0,0,.73,3c1.31,1.75,4.48.91,5.2.76C146.11,81,223.08,78.34,244.61,84.45Z"/></g><path class="cls-16" d="M246.84,78.57c1.56.43,6.54,1.86,9.45-.64s2.28-7.16,2-11.07c-.39-5.3.35-10.64-.12-15.94-1.27-14.28-11.43-26.6-23.83-33.08-13.57-7.1-25.55-7.78-40.61-7.37-10,.26-20.51.54-32.61,6.62-5.08,2.55-17.86,9-24.2,22.74A49.31,49.31,0,0,0,133.13,52a90,90,0,0,0-1.77,21.17,5.07,5.07,0,0,0,.75,3c1.33,1.75,4.59.9,5.32.75C145.94,75.15,224.78,72.47,246.84,78.57Z"/><path class="cls-6" d="M247.64,679.15a152.27,152.27,0,0,0-5,29.87,11.28,11.28,0,0,0,.56,5.4,10.64,10.64,0,0,0,2.91,3.39,146.54,146.54,0,0,0,52.7,29.2c1.86.57,4.23,2,3.52,4a3.35,3.35,0,0,1-1.82,1.65c-8.47,4.27-18.36,4-27.62,2.43s-18.34-4.5-27.7-5.29c-8.48-.73-18.59-.48-23.45-7.86-2.27-3.46-2.75-7.86-3.09-12a446,446,0,0,1-1.42-46.1Z"/><g class="cls-10"><path class="cls-11" d="M217.43,706.17a131.27,131.27,0,0,1,26.35-10.45,153.43,153.43,0,0,1,3.86-18.91l-30.38,4.59Q217,693.78,217.43,706.17Z"/></g><path class="cls-11" d="M258.35,734.09a17.47,17.47,0,0,1-2.3-6c-.26-2.16.43-4.6,2.19-5.71s4-.6,5.67.56a25.2,25.2,0,0,1,4.33,4.42c8.44,9.56,21.06,13.25,33.11,15.85,3,.64,6.11,1.31,8.46,3.37s3.54,6,1.73,8.65c-1.37,2-3.86,2.52-6.14,2.85-21.11,3.08-42.53.12-63.66-2.83l-14.57-2a17.66,17.66,0,0,1-6.76-1.89c-2.93-1.76-4.76-5.14-5.57-8.64a42.28,42.28,0,0,1-.58-10.73c.05-1.83.43-4.11,2.07-4.59a4.06,4.06,0,0,1,3,.82,60,60,0,0,0,39.87,7.21Z"/><path class="cls-6" d="M139.26,679a153.3,153.3,0,0,1,6.25,29.63,11.25,11.25,0,0,1-.33,5.42,10.6,10.6,0,0,1-2.76,3.51A146.35,146.35,0,0,1,91,749c-1.85.65-4.15,2.23-3.36,4.1a3.42,3.42,0,0,0,1.89,1.57c8.65,3.9,18.52,3.25,27.71,1.24s18.12-5.29,27.44-6.48c8.44-1.09,18.56-1.28,23.09-8.86,2.12-3.56,2.41-8,2.57-12.17a443.47,443.47,0,0,0-.57-46.12Z"/><g class="cls-10"><path class="cls-11" d="M170.6,704.73a131.21,131.21,0,0,0-26.77-9.3,151.55,151.55,0,0,0-4.68-18.72L169.7,680Q170.5,692.34,170.6,704.73Z"/></g><path class="cls-11" d="M130.92,734.39a17.66,17.66,0,0,0,2-6.1c.16-2.17-.63-4.58-2.43-5.61s-4-.43-5.65.8a25.64,25.64,0,0,0-4.13,4.6c-8,9.92-20.47,14.15-32.4,17.26-2.95.77-6,1.57-8.3,3.74s-3.29,6.18-1.36,8.71c1.45,1.91,4,2.35,6.25,2.58,21.22,2.18,42.5-1.7,63.48-5.57l14.48-2.66a17.74,17.74,0,0,0,6.66-2.19c2.85-1.88,4.54-5.34,5.19-8.87a42.47,42.47,0,0,0,.13-10.75c-.14-1.82-.61-4.08-2.27-4.49a4,4,0,0,0-2.94.95,60,60,0,0,1-39.52,8.91Z"/><path class="cls-16" d="M201.42,414.47q-.61,6.25-1.22,12.51c-.21,2.15-.41,4.3-.62,6.44Q187.87,554.11,176.17,674.8a13.11,13.11,0,0,1-1.44,5.67,8.66,8.66,0,0,1-4.22,3c-.2.09-.39.17-.59.24l0,0a53.6,53.6,0,0,1-27.8,3.45l-.5-.07a53.16,53.16,0,0,1-10.35-2.65,11,11,0,0,1-5.53-3.65c-1.51-2.12-1.9-5-2.22-7.79a933.64,933.64,0,0,1,3-236.85q5.07-36,12.94-71.29L200,413.36Z"/><path class="cls-16" d="M259.63,677.48c-.51,2.73-1.1,5.6-2.75,7.59a10.9,10.9,0,0,1-5.77,3.21,52.7,52.7,0,0,1-5.9,1.3l-.46.07a53.48,53.48,0,0,1-27.54-3.07h0a54.47,54.47,0,0,1-5.18-2.34,8.68,8.68,0,0,1-4-3.37,12.78,12.78,0,0,1-1-5.76q-3.3-120.86-6.6-241.7L200.2,427q-.18-6.74-.37-13.48l.21-.14,65.09-44.43q4.64,30.65,7.18,61.72A933,933,0,0,1,259.63,677.48Z"/><g class="cls-10"><path class="cls-11" d="M272.31,430.65l-71.93,2.75-.8,0-73.14,2.8q5.07-36,12.94-71.29L200,413.36l65.09-44.43Q269.77,399.58,272.31,430.65Z"/></g><path class="cls-16" d="M137.5,205.8c25.27-14.7,107.9-12.81,119.56-.36a42,42,0,0,1,4.58,6,43.82,43.82,0,0,1,4.94,13.05c1.62,8.32,3.79,88.94,4.94,199.14l-143.9,5.77c-2.55-109.53-4.13-189.26-4.23-200.33a25.39,25.39,0,0,1,2.47-11.63C129.21,210.62,135.13,207.18,137.5,205.8Z"/><path class="cls-6" d="M224.82,196.61c-2,6.78-8.42,27.31-17.16,39.15-2.33,3.16-5.15,6.14-9,6.53-3.14.31-6.18-1.19-9.53-4.06-11.48-9.87-25.32-34.91-28-39.87C180.45,195.06,205.19,194.65,224.82,196.61Z"/><path class="cls-6" d="M107.5,261.22Q97.07,350.11,87.67,439.13c-.18,1.77-.35,3.69.54,5.24s2.78,2.46,4.54,3.1a56.73,56.73,0,0,0,22,3.35q13.74-81.29,23.79-163.16"/><g class="cls-10"><path class="cls-11" d="M138.79,287.66q-4.83,40-11,81.71-5.79,39.22-12.3,76.68c.59,2.76,1.18,5.53,1.76,8.29a25.54,25.54,0,0,1-5.81-7.76c-4.32-9-1.85-18.42-.89-22.22,3.82-15.07,6.37-35.08,11.47-75.12a146.57,146.57,0,0,0,1.16-23.13A130.37,130.37,0,0,0,121.63,309c-1.95-11.69-7.06-23.3-15.8-31.13.64-5.56,1.29-11.14,1.94-16.7Z"/></g><path class="cls-16" d="M160.36,204.94a501.09,501.09,0,0,1-4.57,104.78,4.34,4.34,0,0,1-1.24,2.91,4.21,4.21,0,0,1-3.13.45l-51.75-6a3.57,3.57,0,0,1-2.41-.92,3.67,3.67,0,0,1-.42-2.83c3.33-25.91,6.88-52.54,19.56-75.32,4.75-8.52,11-16.61,19.66-21s20-4.36,27.28,2.14"/><path class="cls-17" d="M187.22,263.92a12.3,12.3,0,1,0,14,10.08A12.2,12.2,0,0,0,187.22,263.92Zm3.18,18.58a6.56,6.56,0,1,1,5.27-7.55A6.52,6.52,0,0,1,190.4,282.5Z"/><rect class="cls-17" x="156.81" y="285.75" width="87.67" height="113.24" transform="translate(-54.79 38.68) rotate(-9.7)"/><rect class="cls-18" x="156.81" y="285.75" width="87.67" height="113.24" transform="translate(-54.79 38.68) rotate(-9.7)"/><path class="cls-17" d="M237.7,286,147,301.49l-.67-3.89a15.2,15.2,0,0,1,12.58-17.43l60.52-10.34A15.18,15.18,0,0,1,237,282.07Z"/><path class="cls-6" d="M227.06,344.39c-9.84-7-17.4-11.83-19.71-12.5l-.66-.19a50.55,50.55,0,0,0-5.69-1.24,23.87,23.87,0,0,0-2.74-.36c-3.77-.21-8.78.67-9.32,2.76-.29,1.15.85,2.32,1.31,2.79,2.71,2.77,6,.69,8.9,3.32,1.24,1.11,2.39,3,1.84,4.3a2.64,2.64,0,0,1-1.74,1.3c-5.92,1.93-17.66-3.28-17.66-3.28-1.59-.7-4.55-2.08-7.93-1.28-2.07.5-2.41,1.36-2.47,1.54-.44,1.24,1,2.75,1.7,3.46,2.06,2.14,4.41,2.72,4.34,2.95-.13.4-7.13-2.53-8.67-.42-.9,1.23.33,3.8,1.31,5.09a7.61,7.61,0,0,0,5.88,2.79c-5.1-.39-8.85.66-9.46,2.6a2.68,2.68,0,0,0,.21,1.83c.9,2.17,3.85,3.23,7.41,2.76-1.62.52-5.74,2-5.82,3.81s4.44,3.24,6.27,3.8c11.32,3.45,39.11,2.75,54.58,2.08"/><g class="cls-19"><g class="cls-20"><path class="cls-11" d="M191.31,352h0a39.67,39.67,0,0,1-18.48-5.27.54.54,0,0,1-.2-.74.56.56,0,0,1,.75-.2,38.52,38.52,0,0,0,18,5.12.55.55,0,0,1,.52.57A.53.53,0,0,1,191.31,352Z"/><path class="cls-11" d="M188.35,358.85h-.06a100.71,100.71,0,0,1-11-2c-2.48-.59-5-1.28-7.42-2.06a.54.54,0,1,1,.34-1c2.41.77,4.88,1.45,7.33,2a100.93,100.93,0,0,0,10.85,1.94.53.53,0,0,1,.47.6A.54.54,0,0,1,188.35,358.85Z"/><path class="cls-11" d="M187.56,365.42h-.08l-15.14-2.12a.55.55,0,0,1,.15-1.08l15.14,2.12a.55.55,0,0,1,.47.61A.54.54,0,0,1,187.56,365.42Z"/></g></g><path class="cls-6" d="M253.53,222.82c-7.74,3.61-2.15,33.6,1.77,48.5,2.77,10.58,13.23,46,13.14,64.79a12.15,12.15,0,0,1-2.19,7.56c-4.48,5.81-14.65,4.85-22,4.16a66.08,66.08,0,0,1-21.83-6c-9.24,9.22-12.39,20-8.55,26.1a11.27,11.27,0,0,0,5.25,4.26,145.32,145.32,0,0,0,33.33,10.58c12.74,2.4,20.15,3.69,29.36.8,4.55-1.43,16.27-6,22.49-17.46,3.6-6.63,4.06-13.18,3.38-24.52-1.49-25.12-7-47-14.27-68-6.27-18.08-10.34-24.83-13.89-29.75C273.37,235.3,259.84,219.88,253.53,222.82Z"/><g class="cls-10"><path class="cls-11" d="M307.15,342.88c-1.49-25.12-7-47-14.27-68-6.27-18.08-10.34-24.83-13.89-29.75-6.15-8.51-19.68-23.93-26-21-7.74,3.61-2.15,33.6,1.77,48.5,1.69,6.45,6.24,22.13,9.51,37.65a52.38,52.38,0,0,1,12.4,5.24,55.7,55.7,0,0,1,17.51,15.6,39.17,39.17,0,0,1,6.89,22.41,55.23,55.23,0,0,1-5,23.26,32.89,32.89,0,0,0,7.71-9.4C307.37,360.77,307.83,354.22,307.15,342.88Z"/></g><path class="cls-16" d="M230.05,203.4a501.23,501.23,0,0,0,14.88,103.82,3.22,3.22,0,0,0,4.68,2.92l50.91-11.07a3.55,3.55,0,0,0,2.3-1.16,3.59,3.59,0,0,0,.14-2.85c-5.86-25.45-12-51.61-26.89-73-5.56-8-12.59-15.45-21.63-19s-20.38-2.37-26.94,4.82"/><g class="cls-21"><path class="cls-8" d="M262.36,305c-.44-5.55-1-11.08-1.67-16.59s-1.42-11-2.39-16.49-2-10.92-3.16-16.35-2.47-10.84-3.87-16.22q2.67,7.91,4.67,16c1.34,5.41,2.43,10.88,3.4,16.37s1.65,11,2.16,16.57S262.3,299.47,262.36,305Z"/><path class="cls-8" d="M132.61,312.28a115.86,115.86,0,0,0,3.9-18.31c.85-6.18,1.41-12.41,1.87-18.65s1-12.48,1.82-18.7a113.79,113.79,0,0,1,3.79-18.4,148.46,148.46,0,0,0-3,18.5c-.65,6.21-1.11,12.45-1.57,18.69s-1.1,12.49-2.13,18.68A93.34,93.34,0,0,1,132.61,312.28Z"/><path class="cls-8" d="M250.58,617a53.72,53.72,0,0,1-3.91,9.14,60,60,0,0,1-12.19,15.72,53.6,53.6,0,0,1-7.88,6.06,96.23,96.23,0,0,0,7.32-6.65,83.36,83.36,0,0,0,12-15.53A92.09,92.09,0,0,0,250.58,617Z"/><path class="cls-8" d="M254.93,637.38a48.33,48.33,0,0,1-4.94,6.8,58.83,58.83,0,0,1-6,5.94,60.23,60.23,0,0,1-6.82,5,48.82,48.82,0,0,1-7.5,3.79c2.42-1.42,4.78-2.88,7.06-4.48a78.81,78.81,0,0,0,6.58-5.07,75.79,75.79,0,0,0,6.06-5.69C251.33,641.64,253.15,639.54,254.93,637.38Z"/><path class="cls-8" d="M216.39,659.64a56.09,56.09,0,0,0,3.63,4.44A48.82,48.82,0,0,0,224.1,668a48.24,48.24,0,0,0,4.54,3.39c1.59,1.05,3.25,2,5,2.87a24.27,24.27,0,0,1-5.37-2.17,27.65,27.65,0,0,1-4.81-3.29,28.07,28.07,0,0,1-4-4.21A24,24,0,0,1,216.39,659.64Z"/><path class="cls-8" d="M171.32,629.35a54,54,0,0,1-2.8,6.27,67.54,67.54,0,0,1-3.49,5.92,63.05,63.05,0,0,1-4.11,5.51,51.71,51.71,0,0,1-4.69,5c1.36-1.85,2.73-3.66,4.05-5.51s2.62-3.71,3.86-5.61,2.47-3.8,3.67-5.73S170.14,631.31,171.32,629.35Z"/><path class="cls-8" d="M170.79,646.11a63.79,63.79,0,0,1-4.58,7.66,75.73,75.73,0,0,1-11.77,13.42,66.51,66.51,0,0,1-7,5.54c2.19-2,4.36-4,6.44-6.13s4.13-4.22,6.05-6.47,3.82-4.5,5.63-6.83S169.08,648.55,170.79,646.11Z"/><path class="cls-8" d="M127.23,641.51a32.56,32.56,0,0,0,2.3,5.34,30.41,30.41,0,0,0,7.31,8.8,32.52,32.52,0,0,0,4.83,3.23,18.8,18.8,0,0,1-5.31-2.58,21.88,21.88,0,0,1-7.56-9.09A19,19,0,0,1,127.23,641.51Z"/><path class="cls-8" d="M133.14,377.9l5.07,6.78c1.72,2.23,3.41,4.48,5.21,6.64s3.57,4.35,5.39,6.5l5.55,6.39a80.85,80.85,0,0,1-6.15-5.85c-2-2-3.8-4.2-5.61-6.38s-3.46-4.48-5-6.83A80.15,80.15,0,0,1,133.14,377.9Z"/><path class="cls-8" d="M133.5,398.05c1.88,1.89,3.76,3.76,5.71,5.53s3.95,3.5,6,5.09,4.22,3.17,6.41,4.64,4.45,2.84,6.74,4.2a51.14,51.14,0,0,1-7.17-3.51,59.68,59.68,0,0,1-12.59-9.84A50.92,50.92,0,0,1,133.5,398.05Z"/><path class="cls-8" d="M192.22,252.89a14.87,14.87,0,0,0,9.05-.09,20.55,20.55,0,0,0,7.82-4.52,34,34,0,0,0,5.84-7.06c1.7-2.57,3.18-5.31,4.77-8a68.72,68.72,0,0,1-4.08,8.42,32.27,32.27,0,0,1-5.82,7.42,20.23,20.23,0,0,1-8.31,4.51A13.55,13.55,0,0,1,192.22,252.89Z"/><path class="cls-8" d="M216.9,33.38a83.11,83.11,0,0,1-11.2,5.1A100.86,100.86,0,0,1,193.89,42a101.81,101.81,0,0,1-12.17,2,84.2,84.2,0,0,1-12.3.29c4.09-.22,8.17-.56,12.21-1.1s8.06-1.24,12-2.19a120,120,0,0,0,11.77-3.28C209.31,36.44,213.12,35,216.9,33.38Z"/><path class="cls-8" d="M233.69,41.59a99.81,99.81,0,0,1-16.07,6.35,112.42,112.42,0,0,1-16.93,3.64,112.37,112.37,0,0,1-17.3.87,99.84,99.84,0,0,1-17.16-2,131.77,131.77,0,0,0,17.18,1.18,122.73,122.73,0,0,0,17.14-1.1,122.53,122.53,0,0,0,16.85-3.36A134.88,134.88,0,0,0,233.69,41.59Z"/></g><path class="cls-2" d="M258.76,76.34c-2.94,2.51-8,1.07-9.56.64-22.33-6.09-102.13-3.41-110.74-1.67-.74.15-4,1-5.38-.76a5.13,5.13,0,0,1-.76-3,89,89,0,0,1,1.79-21.17A49.05,49.05,0,0,1,138,38.24c.13-.28.26-.56.41-.84a47.84,47.84,0,0,0,3.44,4.29c5.46,5.94,12.89,9.66,20.33,12.81A201.87,201.87,0,0,0,261,69.24C261.1,72,260.74,74.65,258.76,76.34Z"/><path class="cls-9" d="M140.42,115.39S139,133,141,140s8,22,22,30c4.78,2.73,18.69,8.71,30,9,8.18.21,17.25-2.37,24-5,18-7,25-22.22,27-42.11S246.35,95,246.35,95,242,100,240,114s-14,23-25,26-29,5-45,0-25.08-12.8-24-28.9-3.11-15.9-3.11-15.9Z"/><rect class="cls-22" x="199" y="89" width="41" height="24" rx="6.82"/><rect class="cls-22" x="146.5" y="88.5" width="41" height="24" rx="6.82"/><rect class="cls-23" x="187.5" y="101.5" width="12" height="4"/><line class="cls-24" x1="241" y1="97" x2="249" y2="90"/><line class="cls-24" x1="146" y1="95" x2="138" y2="88"/><path class="cls-9" d="M165,140s14-4,27-4,25,6,25,6l-28.56,6.63Z"/><path class="cls-11" d="M169.75,146a54.83,54.83,0,0,0,22.09,5.92,50.42,50.42,0,0,0,11.37-.77,24.34,24.34,0,0,0,10.56-4.29c-2.48,3.11-6.31,5-10.14,6.07a38.74,38.74,0,0,1-11.89,1.33A39.62,39.62,0,0,1,180,151.87,34.22,34.22,0,0,1,169.75,146Z"/><path class="cls-11" d="M216.08,149.84c-.94-1-1.78-1.85-2.73-2.66s-1.94-1.54-3-2.34a6.87,6.87,0,0,1,5.76,5Z"/><ellipse class="cls-9" cx="149.5" cy="143.5" rx="8.5" ry="13.5"/><ellipse class="cls-9" cx="160.5" cy="159" rx="11.5" ry="12"/><ellipse class="cls-9" cx="174" cy="169" rx="14" ry="9"/><ellipse class="cls-9" cx="190" cy="173.5" rx="13" ry="7.5"/><ellipse class="cls-9" cx="208.5" cy="170" rx="15.5" ry="9"/><ellipse class="cls-9" cx="224.5" cy="159.5" rx="11.5" ry="10.5"/><ellipse class="cls-9" cx="234.5" cy="147" rx="8.5" ry="12"/></svg>