<svg id="Layer_1" data-name="Layer 1" xmlns="http://www.w3.org/2000/svg" viewBox="0 0 800 800"><defs><style>.cls-1{fill:#dcd9c8;}.cls-2{fill:#f1eedb;}.cls-3,.cls-6{fill:#1d1d1b;}.cls-3{opacity:0.1;}.cls-4{fill:#485678;}.cls-5{fill:#a18d81;}.cls-6{opacity:0.2;}.cls-7{fill:#f89f26;}</style></defs><title>IGAssets</title><rect class="cls-1" x="119.03" y="182.31" width="28.55" height="63.64"/><path class="cls-2" d="M74.62,145a58.69,58.69,0,1,0,58.69-58.69A58.69,58.69,0,0,0,74.62,145Z"/><path class="cls-1" d="M100.7,145a32.61,32.61,0,1,0,32.61-32.6A32.6,32.6,0,0,0,100.7,145Z"/><path class="cls-3" d="M76.58,130.15a74.29,74.29,0,0,0,100.85,53.21,58.53,58.53,0,0,1-29.85,18.47V246H119V201.83a58.37,58.37,0,0,1-42.45-71.68Z"/><path class="cls-2" d="M510.14,477.32h3.71c91,0,156.85-79.05,195.76-235l13.74-80.94A117.28,117.28,0,0,0,607.73,24.57h-1.27V45.72h1.27A96.13,96.13,0,0,1,702.5,157.89L688.93,238c-36.09,144.49-95.06,218.14-175.09,218.14h-3.69c-80,0-139-73.65-175.25-218.93l-13.41-79.35A96.13,96.13,0,0,1,416.26,45.72h1.27V24.57h-1.27A117.27,117.27,0,0,0,300.64,161.42l13.57,80.14C353.29,398.27,419.15,477.32,510.14,477.32Z"/><path class="cls-4" d="M569.09,14a21,21,0,0,1,15.66,7.05h34.39V49.4H584.62A21.12,21.12,0,1,1,569.09,14Z"/><path class="cls-4" d="M454.89,14a21,21,0,0,0-15.65,7.05h-34.4V49.4h34.52A21.12,21.12,0,1,0,454.89,14Z"/><path class="cls-5" d="M114.8,281.9h5.67l-2.19,430.63A73.12,73.12,0,0,0,191.38,786H200a73.18,73.18,0,0,0,73.1-73.1V566.83a47.78,47.78,0,0,1,47.72-47.72H322a47.78,47.78,0,0,1,47.72,47.72V712.9a73.18,73.18,0,0,0,73.1,73.1h8.76a73.18,73.18,0,0,0,73.1-73.1V624.53a21.16,21.16,0,0,0,8-12.41c14.87-68,41.15-126,78.1-172.7,18.94-18.17,32.9-33.9,41.41-46.73L631,378.64c-7.62,11.46-20.61,26-38.62,43.22a116.09,116.09,0,0,1-160.79,0c-18-17.22-31-31.77-38.63-43.23l-21.13,14.05c8.53,12.84,22.49,28.57,41.43,46.74,37,46.68,63.23,104.76,78.1,172.69a21.1,21.1,0,0,0,7.94,12.42V712.9a47.79,47.79,0,0,1-47.73,47.72h-8.76a47.79,47.79,0,0,1-47.73-47.72V566.83A73.17,73.17,0,0,0,322,493.73h-1.22a73.18,73.18,0,0,0-73.1,73.1V712.9A47.77,47.77,0,0,1,200,760.62h-8.58a47.71,47.71,0,0,1-47.72-48l2.19-430.76h6V218.26h-18l-13-.07v.07h-6ZM512,589.06c-11-43.29-26.66-82.53-46.71-117.55a139,139,0,0,0,93.4,0C538.65,506.52,523,545.77,512,589.06Z"/><path class="cls-6" d="M395.05,712.9a47.79,47.79,0,0,0,47.73,47.72h8.76a47.78,47.78,0,0,0,47.72-47.72V692.36c8.61-2.35,17.06-5.08,25.38-8.1V712.9a73.18,73.18,0,0,1-73.1,73.1h-8.76a73.18,73.18,0,0,1-73.1-73.1V700.74c8.37,1.14,16.82,2,25.37,2.51Z"/><path class="cls-6" d="M119.2,523.92a353.8,353.8,0,0,0,25.17,40.26l-.75,148.48a47.71,47.71,0,0,0,47.72,48h8.58a47.78,47.78,0,0,0,47.72-47.72V658.34Q260,665.65,273,671.86v41a73.18,73.18,0,0,1-73.1,73.1h-8.58a73.12,73.12,0,0,1-73.1-73.47Z"/><rect class="cls-1" x="119.03" y="182.31" width="28.55" height="63.64"/><path class="cls-2" d="M74.62,145a58.69,58.69,0,1,0,58.69-58.69A58.69,58.69,0,0,0,74.62,145Z"/><path class="cls-1" d="M100.7,145a32.61,32.61,0,1,0,32.61-32.6A32.6,32.6,0,0,0,100.7,145Z"/><path class="cls-3" d="M76.58,130.15a74.29,74.29,0,0,0,100.85,53.21,58.53,58.53,0,0,1-29.85,18.47V246H119V201.83a58.37,58.37,0,0,1-42.45-71.68Z"/><path class="cls-2" d="M510.14,477.32h3.71c91,0,156.85-79.05,195.76-235l13.74-80.94A117.28,117.28,0,0,0,607.73,24.57h-1.27V45.72h1.27A96.13,96.13,0,0,1,702.5,157.89L688.93,238c-36.09,144.49-95.06,218.14-175.09,218.14h-3.69c-80,0-139-73.65-175.25-218.93l-13.41-79.35A96.13,96.13,0,0,1,416.26,45.72h1.27V24.57h-1.27A117.27,117.27,0,0,0,300.64,161.42l13.57,80.14C353.29,398.27,419.15,477.32,510.14,477.32Z"/><path class="cls-4" d="M569.09,14a21,21,0,0,1,15.66,7.05h34.39V49.4H584.62A21.12,21.12,0,1,1,569.09,14Z"/><path class="cls-4" d="M454.89,14a21,21,0,0,0-15.65,7.05h-34.4V49.4h34.52A21.12,21.12,0,1,0,454.89,14Z"/><path class="cls-7" d="M114.8,281.9h5.67l-2.19,430.63A73.12,73.12,0,0,0,191.38,786H200a73.18,73.18,0,0,0,73.1-73.1V566.83a47.78,47.78,0,0,1,47.72-47.72H322a47.78,47.78,0,0,1,47.72,47.72V712.9a73.18,73.18,0,0,0,73.1,73.1h8.76a73.18,73.18,0,0,0,73.1-73.1V624.53a21.16,21.16,0,0,0,8-12.41c14.87-68,41.15-126,78.1-172.7,18.94-18.17,32.9-33.9,41.41-46.73L631,378.64c-7.62,11.46-20.61,26-38.62,43.22a116.09,116.09,0,0,1-160.79,0c-18-17.22-31-31.77-38.63-43.23l-21.13,14.05c8.53,12.84,22.49,28.57,41.43,46.74,37,46.68,63.23,104.76,78.1,172.69a21.1,21.1,0,0,0,7.94,12.42V712.9a47.79,47.79,0,0,1-47.73,47.72h-8.76a47.79,47.79,0,0,1-47.73-47.72V566.83A73.17,73.17,0,0,0,322,493.73h-1.22a73.18,73.18,0,0,0-73.1,73.1V712.9A47.77,47.77,0,0,1,200,760.62h-8.58a47.71,47.71,0,0,1-47.72-48l2.19-430.76h6V218.26h-18l-13-.07v.07h-6ZM512,589.06c-11-43.29-26.66-82.53-46.71-117.55a139,139,0,0,0,93.4,0C538.65,506.52,523,545.77,512,589.06Z"/><path class="cls-6" d="M395.05,712.9a47.79,47.79,0,0,0,47.73,47.72h8.76a47.78,47.78,0,0,0,47.72-47.72V692.36c8.61-2.35,17.06-5.08,25.38-8.1V712.9a73.18,73.18,0,0,1-73.1,73.1h-8.76a73.18,73.18,0,0,1-73.1-73.1V700.74c8.37,1.14,16.82,2,25.37,2.51Z"/><path class="cls-6" d="M119.2,523.92a353.8,353.8,0,0,0,25.17,40.26l-.75,148.48a47.71,47.71,0,0,0,47.72,48h8.58a47.78,47.78,0,0,0,47.72-47.72V658.34Q260,665.65,273,671.86v41a73.18,73.18,0,0,1-73.1,73.1h-8.58a73.12,73.12,0,0,1-73.1-73.47Z"/></svg>