<svg id="Layer_1" data-name="Layer 1" xmlns="http://www.w3.org/2000/svg" viewBox="0 0 800 189"><defs><style>.cls-1{fill:#f1eedb;}.cls-2{fill:#a18d81;}.cls-3{fill:#0593a1;}.cls-4{fill:#06aaba;opacity:0.3;}.cls-5,.cls-6{fill:#1d1d1b;}.cls-5{opacity:0.15;}.cls-6{opacity:0.05;}</style></defs><title>IGAssets</title><rect class="cls-1" x="213.8" y="-66.56" width="12.17" height="338.51" transform="translate(111.65 319.91) rotate(-88.55)"/><rect class="cls-2" x="366.26" y="91.47" width="71.73" height="31.71" transform="translate(284.62 506.6) rotate(-88.54)"/><rect class="cls-2" x="7.77" y="83.51" width="66.87" height="29.28" transform="translate(-57.96 136.85) rotate(-88.54)"/><polygon class="cls-3" points="609.29 105.43 608.93 119.73 543.7 125.88 544.46 95.97 609.29 105.43"/><polygon class="cls-1" points="188.06 66.01 539.96 74.95 538.13 146.65 186.24 137.71 185.95 148.93 554.57 158.29 556.97 64.16 188.34 54.79 188.06 66.01"/><polygon class="cls-2" points="786.14 117.08 609.03 115.93 609.2 109.23 786.14 117.08"/><rect class="cls-1" x="112.78" y="93.19" width="131.85" height="16.9" transform="translate(72.55 277.7) rotate(-88.54)"/><rect class="cls-1" x="475.05" y="76.9" width="24.78" height="10.46" transform="translate(392.94 567.32) rotate(-88.54)"/><rect class="cls-1" x="411.46" y="75.29" width="24.78" height="10.46" transform="translate(332.59 502.18) rotate(-88.54)"/><rect class="cls-1" x="347.87" y="73.67" width="24.78" height="10.46" transform="translate(272.25 437.04) rotate(-88.55)"/><rect class="cls-1" x="284.28" y="72.05" width="24.78" height="10.46" transform="translate(211.88 371.89) rotate(-88.54)"/><rect class="cls-1" x="220.69" y="70.44" width="24.78" height="10.46" transform="translate(151.51 306.75) rotate(-88.54)"/><rect class="cls-4" x="442.65" y="48.71" width="71.73" height="121.11" transform="matrix(0.03, -1, 1, 0.03, 357.13, 584.84)"/><polygon class="cls-5" points="555.83 109.45 555.44 124.78 608.93 119.73 609.29 105.43 605.05 104.81 555.83 109.45"/><polygon class="cls-6" points="169.72 122.5 168.58 167.33 185.47 167.76 185.97 148.93 554.57 158.29 555.31 132.33 169.72 122.5"/><polygon class="cls-5" points="26.13 115.87 25.72 131.2 54.99 131.94 55.38 116.61 26.13 115.87"/><rect class="cls-1" x="213.8" y="-66.56" width="12.17" height="338.51" transform="translate(111.65 319.91) rotate(-88.55)"/><rect class="cls-2" x="366.26" y="91.47" width="71.73" height="31.71" transform="translate(284.62 506.6) rotate(-88.54)"/><rect class="cls-2" x="7.77" y="83.51" width="66.87" height="29.28" transform="translate(-57.96 136.85) rotate(-88.54)"/><polygon class="cls-3" points="609.29 105.43 608.93 119.73 543.7 125.88 544.46 95.97 609.29 105.43"/><polygon class="cls-1" points="188.06 66.01 539.96 74.95 538.13 146.65 186.24 137.71 185.95 148.93 554.57 158.29 556.97 64.16 188.34 54.79 188.06 66.01"/><polygon class="cls-2" points="786.14 117.08 609.03 115.93 609.2 109.23 786.14 117.08"/><rect class="cls-1" x="112.78" y="93.19" width="131.85" height="16.9" transform="translate(72.55 277.7) rotate(-88.54)"/><rect class="cls-1" x="475.05" y="76.9" width="24.78" height="10.46" transform="translate(392.94 567.32) rotate(-88.54)"/><rect class="cls-1" x="411.46" y="75.29" width="24.78" height="10.46" transform="translate(332.59 502.18) rotate(-88.54)"/><rect class="cls-1" x="347.87" y="73.67" width="24.78" height="10.46" transform="translate(272.25 437.04) rotate(-88.55)"/><rect class="cls-1" x="284.28" y="72.05" width="24.78" height="10.46" transform="translate(211.88 371.89) rotate(-88.54)"/><rect class="cls-1" x="220.69" y="70.44" width="24.78" height="10.46" transform="translate(151.51 306.75) rotate(-88.54)"/><rect class="cls-4" x="442.65" y="48.71" width="71.73" height="121.11" transform="matrix(0.03, -1, 1, 0.03, 357.13, 584.84)"/><polygon class="cls-5" points="555.83 109.45 555.44 124.78 608.93 119.73 609.29 105.43 605.05 104.81 555.83 109.45"/><polygon class="cls-6" points="169.72 122.5 168.58 167.33 185.47 167.76 185.97 148.93 554.57 158.29 555.31 132.33 169.72 122.5"/><polygon class="cls-5" points="26.13 115.87 25.72 131.2 54.99 131.94 55.38 116.61 26.13 115.87"/></svg>