<svg xmlns="http://www.w3.org/2000/svg" viewBox="0 0 800 800"><defs><style>.cls-1{isolation:isolate;}.cls-2{fill:#dcd9c8;}.cls-3{fill:#344166;}.cls-4{fill:#485678;}.cls-5{fill:#f1eedb;mix-blend-mode:multiply;}.cls-6{fill:#df4937;}.cls-7{fill:#1d1d1b;opacity:0.15;}.cls-8{fill:#fff;opacity:0.3;mix-blend-mode:screen;}</style></defs><title>IGAssets</title><g class="cls-1"><g id="Layer_1" data-name="Layer 1"><path class="cls-2" d="M776.05,788.71H12.27V504.44H776.05ZM50.94,750H737.38V543.11H50.94Z"/><rect class="cls-3" x="109.15" y="91" width="119.24" height="113.66"/><rect class="cls-4" x="93.04" y="91" width="151.47" height="72.91" rx="10.27"/><path class="cls-5" d="M169.53,753.26H168a75,75,0,0,1-75-75V179.6H244.51V678.29A75,75,0,0,1,169.53,753.26Z"/><path class="cls-6" d="M107.55,371.37V678.28A60.54,60.54,0,0,0,168,738.76h1.51A60.54,60.54,0,0,0,230,678.28V371.37Z"/><path class="cls-7" d="M169.53,753.26H168a75,75,0,0,1-75-75C199.87,689.46,244.81,505.75,244.5,179.6V678.29A75,75,0,0,1,169.53,753.26Z"/><path class="cls-8" d="M147,232.4H118V673.64a55.67,55.67,0,0,0,29,48.83Z"/><rect class="cls-3" x="334.54" y="91" width="119.24" height="113.66"/><rect class="cls-4" x="318.43" y="91" width="151.47" height="72.91" rx="10.27"/><path class="cls-5" d="M394.92,753.26H393.4a75,75,0,0,1-75-75V179.6H469.89V678.29A75,75,0,0,1,394.92,753.26Z"/><path class="cls-6" d="M332.93,396.73V678.28a60.55,60.55,0,0,0,60.48,60.48h1.51a60.54,60.54,0,0,0,60.47-60.48V396.73Z"/><path class="cls-7" d="M394.92,753.26H393.4a75,75,0,0,1-75-75C425.26,689.46,470.2,505.75,469.89,179.6V678.29A75,75,0,0,1,394.92,753.26Z"/><path class="cls-8" d="M372.41,232.4h-29V673.64a55.68,55.68,0,0,0,29,48.83Z"/><rect class="cls-3" x="559.93" y="91" width="119.24" height="113.66"/><rect class="cls-4" x="543.81" y="91" width="151.47" height="72.91" rx="10.27"/><path class="cls-5" d="M620.31,753.26h-1.52a75,75,0,0,1-75-75V179.6H695.28V678.29A75,75,0,0,1,620.31,753.26Z"/><path class="cls-6" d="M558.32,317.49V678.28a60.54,60.54,0,0,0,60.47,60.48h1.51a60.55,60.55,0,0,0,60.48-60.48V317.49Z"/><path class="cls-7" d="M620.3,753.26h-1.51a75,75,0,0,1-75-75C650.65,689.46,695.59,505.75,695.28,179.6V678.29A75,75,0,0,1,620.3,753.26Z"/><path class="cls-8" d="M597.8,232.4h-29V673.64a55.68,55.68,0,0,0,29,48.83Z"/><path class="cls-2" d="M776.05,788.71H12.27V504.44H776.05ZM50.94,750H737.38V543.11H50.94Z"/></g></g></svg>